<?xml version="1.0" standalone="no"?>
<!DOCTYPE svg PUBLIC "-//W3C//DTD SVG 1.1//EN" "http://www.w3.org/Graphics/SVG/1.1/DTD/svg11.dtd" >
<svg>
<metadata>
Created by FontForge 20120731 at Sun Nov  3 01:11:26 2019
 By www
Font software Copyright 1990, 1995, 2002 Adobe Systems Incorporated. All rights reserved. Typeface designs Copyright The Monotype Corporation. All rights reserved.
</metadata>
<defs>
<font id="PlantinW02" horiz-adv-x="573" >
  <font-face 
    font-family="PlantinW02"
    font-weight="400"
    font-stretch="normal"
    units-per-em="1000"
    panose-1="2 2 5 3 5 4 5 2 3 4"
    ascent="754"
    descent="-246"
    x-height="450"
    cap-height="682"
    bbox="-132 -250 1052 911"
    underline-thickness="50"
    underline-position="-50"
    unicode-range="U+000D-FB02"
  />
<missing-glyph horiz-adv-x="500" 
d="M0 700h500v-700h-500v700zM420 650h-340l170 -255zM450 95v510l-170 -255zM420 50l-170 255l-170 -255h340zM50 95l170 255l-170 255v-510z" />
    <glyph glyph-name=".notdef" horiz-adv-x="500" 
d="M0 700h500v-700h-500v700zM420 650h-340l170 -255zM450 95v510l-170 -255zM420 50l-170 255l-170 -255h340zM50 95l170 255l-170 255v-510z" />
    <glyph glyph-name=".null" horiz-adv-x="0" 
 />
    <glyph glyph-name="uni000D" unicode="&#xd;" horiz-adv-x="0" 
 />
    <glyph glyph-name="space" unicode=" " horiz-adv-x="278" 
 />
    <glyph glyph-name="exclam" unicode="!" horiz-adv-x="292" 
d="M145 112q26 0 44 -17.5t18 -43.5t-18 -44t-44 -18t-43.5 18t-17.5 44t17.5 43.5t43.5 17.5zM139 189q-8 0 -11 4t-4 15l-34 447q-2 23 5.5 33.5t33.5 10.5h34q26 0 33.5 -10.5t5.5 -33.5l-34 -447q-1 -11 -4 -15t-11 -4h-14z" />
    <glyph glyph-name="quotedbl" unicode="&#x22;" horiz-adv-x="408" 
d="M78 541l-9 49l-3 38q0 24 13.5 39t35.5 15q23 0 36.5 -15t13.5 -39l-4 -38l-9 -49l-26 -145h-21zM255 541l-9 49l-4 38q0 24 13.5 39t36.5 15t36.5 -15t13.5 -39l-4 -38l-9 -49l-26 -145h-22z" />
    <glyph glyph-name="numbersign" unicode="#" horiz-adv-x="668" 
d="M198 488l42 194h69l-41 -194h195l41 194h70l-41 -194h93v-70h-107l-35 -171h142v-70h-156l-41 -193h-70l41 193h-197l-39 -193h-71l41 193h-93v70h107l36 171h-143v70h157zM218 248h196l36 170h-196z" />
    <glyph glyph-name="dollar" unicode="$" horiz-adv-x="552" 
d="M221 645q11 2 24 3t25 1q13 0 25 -1t25 -3v37h37v-46q53 -15 87.5 -45.5t34.5 -62.5q0 -15 -9 -27t-20 -12q-25 0 -38 12t-21.5 28t-15 31.5t-18.5 22.5v-226q65 -21 102 -68t37 -107q0 -65 -37.5 -114t-101.5 -68v-113h-37v105l-21 -3q-5 -1 -10.5 -1h-11.5q-14 0 -27 1
t-29 4v-106h-37v113q-27 8 -50.5 20.5t-41 28t-27.5 32t-10 32.5q0 19 13.5 32.5t33.5 13.5q21 0 30 -12t15 -28.5t13 -34t24 -29.5v266q-62 27 -90.5 67t-28.5 94q0 56 30 95t89 59v46h37v-37zM221 404q25 -11 48.5 -18.5t50.5 -16.5v232q-14 2 -25 3.5t-23 1.5
q-11 0 -24 -1.5t-27 -3.5v-197zM184 590q-28 -13 -43 -34t-15 -49q0 -56 58 -87v170zM221 39q26 -7 50.5 -7.5t48.5 -0.5v240q-27 8 -50.5 16.5t-48.5 17.5v-266zM357 41q35 15 56 45t21 65t-17.5 59t-59.5 45v-214z" />
    <glyph glyph-name="percent" unicode="%" horiz-adv-x="906" 
d="M294 510q0 83 -17 120.5t-55 37.5q-36 0 -53.5 -37t-17.5 -116q0 -77 17.5 -113.5t54.5 -36.5q71 0 71 145zM76 513q0 39 11 72t30.5 57.5t46.5 38t59 13.5q31 0 58 -13.5t46.5 -37t30.5 -56t11 -71.5q0 -38 -11 -70.5t-30.5 -56t-46.5 -37t-58 -13.5q-32 0 -59 13
t-46.5 36t-30.5 55t-11 70zM191 -31l462 725h51l-461 -725h-52zM536 162q0 39 11 72t30.5 57.5t46.5 38t59 13.5q31 0 58 -13.5t46.5 -37t30.5 -56t11 -71.5q0 -38 -11 -70.5t-30.5 -56t-46.5 -37t-58 -13.5q-32 0 -59 13t-46.5 36t-30.5 55t-11 70zM754 159q0 83 -17 120.5
t-55 37.5q-36 0 -53.5 -37t-17.5 -116q0 -77 17.5 -113.5t54.5 -36.5q71 0 71 145z" />
    <glyph glyph-name="ampersand" unicode="&#x26;" horiz-adv-x="750" 
d="M720 439v-38q-36 -8 -55.5 -25t-36.5 -45.5t-38 -68.5t-60 -92q14 -17 29.5 -36t25.5 -29q26 -26 50 -36.5t43 -16t30 -12.5t11 -25q0 -26 -44 -26h-35q-116 0 -181 98q-59 -54 -108.5 -76.5t-107.5 -22.5q-52 0 -91 16.5t-65 42.5t-39 59.5t-13 66.5q0 31 9.5 57
t31.5 52t56.5 54.5t85.5 64.5q-39 43 -56 75t-17 61q0 31 21.5 60t52 51.5t63.5 36.5t56 14q29 0 53 -14.5t40.5 -35t25.5 -42.5t9 -37q0 -16 -6.5 -31t-22 -31t-41 -34.5t-63.5 -42.5q40 -35 83.5 -96t88.5 -128q32 42 50 80t18 58t-17 35.5t-46 20.5v38h210zM130 222
q0 -30 15 -59t39.5 -51t56.5 -35.5t66 -13.5q36 0 64 12t64 44q-21 36 -46 74t-50.5 72t-50 62.5t-43.5 45.5q-61 -42 -88 -77.5t-27 -73.5zM219 571q0 -23 22 -49.5t63 -61.5q45 26 66 49.5t21 48.5q0 13 -7.5 29t-19 29.5t-26 23t-28.5 9.5q-17 0 -33.5 -6.5t-29 -17.5
t-20.5 -25t-8 -29z" />
    <glyph glyph-name="quotesingle" unicode="'" horiz-adv-x="180" 
d="M53 541l-9 49l-4 38q0 24 13.5 39t36.5 15q22 0 35.5 -15t13.5 -39l-4 -38l-8 -49l-27 -145h-21z" />
    <glyph glyph-name="parenleft" unicode="(" horiz-adv-x="385" 
d="M339 -185q-121 72 -182.5 184t-61.5 256t61.5 256t182.5 184l31 -38q-103 -63 -157.5 -164t-54.5 -238t54.5 -238t157.5 -164z" />
    <glyph glyph-name="parenright" unicode=")" horiz-adv-x="385" 
d="M46 695q121 -72 182.5 -184t61.5 -256t-61.5 -256t-182.5 -184l-31 38q103 63 157.5 164t54.5 238t-54.5 238t-157.5 164z" />
    <glyph glyph-name="asterisk" unicode="*" horiz-adv-x="500" 
d="M131 310l-21 24l85 142l-161 68l9 28h166l27 157h28l38 -150l157 28l7 -28l-136 -92l83 -153l-21 -24l-130 114z" />
    <glyph glyph-name="plus" unicode="+" horiz-adv-x="667" 
d="M295 364v229h77v-229h229v-77h-229v-229h-77v229h-229v77h229z" />
    <glyph glyph-name="comma" unicode="," horiz-adv-x="292" 
d="M33 -116q67 8 104.5 31t37.5 71q0 29 -11 43t-37 14q-29 0 -45.5 15t-16.5 42q0 29 17.5 46t46.5 17q22 0 41 -11t33 -30.5t22 -46.5t8 -58q0 -80 -52 -124t-148 -46v37z" />
    <glyph glyph-name="hyphen" unicode="-" horiz-adv-x="365" 
d="M29 275h307v-76h-307v76z" />
    <glyph glyph-name="period" unicode="." horiz-adv-x="292" 
d="M145 112q26 0 44 -17.5t18 -43.5t-18 -44t-44 -18t-43.5 18t-17.5 44t17.5 43.5t43.5 17.5z" />
    <glyph glyph-name="slash" unicode="/" horiz-adv-x="278" 
d="M44 -12h-44l234 711h44z" />
    <glyph glyph-name="zero" unicode="0" horiz-adv-x="552" 
d="M49 306q0 75 17.5 140t48.5 113.5t72.5 76.5t89.5 28q49 0 90.5 -24t71.5 -67t47 -102t17 -128q0 -66 -15 -126.5t-44 -113.5q-32 -57 -75 -86t-95 -29q-99 0 -165 100q-60 91 -60 218zM143 366q0 -46 3.5 -89.5t9.5 -81.5q9 -53 36 -105q16 -32 39.5 -48.5t50.5 -16.5
q32 0 59.5 23t41.5 63q14 37 20 79.5t6 103.5q0 158 -37.5 242.5t-106.5 84.5q-29 0 -55.5 -20.5t-40.5 -55.5q-7 -17 -12 -34.5t-8 -38.5t-4.5 -47t-1.5 -59z" />
    <glyph glyph-name="one" unicode="1" horiz-adv-x="552" 
d="M327 130q0 -46 18 -70t63 -24h10v-36h-284v36h16q83 0 83 91v368q0 41 -17.5 61.5t-61.5 20.5h-17v36q27 0 48.5 2.5t40.5 8.5t36.5 16t35.5 24h29v-534z" />
    <glyph glyph-name="two" unicode="2" horiz-adv-x="552" 
d="M455 0h-406v36q69 76 129.5 134.5t105 107.5t70.5 92t26 89q0 27 -9.5 51.5t-25 42.5t-37 28.5t-45.5 10.5q-53 0 -97.5 -39.5t-75.5 -112.5l-37 15q36 101 96.5 155t138.5 54q39 0 73 -14.5t59 -40t39.5 -59t14.5 -72.5q0 -62 -31.5 -107t-80 -87t-107 -89.5
t-113.5 -113.5h210q24 0 41.5 4t30.5 13.5t23.5 25.5t21.5 41h35z" />
    <glyph glyph-name="three" unicode="3" horiz-adv-x="552" 
d="M160 338q47 26 82 48.5t58 43.5t34.5 42.5t11.5 45.5q0 35 -24.5 59t-62.5 24q-83 0 -173 -101l-28 22q52 70 107.5 106t122.5 36q33 0 61 -9t48 -24.5t31.5 -37.5t11.5 -48q0 -38 -27 -71.5t-91 -75.5l2 -2q36 5 66 -6.5t52 -34.5t34 -53.5t12 -62.5q0 -50 -23 -95.5
t-62 -80t-91 -55t-110 -20.5q-45 0 -88.5 12.5t-70.5 32.5l20 29q36 -17 63.5 -24t59.5 -7q43 0 80.5 14t66 39t45 59t16.5 73q0 28 -9 51t-24.5 40t-36.5 26.5t-45 9.5q-47 0 -103 -38z" />
    <glyph glyph-name="four" unicode="4" horiz-adv-x="552" 
d="M406 115q0 -44 20 -61.5t68 -17.5v-36h-272v36q51 0 70.5 19t19.5 62v70h-274v58l288 419h80v-428q30 0 44 13.5t25 50.5h34l-15 -113h-88v-72zM312 577h-2l-231 -341h233v341z" />
    <glyph glyph-name="five" unicode="5" horiz-adv-x="552" 
d="M386 652q30 0 41 2t17 10h34l-19 -93h-300l-30 -133q35 14 61 20.5t55 6.5q49 0 91 -17.5t73 -48.5t49 -73t18 -90q0 -54 -21.5 -99.5t-59.5 -78.5t-90 -51.5t-113 -18.5q-70 0 -133 21l15 34q29 -6 51.5 -9t43.5 -3q43 0 81.5 15t67 41t45 60.5t16.5 74.5
q0 36 -12.5 65.5t-34 51t-51.5 33.5t-66 12q-35 0 -64.5 -10.5t-58.5 -33.5l-23 6l71 306h246z" />
    <glyph glyph-name="six" unicode="6" horiz-adv-x="552" 
d="M439 629q-51 -2 -97 -19.5t-82 -50t-60 -79.5t-32 -107l2 -2q37 40 73.5 55.5t77.5 15.5q39 0 71.5 -16t56 -44t37 -66.5t13.5 -83.5q0 -50 -16 -94.5t-44 -77.5t-64.5 -52.5t-78.5 -19.5q-39 0 -80.5 18t-75 54t-55 90.5t-21.5 128.5q0 84 31.5 155t84 123t120 80
t139.5 27v-35zM162 303q-4 -57 4 -106.5t26 -86.5t44.5 -58t58.5 -21q45 0 77.5 45t32.5 134q0 41 -8.5 74.5t-23.5 57.5t-36.5 37t-46.5 13q-37 0 -66 -20.5t-62 -68.5z" />
    <glyph glyph-name="seven" unicode="7" horiz-adv-x="552" 
d="M198 0q0 103 59 241.5t166 329.5h-226q-48 0 -73 -19.5t-38 -67.5h-37l41 180h24q12 -9 32 -11q9 -1 19.5 -1h22.5h296v-51q-35 -55 -68.5 -130.5t-60 -158t-43 -164t-16.5 -148.5h-98z" />
    <glyph glyph-name="eight" unicode="8" horiz-adv-x="552" 
d="M199 331q-66 35 -96 73t-30 89q0 35 16 66t44 54.5t65 37t79 13.5t78 -12t63 -33t42.5 -49.5t15.5 -61.5q0 -47 -29.5 -81t-93.5 -61q141 -69 141 -191q0 -41 -16 -75.5t-45 -59.5t-69.5 -38.5t-88.5 -13.5q-46 0 -85.5 13t-69 36.5t-46 55t-16.5 68.5q0 59 39 101
t102 69zM315 384q88 40 88 116q0 26 -10 48.5t-27.5 38.5t-42 25t-53.5 9q-50 0 -83.5 -28t-33.5 -70q0 -31 15.5 -52t39.5 -36t52.5 -27t54.5 -24zM235 313q-48 -23 -73.5 -59.5t-25.5 -84.5q0 -32 10.5 -58.5t30 -45.5t46.5 -29.5t60 -10.5q61 0 99.5 33.5t38.5 85.5
q0 31 -12.5 54t-36 42.5t-58 36.5t-79.5 36z" />
    <glyph glyph-name="nine" unicode="9" horiz-adv-x="552" 
d="M113 23q108 7 179 69t91 186l-2 2q-39 -38 -74 -54t-76 -16q-39 0 -71.5 16t-56 44t-37 66.5t-13.5 83.5q0 50 16 94.5t44 77.5t64.5 52.5t78.5 19.5q38 0 79 -17t75 -53t56 -91t22 -131q0 -73 -27 -142t-76 -122.5t-118.5 -86.5t-153.5 -33v35zM390 349q4 63 -5 113.5
t-27.5 86t-44.5 54t-54 18.5q-50 0 -81 -45.5t-31 -133.5q0 -41 8.5 -74.5t23.5 -57.5t36 -37t47 -13q75 0 128 89z" />
    <glyph glyph-name="colon" unicode=":" horiz-adv-x="292" 
d="M145 461q26 0 44 -17.5t18 -43.5t-18 -44t-44 -18t-43.5 18t-17.5 44t17.5 43.5t43.5 17.5zM145 112q26 0 44 -17.5t18 -43.5t-18 -44t-44 -18t-43.5 18t-17.5 44t17.5 43.5t43.5 17.5z" />
    <glyph glyph-name="semicolon" unicode=";" horiz-adv-x="292" 
d="M33 -116q67 8 104.5 31t37.5 71q0 29 -11 43t-37 14q-29 0 -45.5 15t-16.5 42q0 29 17.5 46t46.5 17q22 0 41 -11t33 -30.5t22 -46.5t8 -58q0 -80 -52 -124t-148 -46v37zM145 461q26 0 44 -17.5t18 -43.5t-18 -44t-44 -18t-43.5 18t-17.5 44t17.5 43.5t43.5 17.5z" />
    <glyph glyph-name="less" unicode="&#x3c;" horiz-adv-x="667" 
d="M66 291v70l534 224v-83l-430 -176l430 -176v-83z" />
    <glyph glyph-name="equal" unicode="=" horiz-adv-x="667" 
d="M601 480v-77h-535v77h535zM601 249v-77h-535v77h535z" />
    <glyph glyph-name="greater" unicode="&#x3e;" horiz-adv-x="667" 
d="M600 360v-69l-534 -224v83l430 175l-430 176v84z" />
    <glyph glyph-name="question" unicode="?" horiz-adv-x="385" 
d="M110 175q0 36 -2.5 60.5t-5 41.5t-5 28t-2.5 19q0 12 6 18t25 10.5t42.5 10.5t48.5 16t44 29q14 14 22 31t8 34q0 25 -12 51t-31.5 47t-43 34.5t-46.5 13.5q-14 0 -24 -3.5t-19 -7.5t-18 -7.5t-20 -3.5q-19 0 -30.5 11.5t-11.5 29.5q0 28 24 44.5t64 16.5q35 0 65.5 -16
t56.5 -40.5t46 -55.5t34 -61t21.5 -56t7.5 -41q0 -28 -9 -52.5t-29 -44.5t-41 -31t-41.5 -18.5t-38 -15t-30.5 -20.5q-11 -11 -14.5 -29.5t-4.5 -42.5h-36zM131 112q26 0 44 -17.5t18 -43.5t-18 -44t-44 -18t-43.5 18t-17.5 44t17.5 43.5t43.5 17.5z" />
    <glyph glyph-name="at" unicode="@" horiz-adv-x="921" 
d="M597 141q-13 -43 -3.5 -67t34.5 -24q31 0 67 23t66.5 65t50.5 100.5t20 129.5q0 66 -23.5 121.5t-65.5 95t-100 62t-127 22.5q-98 0 -175.5 -40.5t-131.5 -106t-83 -149t-29 -169.5t28 -157.5t79 -123.5t121 -80.5t154 -28.5q134 0 235.5 69.5t157.5 200.5h28
q-18 -62 -57 -117t-94.5 -95.5t-124.5 -64t-147 -23.5q-92 0 -170 32.5t-135 90t-89 137t-32 173.5q0 100 36 187t98 151.5t146.5 101.5t181.5 37q78 0 142.5 -24.5t110 -68.5t71 -105.5t25.5 -136.5q0 -51 -16 -111t-49 -112t-83.5 -86.5t-119.5 -34.5q-76 0 -76 68
q0 15 1.5 30t6.5 39l-2 2q-20 -26 -42.5 -51t-46.5 -44.5t-49.5 -31.5t-50.5 -12q-38 0 -63.5 33t-25.5 82q0 58 26.5 118.5t67 110t87.5 81t88 31.5q29 0 53 -16.5t30 -51.5h2l15 54l77 11zM521 448q-24 0 -48.5 -17t-46.5 -44.5t-41 -61.5t-32.5 -67.5t-21.5 -63.5t-8 -49
q0 -30 16.5 -50.5t40.5 -20.5q30 0 65.5 26.5t65.5 69.5t50 97t20 109q0 32 -17 52t-43 20z" />
    <glyph glyph-name="A" unicode="A" horiz-adv-x="719" 
d="M459 266h-264l-36 -94q-10 -26 -10.5 -50t9 -42t28 -29.5t47.5 -12.5v-38h-230v38q19 5 33 13t24.5 21t19.5 32t20 46l201 500l-16 32h107l248 -577q15 -35 31.5 -51t44.5 -16v-38h-280v38q60 6 76.5 33.5t-2.5 72.5zM323 591l-107 -271h220z" />
    <glyph glyph-name="B" unicode="B" horiz-adv-x="688" 
d="M139 547q0 51 -24.5 74t-81.5 23v38h363q105 0 161.5 -43t56.5 -122q0 -69 -48.5 -106t-154.5 -53v-2q66 -2 110 -18.5t71 -41.5t38 -55t11 -59q0 -43 -18.5 -76.5t-50 -57t-73 -36t-86.5 -12.5h-380v38q62 0 84 26.5t22 76.5v406zM339 380q79 0 116.5 26.5t37.5 94.5
q0 69 -44 103.5t-125 34.5h-80v-259h95zM244 144q0 -49 23 -75t71 -26h51q61 0 96 35.5t35 96.5q0 28 -9.5 56.5t-30.5 51t-54.5 36.5t-80.5 14h-101v-189z" />
    <glyph glyph-name="C" unicode="C" horiz-adv-x="781" 
d="M684 488q-35 75 -98.5 119t-138.5 44q-51 0 -98.5 -19t-84.5 -57t-59 -94.5t-22 -132.5q0 -64 18.5 -121.5t54 -101t87 -69t118.5 -25.5q85 0 144.5 41.5t78.5 126.5h37l-5 -157q-29 -12 -63.5 -21.5t-71 -17t-72 -11.5t-65.5 -4q-84 0 -154 25.5t-121 71t-79 108.5
t-28 138q0 66 24.5 130.5t74 116.5t123.5 84t174 32q56 0 113.5 -12t120.5 -35l24 -159h-32z" />
    <glyph glyph-name="D" unicode="D" horiz-adv-x="844" 
d="M141 536q0 24 -4.5 44t-16.5 34.5t-34 22t-57 7.5v38h388q96 0 162 -25t117 -76q57 -57 79 -114.5t22 -120.5q0 -59 -22 -120t-69 -111.5t-120.5 -82.5t-176.5 -32h-380v38q62 0 87 22.5t25 78.5v397zM246 149q0 -48 28 -77t77 -29h57q67 0 116.5 23t82.5 61.5t49 88.5
t16 105q0 58 -18 115t-58 102t-102.5 73t-150.5 28h-97v-490z" />
    <glyph glyph-name="E" unicode="E" horiz-adv-x="677" 
d="M613 0h-587v38q57 0 82 23.5t25 78.5v402q0 50 -23 76t-84 26v38h578v-152h-36q-14 34 -30.5 55t-37 33t-46 16.5t-56.5 4.5h-160v-262h134q70 0 100 21.5t34 74.5h41v-241h-41q-9 57 -38.5 79.5t-93.5 22.5h-136v-165q0 -36 5.5 -60t19 -39t36 -21t56.5 -6h50q42 0 73 6
t55 20.5t43 38.5t37 59h45z" />
    <glyph glyph-name="F" unicode="F" horiz-adv-x="656" 
d="M557 227h-41q-11 62 -39.5 87.5t-86.5 25.5h-145v-202q0 -57 26.5 -78.5t94.5 -21.5v-38h-332v38q61 0 83.5 26t22.5 75v396q0 58 -23.5 83.5t-88.5 25.5v38h607v-154h-30q-17 33 -33 54.5t-35 34t-43 17.5t-56 5h-193v-256h164q29 0 48 5t31 16t18 28t9 41h42v-246z" />
    <glyph glyph-name="G" unicode="G" horiz-adv-x="833" 
d="M735 36q-86 -26 -153.5 -37t-126.5 -11q-105 0 -182 30t-127.5 78t-75.5 109t-25 124q0 76 33 142.5t90 116t134 78t165 28.5q58 0 114 -10t130 -35l14 -160h-41q-39 83 -96.5 122.5t-138.5 39.5q-60 0 -111 -23t-88.5 -64.5t-58.5 -97.5t-21 -122t22.5 -123.5
t61.5 -99.5t92 -66t114 -24q42 0 81.5 10.5t84.5 33.5v144q0 46 -24 70t-75 24h-21v38h320v-38q-26 -2 -43.5 -9t-28 -19t-15 -30t-4.5 -43v-176z" />
    <glyph glyph-name="H" unicode="H" horiz-adv-x="854" 
d="M241 139q0 -56 25.5 -78.5t82.5 -22.5v-38h-318v38q33 0 53.5 7t32 20.5t15.5 32.5t4 44v404q0 53 -24.5 75.5t-80.5 22.5v38h318v-38q-52 0 -80 -21t-28 -78v-170h370v178q0 42 -23.5 66.5t-73.5 24.5v38h309v-38q-61 0 -84 -25t-23 -79v-394q0 -26 4.5 -46.5t16 -34
t32.5 -20.5t54 -7v-38h-309v38q51 0 74 25t23 72v188h-370v-184z" />
    <glyph glyph-name="I" unicode="I" horiz-adv-x="375" 
d="M241 139q0 -49 22.5 -75t84.5 -26v-38h-321v38q35 0 56.5 6.5t33 21t15.5 36t4 51.5v384q0 56 -22.5 81.5t-86.5 25.5v38h321v-38q-55 0 -81 -22.5t-26 -80.5v-402z" />
    <glyph glyph-name="J" unicode="J" horiz-adv-x="354" 
d="M355 682v-38q-55 0 -82.5 -20.5t-27.5 -70.5v-451q0 -74 -13 -125.5t-36.5 -84.5t-56 -48t-71.5 -15q-45 0 -74 18.5t-29 47.5q0 20 12.5 33.5t33.5 13.5q20 0 31.5 -11t20.5 -24t18 -24t25 -11q23 0 28.5 22.5t5.5 60.5v588q0 53 -24.5 77t-85.5 24v38h325z" />
    <glyph glyph-name="K" unicode="K" horiz-adv-x="802" 
d="M348 682v-38q-54 0 -80 -21.5t-26 -72.5v-414q0 -23 5 -41.5t17.5 -31t34.5 -19t55 -6.5v-38h-323v38q59 0 82.5 24.5t23.5 82.5v388q0 27 -4 47.5t-16 35t-32.5 21.5t-53.5 7v38h317zM743 682v-38q-37 -4 -65 -14t-58 -33q-24 -18 -47 -39t-51.5 -47.5t-66.5 -58
t-90 -70.5q35 -27 75 -63t81.5 -74t83 -75t79.5 -66q42 -32 71.5 -45t61.5 -19v-40h-176q-63 51 -156.5 141t-221.5 198l-13 12q72 50 123.5 90t84.5 71t48 53.5t15 37.5q0 41 -61 41v38h283z" />
    <glyph glyph-name="L" unicode="L" horiz-adv-x="677" 
d="M135 544q0 25 -5 44t-18 31.5t-34.5 18.5t-55.5 6v38h331v-38q-35 0 -56.5 -7t-34.5 -19.5t-17.5 -30.5t-4.5 -39v-373q0 -69 29 -100.5t103 -31.5h89q66 0 112 28t84 96h42l-42 -167h-635v38q35 2 57 8t34.5 19t17 34t4.5 54v391z" />
    <glyph glyph-name="M" unicode="M" horiz-adv-x="1010" 
d="M894 138q3 -22 9 -39t18 -29.5t30.5 -20.5t46.5 -11v-38h-302v38q51 0 72 28.5t15 77.5l-46 385h-2q-26 -79 -61.5 -152.5t-70 -140.5t-62 -126t-38.5 -110h-47q-5 31 -20.5 71t-36.5 85.5t-46 94.5t-49.5 99t-46 99.5t-36.5 95.5h-2l-52 -362q-12 -77 9 -109t80 -36v-38
h-234v38q45 0 65.5 24t28.5 78l57 371q10 64 -5 96.5t-68 36.5v38h199q4 -65 30.5 -134.5t60 -139t67.5 -136.5t53 -127q66 129 108.5 218.5t67.5 148.5q23 54 30 93.5t-1 76.5h203v-38q-29 -3 -45.5 -11t-24 -22.5t-8 -34.5t2.5 -47z" />
    <glyph glyph-name="N" unicode="N" horiz-adv-x="844" 
d="M143 559l-44 44q-25 23 -44 30.5t-48 10.5v38h162l511 -518v327q-1 30 -5.5 57.5t-17 48.5t-35.5 34t-61 13v38h269v-38q-56 0 -81.5 -42.5t-25.5 -110.5v-313q0 -38 3 -62.5t7 -44t7.5 -37.5t5.5 -42h-66q-23 32 -43 56t-37 41l-414 424v-347q0 -69 30 -98.5t92 -29.5
v-38h-286v38q66 0 94 23.5t27 85.5v412z" />
    <glyph glyph-name="O" unicode="O" horiz-adv-x="813" 
d="M53 328q0 91 30.5 159.5t80.5 114.5t113.5 69t129.5 23q76 0 140.5 -27t111.5 -74.5t74 -113t27 -141.5q0 -74 -28.5 -138t-78 -111t-117 -74t-145.5 -27q-68 0 -129 24.5t-107.5 69.5t-74 107.5t-27.5 138.5zM174 382q0 -69 16 -132t47 -112t77.5 -78t106.5 -29
q49 0 89.5 19.5t69 54.5t44 85t15.5 110q0 65 -15.5 128t-47 112.5t-78 80t-109.5 30.5q-45 0 -84 -17.5t-68.5 -51t-46 -84t-16.5 -116.5z" />
    <glyph glyph-name="P" unicode="P" horiz-adv-x="635" 
d="M135 553q0 91 -102 91v38h350q50 0 91.5 -13t71.5 -36.5t46.5 -57t16.5 -74.5q0 -44 -18 -79.5t-50.5 -61t-78.5 -39.5t-102 -14q-70 0 -70 29q0 10 6.5 14.5t15 6t17 0.5t13.5 -1q66 0 106 36.5t40 96.5q0 27 -6.5 54t-24.5 48.5t-50 34.5t-83 13h-84v-497q0 -56 24 -80
t91 -24v-38h-322v38q31 0 51 7t31.5 20.5t15.5 33t4 43.5v411z" />
    <glyph glyph-name="Q" unicode="Q" horiz-adv-x="813" 
d="M800 -191q-88 8 -153.5 23t-125.5 45q-59 29 -113.5 62t-105.5 61q-123 47 -186 125.5t-63 206.5q0 78 26.5 144.5t74 115t112 75.5t141.5 27q76 0 140.5 -27t111.5 -74.5t74 -112t27 -140.5q0 -64 -19.5 -119.5t-55.5 -99.5t-88 -75.5t-117 -46.5v-2q72 -34 153.5 -60.5
t166.5 -40.5v-87zM174 390q0 -80 18 -146t50 -113t77.5 -73.5t100.5 -26.5q46 0 86 17.5t69.5 52t46.5 85t17 116.5q0 63 -16 125t-47.5 112t-78.5 81t-109 31q-47 0 -86.5 -19.5t-68 -54t-44 -82.5t-15.5 -105z" />
    <glyph glyph-name="R" unicode="R" horiz-adv-x="719" 
d="M243 132q0 -48 24 -71t81 -23v-38h-311v38q33 0 53 8.5t30.5 24t14 36.5t3.5 46v393q0 50 -24 74t-77 24v38h327q70 0 118.5 -14t79 -38t44 -56t13.5 -68q0 -27 -10 -54t-32.5 -50.5t-57.5 -41t-86 -25.5l143 -163q57 -65 97 -99.5t69 -34.5v-38h-80q-27 0 -47.5 5
t-40 17.5t-40.5 35t-49 57.5l-133 166q-9 11 -16.5 19t-16 13t-19.5 7t-28 2h-29v-190zM337 365q85 0 123 34.5t38 94.5q0 28 -10.5 54.5t-32 46.5t-55 32t-79.5 12h-78v-274h94z" />
    <glyph glyph-name="S" unicode="S" horiz-adv-x="594" 
d="M59 208h43q7 -39 21.5 -70.5t37 -54t53.5 -35t73 -12.5q31 0 58.5 9t47.5 24t32 35.5t12 43.5q0 14 -7 32.5t-29 40.5q-24 24 -59.5 46t-74.5 44.5t-78.5 47.5t-70.5 57q-21 21 -33 46.5t-12 59.5q0 39 17 70.5t47.5 54t73 35t94.5 12.5q51 0 105 -14.5t104 -42.5v-147
h-43q-3 38 -17 68t-37 50.5t-53 31.5t-65 11q-26 0 -48.5 -7.5t-39 -20t-26 -30t-9.5 -37.5q0 -36 32 -68q20 -20 55 -41t75 -44t79.5 -48.5t67.5 -53.5q27 -27 41 -57t14 -67q0 -42 -18.5 -76.5t-51.5 -59.5t-79 -39t-101 -14q-27 0 -59.5 4t-64.5 10.5t-60 15t-47 18.5
v172z" />
    <glyph glyph-name="T" unicode="T" horiz-adv-x="760" 
d="M328 639h-108q-33 0 -56.5 -4.5t-42.5 -17.5t-35.5 -36.5t-37.5 -60.5h-34l10 162h712l11 -162h-34q-22 38 -39 61.5t-35.5 36t-41.5 17t-56 4.5h-108v-504q0 -48 22.5 -72.5t85.5 -24.5v-38h-321v38q62 0 85 24.5t23 78.5v498z" />
    <glyph glyph-name="U" unicode="U" horiz-adv-x="833" 
d="M345 682v-38q-32 0 -54 -5.5t-35.5 -17.5t-19 -32t-5.5 -49v-311q0 -84 56 -132.5t157 -48.5q42 0 82 12t71 38t49.5 67t18.5 100v262q0 27 -5 48.5t-18.5 37t-36 23.5t-58.5 8v38h269v-38q-47 0 -76.5 -23.5t-29.5 -81.5v-282q0 -77 -23.5 -128.5t-63.5 -83t-92.5 -44.5
t-110.5 -13q-77 0 -132.5 18t-91.5 48.5t-53 70.5t-17 84v339q0 22 -5 40t-17 30.5t-33 19t-54 6.5v38h328z" />
    <glyph glyph-name="V" unicode="V" horiz-adv-x="708" 
d="M350 249q13 -27 23.5 -55t21.5 -56q11 32 22.5 59t23.5 56l85 200q17 39 26 72.5t5.5 58t-23.5 40t-61 20.5v38h234v-38q-22 -7 -37.5 -16.5t-26.5 -20.5q-8 -8 -17.5 -28.5t-20 -47.5t-21.5 -57.5t-23 -58.5l-122 -284q-12 -29 -24 -65.5t-20 -77.5h-54q-6 27 -16 55
t-26 63l-208 450q-14 30 -24 47.5t-19.5 26.5t-20 11.5t-25.5 2.5v38h273v-38q-35 -2 -53.5 -9t-24.5 -21.5t0.5 -38t23.5 -57.5z" />
    <glyph glyph-name="W" unicode="W" horiz-adv-x="1000" 
d="M375 544q-14 31 -26 50.5t-22.5 30.5t-21 15t-20.5 4v38h232v-38q-35 -9 -43 -35t7 -57l63 -127l59 115q7 13 10 29t-0.5 31t-14.5 27t-32 17v38h182v-38q-15 -4 -26 -11t-21.5 -18.5t-21 -29t-24.5 -43.5l-89 -166l87 -176q9 -19 15.5 -34.5t14.5 -35.5l154 354
q29 65 21 108.5t-62 51.5v38h203v-38q-27 -4 -47.5 -26t-40.5 -69l-203 -465q-9 -20 -18.5 -48t-12.5 -48h-47q-4 18 -9.5 32.5t-10.5 25.5l-105 214l-75 -146q-5 -10 -13.5 -26.5t-16.5 -35t-14.5 -36t-7.5 -28.5h-53q-3 20 -16 52.5t-24 58.5l-198 441q-13 29 -21.5 47
t-17.5 29.5t-20 17.5t-27 10v38h237v-38q-25 -6 -37 -18t-14 -28t3 -35t14 -38l80 -170q7 -16 20 -45.5t28 -63.5t29 -69t25 -63l97 193z" />
    <glyph glyph-name="X" unicode="X" horiz-adv-x="781" 
d="M638 128q41 -49 72.5 -69.5t64.5 -20.5v-38h-327v38q61 2 74 28t-25 71l-134 161l-121 -139q-19 -22 -26.5 -43.5t-2 -39t24 -28t51.5 -10.5v-38h-276v38q24 4 41.5 9.5t34.5 17t35.5 29.5t44.5 47l167 189l-192 230q-21 25 -37 41t-31 25.5t-31 13t-38 4.5v38h323v-38
q-60 -2 -70.5 -27.5t20.5 -61.5l124 -146l103 123q16 19 23 38t3.5 34.5t-20 26.5t-47.5 13v38h257v-38q-18 -2 -35.5 -8t-37.5 -19.5t-42.5 -35.5t-50.5 -55l-125 -150z" />
    <glyph glyph-name="Y" unicode="Y" horiz-adv-x="719" 
d="M413 132q0 -94 100 -94v-38h-307v38q50 0 76 22t26 73v153l-209 306q-17 26 -38 37.5t-53 14.5v38h300v-38q-60 0 -73.5 -24.5t13.5 -63.5l149 -217l116 170q18 26 24 50t0 42.5t-24 29.5t-48 13v38h246v-38q-15 -2 -28 -7.5t-26.5 -16.5t-28 -29t-32.5 -44l-183 -261
v-154z" />
    <glyph glyph-name="Z" unicode="Z" horiz-adv-x="677" 
d="M605 0h-575v30l456 609h-202q-35 0 -60 -5t-44 -18t-33.5 -34.5t-29.5 -54.5h-37v155h546v-29l-460 -610h199q50 0 84 5.5t60.5 20.5t49.5 41t52 67h39z" />
    <glyph glyph-name="bracketleft" unicode="[" horiz-adv-x="375" 
d="M224 -66q0 -45 17 -61.5t61 -16.5h57v-39h-208q-5 16 -8 32t-3 32v750q0 16 3 32t8 32h208v-39h-57q-44 0 -61 -16.5t-17 -61.5v-644z" />
    <glyph glyph-name="backslash" unicode="\" horiz-adv-x="278" 
d="M44 699l234 -711h-45l-233 711h44z" />
    <glyph glyph-name="bracketright" unicode="]" horiz-adv-x="375" 
d="M151 578q0 45 -17 61.5t-61 16.5h-57v39h208q5 -16 8 -32t3 -32v-750q0 -16 -3 -32t-8 -32h-208v39h57q44 0 61 16.5t17 61.5v644v0z" />
    <glyph glyph-name="asciicircum" unicode="^" horiz-adv-x="469" 
d="M459 332h-62l-162 278l-163 -278h-62l207 350h37z" />
    <glyph glyph-name="underscore" unicode="_" horiz-adv-x="500" 
d="M-6 -125v50h512v-50h-512z" />
    <glyph glyph-name="grave" unicode="`" horiz-adv-x="333" 
d="M167 694l51 -169h-16l-144 169h109z" />
    <glyph glyph-name="a" unicode="a" horiz-adv-x="479" 
d="M305 339q0 22 -9.5 37t-24 24.5t-30.5 13.5t-28 4q-15 0 -28.5 -4t-24.5 -11t-17.5 -15t-6.5 -17q0 -8 6 -18t11 -19.5t6.5 -18t-8.5 -12.5l-59 -28q-2 -1 -7.5 6.5t-11 18.5t-10 23.5t-4.5 20.5q0 18 10.5 38.5t32.5 38t57 29t84 11.5q72 0 109 -25t37 -82v-256
q0 -28 15 -35.5t41 9.5l9 -36q-22 -25 -41.5 -36t-39.5 -11q-29 0 -46.5 18.5t-21.5 53.5q-44 -39 -77.5 -55.5t-70.5 -16.5q-49 0 -80.5 30t-31.5 77q0 46 35 77.5t118 60.5l107 37v68zM252 213q-61 -23 -89.5 -41.5t-28.5 -50.5q0 -23 16 -44t54 -21q52 0 101 52v125z" />
    <glyph glyph-name="b" unicode="b" horiz-adv-x="561" 
d="M78 583l-71 39v23l130 50h25v-314q44 44 82.5 62t86.5 18q49 0 84.5 -22t58.5 -55.5t34 -74t11 -76.5q0 -54 -18.5 -98.5t-52 -77t-80 -50.5t-101.5 -18q-43 0 -87.5 11.5t-101.5 38.5v544zM162 166q0 -37 11.5 -62.5t30 -41.5t42 -23t48.5 -7q42 0 69 17.5t43 42.5
t22.5 53t6.5 49q0 37 -10.5 72.5t-30.5 62.5t-48 43.5t-63 16.5t-66.5 -14t-54.5 -40v-169z" />
    <glyph glyph-name="c" unicode="c" horiz-adv-x="469" 
d="M440 117q-16 -60 -65 -94t-118 -34q-56 0 -96 21.5t-66 55t-38.5 74.5t-12.5 81t13 82.5t41.5 77.5t73 57.5t108.5 22.5q31 0 59.5 -5t50.5 -15.5t35 -27.5t13 -42q0 -23 -10.5 -35.5t-27.5 -12.5q-16 0 -24.5 7t-14 17.5t-11 23t-15.5 23t-26.5 17.5t-45.5 7
q-63 0 -100.5 -44.5t-37.5 -117.5q0 -33 10.5 -66.5t31.5 -60.5t51.5 -44t69.5 -17q48 0 78 15.5t51 48.5z" />
    <glyph glyph-name="d" unicode="d" 
d="M395 593l-73 40v23l132 39h25v-592q0 -33 17 -45t55 -1v-40l-131 -28h-25v75q-39 -37 -82 -56t-85 -19q-39 0 -73.5 16.5t-60 45.5t-40 68t-14.5 84q0 53 19.5 100t52.5 82t77.5 55.5t94.5 20.5q44 0 111 -19v151zM395 255q0 46 -13 77t-32.5 50t-42.5 27.5t-44 8.5
q-29 0 -54 -13t-44 -35t-30 -51.5t-11 -63.5q0 -26 7.5 -60.5t25.5 -65.5t47.5 -52t72.5 -21q73 0 118 57v142z" />
    <glyph glyph-name="e" unicode="e" horiz-adv-x="469" 
d="M118 277q-2 -50 12 -89t38 -65.5t56 -40t67 -13.5q70 0 125 48l21 -19q-32 -53 -80.5 -81t-105.5 -28q-45 0 -83.5 17t-66 48t-43 73.5t-15.5 92.5q0 51 16 95.5t44 76.5t66.5 50.5t82.5 18.5q48 0 83 -19t57.5 -46.5t33.5 -59.5t11 -59h-319zM332 313q-6 54 -31.5 82.5
t-67.5 28.5q-44 0 -73 -30t-36 -81h208z" />
    <glyph glyph-name="f" unicode="f" horiz-adv-x="311" 
d="M189 124q0 -24 3.5 -41t15 -27.5t32 -15t53.5 -4.5v-36h-270v36q48 0 65 20.5t17 58.5v288h-82v47h23q17 0 28 1.5t17 6t8.5 13.5t2.5 23q1 42 13.5 79.5t37 65.5t60 44t83.5 16q49 0 80.5 -21t31.5 -53q0 -19 -12 -30.5t-32 -11.5q-18 0 -29.5 11.5t-22.5 25t-23.5 25
t-30.5 11.5q-11 0 -23.5 -5t-22.5 -15.5t-16.5 -28.5t-6.5 -43v-114h119v-47h-119v-279z" />
    <glyph glyph-name="g" unicode="g" horiz-adv-x="500" 
d="M496 366q-18 -3 -45 -1.5t-51 7.5q8 -20 11.5 -36t3.5 -34q0 -42 -18 -72.5t-46 -50t-60.5 -29t-60.5 -9.5q-12 0 -26 1.5t-37 6.5q-15 -13 -22.5 -21t-7.5 -17q0 -18 22 -25t84 -7h80q69 0 114 -27.5t45 -77.5q0 -36 -19.5 -66.5t-55 -52t-83.5 -34t-105 -12.5
q-53 0 -90 9.5t-60 23.5t-33.5 30t-10.5 29q0 21 19 45t66 59q-57 25 -57 57q0 18 20 42.5t63 59.5q-82 48 -82 134q0 34 13 64t36.5 52t55.5 34.5t70 12.5q27 0 50 -4t48 -10t54.5 -11t71.5 -5q14 0 22 0.5t21 2.5v-68zM142 308q0 -26 6.5 -49.5t19 -41t31 -28t42.5 -10.5
q43 0 64.5 30t21.5 81q0 34 -10 58t-25 39.5t-32.5 23t-32.5 7.5q-34 0 -59.5 -29.5t-25.5 -80.5zM243 -11q-24 0 -48 2t-51 6q-26 -26 -36.5 -40t-10.5 -31q0 -22 18 -35t42 -20t47 -9t33 -2q24 0 55 4t59 13t47 23.5t19 35.5q0 29 -29 41t-95 12h-50z" />
    <glyph glyph-name="h" unicode="h" horiz-adv-x="561" 
d="M472 113q0 -41 20.5 -59t52.5 -18v-36h-232v36q40 0 57.5 21t17.5 51v188q0 46 -26.5 72t-70.5 26q-32 0 -63 -12t-59 -34v-225q0 -46 17.5 -66.5t62.5 -20.5v-36h-239v36q44 0 59.5 24t15.5 56v468l-75 42v23l134 46h25v-309q47 42 84 58.5t82 16.5q27 0 52 -8t43.5 -25
t30 -44.5t11.5 -67.5v-203z" />
    <glyph glyph-name="i" unicode="i" horiz-adv-x="271" 
d="M102 351l-76 38v23l135 49h25v-345q0 -42 17.5 -60.5t44.5 -19.5v-36h-218v36q29 0 50.5 17.5t21.5 55.5v242zM86 641q0 23 15.5 38.5t38.5 15.5t38.5 -15.5t15.5 -38.5t-15.5 -38.5t-38.5 -15.5t-38.5 15.5t-15.5 38.5z" />
    <glyph glyph-name="j" unicode="j" horiz-adv-x="260" 
d="M102 348l-80 41v23l139 49h25v-398q0 -42 -4 -67.5t-18.5 -50t-42 -55t-73.5 -81.5l-34 22q25 37 42 66.5t27.5 55t14.5 48t4 44.5v303zM86 641q0 23 15.5 38.5t38.5 15.5t38.5 -15.5t15.5 -38.5t-15.5 -38.5t-38.5 -15.5t-38.5 15.5t-15.5 38.5z" />
    <glyph glyph-name="k" unicode="k" horiz-adv-x="510" 
d="M180 111q0 -34 17.5 -54.5t55.5 -20.5v-36h-221v36q10 0 21.5 4t21 13t15.5 23t6 33v480l-64 35v23l123 48h25v-584zM513 42v-42h-77q-17 11 -29.5 20.5t-24.5 21.5l-199 194l95 88q43 39 31.5 64.5t-65.5 25.5v36h248v-36q-29 0 -63 -20.5t-72 -53.5l-92 -78z" />
    <glyph glyph-name="l" unicode="l" horiz-adv-x="271" 
d="M181 119q0 -38 14 -59.5t48 -23.5v-36h-215v36q38 2 53.5 23t15.5 53v476l-69 38v23l128 46h25v-576z" />
    <glyph glyph-name="m" unicode="m" horiz-adv-x="865" 
d="M180 125q0 -45 13.5 -65t56.5 -24v-36h-228v36q35 2 54.5 20t19.5 56v237l-72 42v23l131 47h25v-76q45 42 82.5 59t84.5 17q49 0 78.5 -17.5t47.5 -58.5q23 21 42.5 35.5t38.5 23.5t38.5 13t42.5 4q60 0 99.5 -31t39.5 -94v-220q0 -36 15 -55.5t54 -24.5v-36h-229v36
q42 2 59 21.5t17 61.5v188q0 45 -28.5 66.5t-70.5 21.5q-29 0 -59 -13t-55 -33v-228q0 -40 13.5 -60t56.5 -25v-36h-235v36q43 0 62 19.5t19 63.5v172q0 56 -20.5 79.5t-69.5 23.5q-38 0 -65.5 -11t-57.5 -39v-219z" />
    <glyph glyph-name="n" unicode="n" 
d="M175 118q0 -42 18 -62t63 -20v-36h-239v36q74 3 74 76v241l-67 38v23l126 47h25v-85h2q31 41 74.5 63t85.5 22q70 0 108.5 -37t38.5 -118v-190q0 -38 14 -56.5t57 -23.5v-36h-236v36q44 0 62.5 20.5t18.5 61.5v166q0 48 -22.5 79t-71.5 31q-35 0 -67 -16t-64 -43v-217z
" />
    <glyph glyph-name="o" unicode="o" horiz-adv-x="542" 
d="M43 228q0 49 17.5 91.5t47.5 74t70.5 49.5t87.5 18q51 0 94 -17t74 -48t48 -73.5t17 -93.5t-17 -95t-47.5 -76t-71.5 -50.5t-89 -18.5q-47 0 -89 19t-73.5 51.5t-50 76t-18.5 92.5zM138 266q0 -33 8 -75t25.5 -78.5t45 -61.5t66.5 -25q59 0 92.5 38t33.5 104q0 32 -7 76
t-24 84t-45.5 68t-70.5 28q-56 0 -90 -35.5t-34 -122.5z" />
    <glyph glyph-name="p" unicode="p" horiz-adv-x="561" 
d="M169 -72q0 -50 21 -66.5t64 -16.5v-36h-243v36q37 0 55.5 20.5t18.5 52.5v433l-71 38v23l130 49h25v-75q39 39 78 57t85 18q40 0 74 -15.5t58.5 -44t38 -67.5t13.5 -85q0 -54 -18 -101.5t-49.5 -82.5t-73 -55.5t-89.5 -20.5q-59 0 -117 29v-90zM169 167q0 -65 35.5 -100
t89.5 -35q64 0 101 44t37 127q0 52 -14 88t-36 58t-47.5 32t-47.5 10q-29 0 -59 -11.5t-59 -34.5v-178z" />
    <glyph glyph-name="q" unicode="q" horiz-adv-x="561" 
d="M400 66q-26 -22 -46.5 -37t-39.5 -24t-37.5 -13t-38.5 -4q-52 0 -88.5 20t-60 51.5t-34.5 70.5t-11 77q0 56 17.5 103t49 80.5t76 52t98.5 18.5q43 0 83 -10t78 -32v31q0 11 11 11h16q11 0 11 -11v-521q0 -40 13.5 -59.5t54.5 -25.5v-35h-235v35q43 0 63 18t20 63v141z
M400 259q0 78 -35.5 121.5t-98.5 43.5q-32 0 -58.5 -12t-45 -34t-29 -52.5t-10.5 -67.5q0 -42 12 -78t33 -62t50 -41t63 -15q28 0 54 10.5t65 38.5v148z" />
    <glyph glyph-name="r" unicode="r" horiz-adv-x="375" 
d="M180 132q0 -28 3.5 -46.5t14.5 -29.5t31 -15.5t53 -4.5v-36h-260v36q30 0 52 17t22 60v234l-74 37v23l133 54h25v-99h2q17 28 31 46t27.5 29t28.5 15.5t35 4.5q16 0 30 -6t23.5 -15t15 -19t5.5 -17q0 -2 -2 -12.5t-7 -22t-12.5 -21t-19.5 -9.5q-13 0 -21.5 7.5t-16.5 16
t-16.5 16t-20.5 7.5q-18 0 -35 -15.5t-47 -58.5v-176z" />
    <glyph glyph-name="s" unicode="s" horiz-adv-x="396" 
d="M322 310h-31q-11 60 -35.5 87t-66.5 27q-35 0 -55 -17.5t-20 -49.5q0 -28 24.5 -47t58.5 -35t69.5 -31.5t56.5 -36.5q16 -16 24 -38.5t8 -47.5q0 -62 -41 -97t-112 -35q-38 0 -78 9t-69 23v126h33q8 -59 35 -90t72 -31q40 0 65.5 20t25.5 51q0 29 -22 45.5t-54.5 31
t-69.5 32t-68 48.5q-15 15 -23 38t-8 45q0 55 40.5 89.5t105.5 34.5q80 0 135 -43v-108z" />
    <glyph glyph-name="t" unicode="t" horiz-adv-x="333" 
d="M179 110q0 -17 2.5 -28.5t10 -18.5t21.5 -10t36 -3q15 0 36 1.5t35 3.5v-49q-33 -5 -66 -11t-65 -6q-50 0 -72 21t-22 67v323h-75v27q43 15 72.5 44.5t52.5 58.5h34v-80h136v-50h-136v-290z" />
    <glyph glyph-name="u" unicode="u" 
d="M553 17l-152 -28v77q-44 -41 -83 -59t-84 -18q-28 0 -52.5 7t-43 23t-29 41t-10.5 60v196q0 30 -4 47t-13 26t-24.5 11.5t-38.5 2.5v36l164 11v-279q0 -57 23 -84t68 -27q33 0 62 11.5t65 40.5v204q0 30 -3.5 47t-13.5 26t-26.5 11.5t-42.5 2.5v36l170 11v-346
q0 -34 13.5 -45.5t54.5 -2.5v-39z" />
    <glyph glyph-name="v" unicode="v" horiz-adv-x="479" 
d="M247 -11h-32l-154 374q-11 28 -22 37.5t-37 13.5v36h210v-36q-46 -2 -58 -18.5t1 -47.5l103 -243l96 219q17 38 3.5 63.5t-56.5 26.5v36h177v-36q-14 -3 -24 -6.5t-17.5 -11.5t-15 -20.5t-16.5 -33.5z" />
    <glyph glyph-name="w" unicode="w" horiz-adv-x="729" 
d="M249 104l99 221q-11 28 -18.5 45.5t-16.5 27.5t-20.5 13t-30.5 3v36h217v-36q-47 -4 -55.5 -25.5t11.5 -70.5l83 -207l89 214q6 15 8.5 30.5t-2 28.5t-18 21.5t-38.5 8.5v36h164v-36q-23 -5 -35 -14.5t-23 -36.5l-155 -374h-32l-110 285l-126 -285h-34l-145 360
q-7 18 -12.5 29.5t-11.5 18.5t-13 11t-16 6v36h184v-36q-38 -2 -46.5 -22t6.5 -56z" />
    <glyph glyph-name="x" unicode="x" horiz-adv-x="500" 
d="M207 215l-142 167q-15 18 -25.5 24t-29.5 8v36h207v-36q-39 -4 -42 -19t13 -34l72 -86l63 69q22 25 15.5 47.5t-46.5 22.5v36h184v-36q-17 -3 -28 -7t-22.5 -13t-26.5 -24.5t-38 -41.5l-73 -82l143 -164q20 -23 31.5 -33t28.5 -13v-36h-223v36q48 8 53.5 24t-18.5 44
l-73 83l-62 -68q-14 -15 -19 -30t-1 -26.5t17 -19t37 -7.5v-36h-192v36q22 5 40.5 18t44.5 41z" />
    <glyph glyph-name="y" unicode="y" horiz-adv-x="479" 
d="M74 355q-10 22 -18 34t-16 17.5t-17 6.5t-21 1v36h218v-36q-45 -2 -55.5 -19.5t6.5 -56.5l103 -236l86 219q15 39 3 65t-58 28v36h173v-36q-14 -3 -24 -8t-17.5 -14t-14.5 -22t-14 -32l-166 -422q-43 -107 -131 -107q-35 0 -57.5 15.5t-22.5 41.5q0 17 12.5 29t30.5 12
q13 0 20.5 -5t14.5 -11t14.5 -11t21.5 -5q29 0 48.5 27.5t39.5 92.5z" />
    <glyph glyph-name="z" unicode="z" horiz-adv-x="436" 
d="M127 36h113q31 0 53.5 7.5t39 21.5t28.5 33.5t22 43.5h36l-21 -142h-384v16l293 398h-105q-45 0 -75 -16t-59 -54h-28v123h22q6 -5 10.5 -8.5t12.5 -5.5q15 -3 47 -3h277v-36z" />
    <glyph glyph-name="braceleft" unicode="{" horiz-adv-x="480" 
d="M153 265q50 7 81 36t31 68q0 17 -3.5 34t-8.5 36t-8 38.5t-3 41.5q0 36 13.5 67.5t38 56.5t58 42t73.5 22v-13q-59 -14 -85 -45.5t-26 -70.5q0 -16 3 -35t8 -39t8.5 -40.5t3.5 -39.5q0 -54 -39 -99.5t-105 -70.5q66 -25 105 -70.5t39 -99.5q0 -19 -3.5 -39.5t-8.5 -40.5
t-8 -39t-3 -35q0 -39 26 -70.5t85 -45.5v-13q-40 5 -73.5 22t-58 42t-38 56.5t-13.5 67.5q0 22 3 42t8 39t8.5 36t3.5 33q0 39 -31 68t-81 36v22z" />
    <glyph glyph-name="bar" unicode="|" horiz-adv-x="527" 
d="M285 750v-1000h-44v1000h44z" />
    <glyph glyph-name="braceright" unicode="}" horiz-adv-x="480" 
d="M327 243q-50 -7 -81 -36t-31 -68q0 -16 3 -33t8 -36t8.5 -39t3.5 -42q0 -36 -13.5 -67.5t-38 -56.5t-58 -42t-73.5 -22v13q59 14 85 45.5t26 70.5q0 16 -3.5 35t-8.5 39t-8 40.5t-3 39.5q0 54 39 99.5t105 70.5q-66 25 -105 70.5t-39 99.5q0 19 3 39.5t8 40.5t8.5 39
t3.5 35q0 39 -26 70.5t-85 45.5v13q40 -5 73.5 -22t58 -42t38 -56.5t13.5 -67.5q0 -22 -3.5 -41.5t-8.5 -38.5t-8 -36t-3 -34q0 -39 31 -68t81 -36v-22z" />
    <glyph glyph-name="asciitilde" unicode="~" horiz-adv-x="469" 
d="M500 405q-2 -73 -37.5 -115.5t-93.5 -42.5q-15 0 -28 2t-32.5 8t-48.5 17.5t-75 30.5q-39 17 -62 23.5t-40 6.5q-73 0 -86 -87h-29q2 37 8 60t19 43q17 26 44 40.5t56 14.5q20 0 39 -4.5t51 -15.5q18 -7 46 -17.5t51 -21.5q41 -19 63.5 -25t40.5 -6q37 0 59 23.5t27 65.5
h28z" />
    <glyph glyph-name="uni00A0" unicode="&#xa0;" horiz-adv-x="278" 
 />
    <glyph glyph-name="exclamdown" unicode="&#xa1;" horiz-adv-x="292" 
d="M147 396q-26 0 -44 17.5t-18 43.5t18 44t44 18t43.5 -18t17.5 -44t-17.5 -43.5t-43.5 -17.5zM153 319q8 0 11 -4t4 -15l34 -447q2 -23 -5.5 -33.5t-33.5 -10.5h-34q-26 0 -33.5 10.5t-5.5 33.5l34 447q1 11 4 15t11 4h14z" />
    <glyph glyph-name="cent" unicode="&#xa2;" horiz-adv-x="552" 
d="M199 11q-55 31 -85 86.5t-30 122.5q0 24 5.5 52.5t18.5 57t33.5 54.5t50.5 44.5t70 27.5t92 3l50 141h39l-51 -147q86 -22 86 -84q0 -20 -10 -32t-26 -12q-17 0 -25.5 7t-14.5 17.5t-12 23.5t-17 26l-110 -315q19 -9 35.5 -12.5t36.5 -3.5q40 0 73 17.5t50 47.5l23 -15
q-7 -29 -24 -53t-41 -41t-54 -26.5t-63 -9.5q-36 0 -66 10l-39 -113h-39zM340 416q-16 4 -36 4q-58 0 -97 -40t-39 -112q0 -61 15.5 -98t48.5 -66z" />
    <glyph glyph-name="sterling" unicode="&#xa3;" horiz-adv-x="677" 
d="M258 114q-8 -24 -14.5 -42t-13 -33.5t-14.5 -31.5t-19 -36q25 8 39.5 10.5t33.5 2.5q40 0 70.5 -17t56 -37.5t48.5 -37.5t50 -17q20 0 34 10.5t14 25.5q0 13 -5.5 22.5t-12 18t-12 17t-5.5 20.5q0 20 13.5 35.5t33.5 15.5q22 0 37 -18.5t15 -45.5q0 -46 -17.5 -77.5
t-42 -51.5t-51.5 -29t-46 -9q-28 0 -50.5 10.5t-43 25.5t-39.5 32t-40.5 29.5t-46.5 18t-56 -1.5q-29 -60 -54.5 -87t-45.5 -27q-17 0 -29 12t-12 29q0 52 88 101l47 163h-122l8 43h126l51 183q22 80 50 145.5t64.5 112t82.5 72t106 25.5q54 0 88 -18.5t34 -47.5
q0 -21 -11 -36t-26 -15t-28 10.5t-27.5 23.5t-33 23.5t-43.5 10.5q-46 0 -74.5 -41.5t-50 -110t-41.5 -156.5t-50 -181h127l-11 -43h-129z" />
    <glyph glyph-name="currency" unicode="&#xa4;" horiz-adv-x="667" 
d="M527 570l51 -52l-62 -63q23 -33 32.5 -63.5t9.5 -66.5t-9.5 -66t-32.5 -63l62 -62l-51 -52l-62 62q-34 -23 -63.5 -32.5t-65.5 -9.5q-37 0 -67.5 10t-63.5 32l-63 -62l-52 52l63 62q-23 33 -32.5 63t-9.5 67q0 36 9.5 66t32.5 64l-63 62l52 52l63 -63q35 23 64.5 32.5
t64.5 9.5q37 0 66.5 -9.5t64.5 -32.5zM184 326q0 -31 12 -58.5t32.5 -48t48 -32.5t58.5 -12t58 12t47.5 32.5t32.5 48t12 58.5t-12 58t-32.5 47.5t-47.5 32.5t-58 12t-58.5 -12t-48 -32.5t-32.5 -47.5t-12 -58z" />
    <glyph glyph-name="yen" unicode="&#xa5;" horiz-adv-x="663" 
d="M161 468h-147v40h118l-42 62q-11 16 -18 26t-13.5 16t-12.5 10t-13 8q-11 7 -23.5 9.5t-29.5 4.5v38h300v-38q-46 -3 -62 -12t-16 -32q0 -17 15 -40l36 -52h231l1 2q15 22 21 37.5t6 31.5q0 17 -7 30.5t-19 21.5q-9 5 -19 8t-30 5v38h246v-38q-15 -2 -28 -7t-26 -15.5
t-27.5 -28.5t-33.5 -46l-27 -39h108v-40h-136l-128 -182h263v-40h-263v-93q0 -55 11 -74q9 -18 33 -29.5t56 -11.5v-38h-307v38q35 0 60.5 10.5t34.5 28.5q12 21 12 76v93h-271v40h271zM281 468l88 -129l87 129h-175z" />
    <glyph glyph-name="brokenbar" unicode="&#xa6;" horiz-adv-x="527" 
d="M285 675v-350h-44v350h44zM285 175v-350h-44v350h44z" />
    <glyph glyph-name="section" unicode="&#xa7;" horiz-adv-x="427" 
d="M41 451q0 55 16 100.5t44.5 78.5t68 51t87.5 18q54 0 85.5 -18.5t31.5 -53.5q0 -17 -11.5 -28.5t-34.5 -11.5q-13 0 -28 11t-32 23.5t-34.5 23.5t-35.5 11q-22 0 -36 -15.5t-14 -38.5q0 -27 17.5 -60.5t44 -74t57.5 -87.5t57.5 -100t44 -113t17.5 -125q0 -114 -55 -173.5
t-160 -59.5q-52 0 -85 19.5t-33 49.5q0 18 14 30t35 12q19 0 32.5 -10.5t26.5 -23.5t28.5 -23.5t39.5 -10.5q22 0 36.5 16t14.5 39q0 28 -17.5 60.5t-44.5 70.5t-57.5 82.5t-57.5 95.5t-44.5 109.5t-17.5 125.5zM341 14q0 61 -15 115t-38.5 103t-51.5 93.5t-53.5 87
t-45.5 83.5t-27 82h-2q-8 -18 -14.5 -49t-6.5 -60q0 -61 17.5 -116t44 -104.5t56.5 -94t56 -85.5t43 -79t16 -74l2 -2q5 16 8.5 28.5t6 23.5t3.5 22.5t1 25.5z" />
    <glyph glyph-name="dieresis" unicode="&#xa8;" horiz-adv-x="333" 
d="M253 653q22 0 37.5 -15.5t15.5 -37.5t-15.5 -37.5t-37.5 -15.5t-37.5 15.5t-15.5 37.5t15.5 37.5t37.5 15.5zM81 653q22 0 37.5 -15.5t15.5 -37.5t-15.5 -37.5t-37.5 -15.5t-37.5 15.5t-15.5 37.5t15.5 37.5t37.5 15.5z" />
    <glyph glyph-name="copyright" unicode="&#xa9;" horiz-adv-x="760" 
d="M561 422h-19q-35 115 -148 115q-73 0 -115 -51t-42 -139q0 -100 42.5 -150t121.5 -50q52 0 88 21t62 57l19 -9q-68 -100 -188 -100q-48 0 -89.5 16.5t-71.5 46t-47.5 69t-17.5 85.5q0 48 18.5 89.5t51.5 72t77.5 47.5t96.5 17q22 0 39 -3.5t30 -7.5t23 -7.5t17 -3.5
q8 0 13 4.5t10 17.5h19zM726 336q0 -72 -27 -135t-74 -110t-110 -74t-135 -27t-135 27t-110 74t-74 110t-27 135t27 135t74 110t110 74t135 27t135 -27t110 -74t74 -110t27 -135zM696 336q0 66 -25 123.5t-67.5 100t-100 67.5t-123.5 25t-123.5 -25t-100 -67.5t-67.5 -100
t-25 -123.5t25 -123.5t67.5 -100t100 -67.5t123.5 -25t123.5 25t100 67.5t67.5 100t25 123.5z" />
    <glyph glyph-name="ordfeminine" unicode="&#xaa;" horiz-adv-x="313" 
d="M199 594q0 12 -6.5 20.5t-15.5 14t-19.5 8t-18.5 2.5q-20 0 -35 -9t-15 -20q0 -6 4 -12t7.5 -11.5t4 -10t-5.5 -7.5l-37 -15q-2 -1 -6 3t-8 10t-6.5 13.5t-2.5 13.5q0 15 9.5 27.5t25.5 22t38 15t47 5.5q45 0 69.5 -15t24.5 -50v-149q0 -20 7.5 -25t28.5 6l6 -21
q-28 -29 -53 -29q-38 0 -43 43q-30 -24 -51 -33.5t-45 -9.5q-32 0 -52.5 18t-20.5 46q0 24 14.5 40t38.5 27t54 19.5t62 19.5v43zM199 527q-29 -11 -50.5 -18.5t-35 -14.5t-20 -15t-6.5 -20q0 -17 13 -27.5t33 -10.5q34 0 66 31v75z" />
    <glyph glyph-name="guillemotleft" unicode="&#xab;" horiz-adv-x="344" 
d="M308 74h-24l-101 178l101 178h24l-53 -178zM203 32h-24l-148 220l148 220h24l-90 -220z" />
    <glyph glyph-name="logicalnot" unicode="&#xac;" horiz-adv-x="667" 
d="M601 480v-308h-77v231h-458v77h535z" />
    <glyph glyph-name="uni00AD" unicode="&#xad;" horiz-adv-x="365" 
d="M29 275h307v-76h-307v76z" />
    <glyph glyph-name="registered" unicode="&#xae;" horiz-adv-x="760" 
d="M305 179q0 -21 13.5 -29t43.5 -7v-17h-179v17q29 -1 40 10t11 34v299q0 22 -8.5 33.5t-36.5 12.5v17h188q66 0 106 -30t40 -80q0 -80 -109 -108l102 -145q17 -25 29 -33.5t30 -9.5v-17h-90l-144 198h-36v-145zM321 345q56 0 89.5 22.5t33.5 66.5q0 41 -28 67t-71 26
q-11 0 -19 -1t-21 -6v-175h16zM726 336q0 -72 -27 -135t-74 -110t-110 -74t-135 -27t-135 27t-110 74t-74 110t-27 135t27 135t74 110t110 74t135 27t135 -27t110 -74t74 -110t27 -135zM696 336q0 66 -25 123.5t-67.5 100t-100 67.5t-123.5 25t-123.5 -25t-100 -67.5
t-67.5 -100t-25 -123.5t25 -123.5t67.5 -100t100 -67.5t123.5 -25t123.5 25t100 67.5t67.5 100t25 123.5z" />
    <glyph glyph-name="macron" unicode="&#xaf;" horiz-adv-x="333" 
d="M322 632v-63h-311v63h311z" />
    <glyph glyph-name="degree" unicode="&#xb0;" horiz-adv-x="399" 
d="M349 532q0 -31 -12 -58.5t-32 -47.5t-47.5 -32t-58.5 -12t-58.5 12t-47.5 32t-32 47.5t-12 58.5t12 58.5t32 47.5t47.5 32t58.5 12t58.5 -12t47.5 -32t32 -47.5t12 -58.5zM301 532q0 21 -8 39.5t-22 32.5t-32.5 22t-39.5 8t-39.5 -8t-32.5 -22t-22 -32.5t-8 -39.5
t8 -39.5t22 -32.5t32.5 -22t39.5 -8t39.5 8t32.5 22t22 32.5t8 39.5z" />
    <glyph glyph-name="plusminus" unicode="&#xb1;" horiz-adv-x="667" 
d="M295 470v227h77v-227h229v-77h-229v-227h-77v227h-229v77h229zM601 77v-77h-535v77h535z" />
    <glyph glyph-name="uni00B2" unicode="&#xb2;" horiz-adv-x="344" 
d="M287 319h-251v22q44 41 80 72t61.5 55.5t39.5 45.5t14 42q0 27 -18.5 46t-45.5 19q-26 0 -53 -20.5t-44 -58.5l-32 11q49 111 145 111q24 0 45.5 -7.5t37 -20.5t24.5 -31t9 -39q0 -30 -15 -51t-41 -41t-61.5 -45t-75.5 -62h115q25 0 39.5 9t25.5 34h32z" />
    <glyph glyph-name="uni00B3" unicode="&#xb3;" horiz-adv-x="333" 
d="M92 495q33 17 54.5 29.5t34 22.5t17.5 19t5 20q0 17 -13.5 28t-32.5 11q-22 0 -48 -13t-53 -40l-25 16q28 36 66.5 56t76.5 20q42 0 68.5 -18t26.5 -46q0 -20 -14.5 -36.5t-46.5 -34.5v-2q44 -2 67 -27.5t23 -56.5q0 -26 -14 -49.5t-38 -41.5t-56 -28.5t-67 -10.5
q-29 0 -55 6.5t-45 18.5l16 21q22 -11 39.5 -15t35.5 -4q24 0 45.5 7t37.5 19.5t25.5 29.5t9.5 36q0 26 -18.5 43.5t-44.5 17.5q-14 0 -30.5 -5t-33.5 -16z" />
    <glyph glyph-name="acute" unicode="&#xb4;" horiz-adv-x="333" 
d="M132 525h-16l51 169h109z" />
    <glyph glyph-name="uni00B5" unicode="&#xb5;" horiz-adv-x="500" 
d="M139 450v-286q0 -62 17 -88.5t52 -26.5q29 0 57.5 15.5t54.5 49.5v336h84v-355q0 -27 10 -40t22 -13q30 0 39 60h21q-1 -30 -9.5 -51t-22 -35t-30.5 -20.5t-35 -6.5q-35 0 -53.5 20t-25.5 73q-42 -50 -76.5 -71.5t-74.5 -21.5q-26 0 -43.5 10t-31.5 33h-2
q0 -42 3.5 -69.5t8 -48t8.5 -37t4 -36.5q0 -23 -13 -38.5t-33 -15.5t-31.5 14.5t-11.5 39.5q0 21 4.5 37t9.5 38t9.5 54.5t4.5 85.5v394h84z" />
    <glyph glyph-name="paragraph" unicode="&#xb6;" horiz-adv-x="453" 
d="M392 -191h-36v846h-91v-846h-36v505q-50 0 -92.5 9t-73.5 31t-49 57.5t-18 88.5q0 88 57.5 135t161.5 47h241v-27h-64v-846z" />
    <glyph glyph-name="periodcentered" unicode="&#xb7;" horiz-adv-x="292" 
d="M145 389q26 0 44 -17.5t18 -43.5t-18 -44t-44 -18t-43.5 18t-17.5 44t17.5 43.5t43.5 17.5z" />
    <glyph glyph-name="cedilla" unicode="&#xb8;" horiz-adv-x="333" 
d="M175 -12q45 -4 64 -24t19 -44q0 -20 -9.5 -37t-26 -30t-39.5 -20t-49 -7q-13 0 -25 1.5t-33 6.5l4 16q14 -3 21.5 -4t14.5 -1q26 0 45 15.5t19 38.5q0 46 -70 54l65 35v0z" />
    <glyph glyph-name="uni00B9" unicode="&#xb9;" horiz-adv-x="333" 
d="M204 389q0 -45 39 -45h15v-25h-179v25h17q22 0 31 10.5t9 34.5v181q0 23 -7.5 33t-31.5 10h-16v25q40 0 62.5 7.5t33.5 18.5h27v-275z" />
    <glyph glyph-name="ordmasculine" unicode="&#xba;" horiz-adv-x="354" 
d="M29 528q0 28 11.5 52.5t31.5 43t46 29.5t56 11q33 0 61 -10.5t48 -29t31 -44t11 -55.5q0 -31 -11 -57t-30.5 -45.5t-46.5 -30.5t-58 -11t-58.5 11.5t-47.5 31.5t-32 47t-12 57zM91 546q0 -62 27 -101t68 -39q35 0 58.5 23.5t23.5 59.5q0 15 -4 40t-14.5 49.5t-29.5 42.5
t-49 18q-80 0 -80 -93z" />
    <glyph glyph-name="guillemotright" unicode="&#xbb;" horiz-adv-x="344" 
d="M36 430h24l101 -178l-101 -178h-24l53 178zM141 472h24l148 -220l-148 -220h-24l90 220z" />
    <glyph glyph-name="onequarter" unicode="&#xbc;" horiz-adv-x="906" 
d="M757 60q0 -18 9.5 -26.5t41.5 -8.5v-25h-172v25q29 0 41 6.5t12 27.5v36h-161v34l172 216h57v-218q11 0 17.5 7.5t12.5 24.5h31l-10 -64h-51v-35zM689 282h-2l-120 -155h122v155zM181 -22l461 728h53l-461 -728h-53zM197 389q0 -45 39 -45h15v-25h-179v25h17
q22 0 31 10.5t9 34.5v181q0 23 -7.5 33t-31.5 10h-16v25q40 0 62.5 7.5t33.5 18.5h27v-275z" />
    <glyph glyph-name="onehalf" unicode="&#xbd;" horiz-adv-x="906" 
d="M777 0h-251v22q44 41 80 72t61.5 55.5t39.5 45.5t14 42q0 27 -18.5 46t-45.5 19q-26 0 -53 -20.5t-44 -58.5l-32 11q49 111 145 111q24 0 45.5 -7.5t37 -20.5t24.5 -31t9 -39q0 -30 -15 -51t-41 -41t-61.5 -45t-75.5 -62h115q25 0 39.5 9t25.5 34h32zM161 -22l461 728h53
l-461 -728h-53zM197 389q0 -45 39 -45h15v-25h-179v25h17q22 0 31 10.5t9 34.5v181q0 23 -7.5 33t-31.5 10h-16v25q40 0 62.5 7.5t33.5 18.5h27v-275z" />
    <glyph glyph-name="threequarters" unicode="&#xbe;" horiz-adv-x="906" 
d="M777 60q0 -18 9.5 -26.5t41.5 -8.5v-25h-172v25q29 0 41 6.5t12 27.5v36h-161v34l172 216h57v-218q11 0 17.5 7.5t12.5 24.5h31l-10 -64h-51v-35zM709 282h-2l-120 -155h122v155zM201 -22l461 728h53l-461 -728h-53zM113 495q33 17 54.5 29.5t34 22.5t17.5 19t5 20
q0 17 -13.5 28t-32.5 11q-22 0 -48 -13t-53 -40l-25 16q28 36 66 56t76 20q43 0 69.5 -18t26.5 -46q0 -20 -14.5 -36.5t-46.5 -34.5v-2q44 -2 67 -27.5t23 -56.5q0 -26 -14 -49.5t-38 -41.5t-56 -28.5t-67 -10.5q-29 0 -55 6.5t-45 18.5l16 21q22 -11 39.5 -15t35.5 -4
q24 0 45.5 7t37.5 19.5t25.5 29.5t9.5 36q0 26 -18.5 43.5t-44.5 17.5q-14 0 -30.5 -5t-33.5 -16z" />
    <glyph glyph-name="questiondown" unicode="&#xbf;" horiz-adv-x="385" 
d="M275 333q0 -36 2.5 -60.5t5 -41.5t5 -28t2.5 -19q0 -12 -6 -18t-25 -10.5t-42.5 -10.5t-48.5 -16t-44 -29q-14 -14 -22 -31t-8 -34q0 -25 12 -51t31.5 -47t43 -34.5t46.5 -13.5q13 0 23.5 3.5t19.5 7.5t18 7.5t20 3.5q19 0 30.5 -11.5t11.5 -29.5q0 -28 -24 -44.5
t-64 -16.5q-35 0 -65.5 16t-56.5 40.5t-46 55.5t-34 61t-21.5 56t-7.5 41q0 28 9 52.5t29 44.5t41 31t41.5 18.5t38 15t30.5 20.5q11 11 14.5 29.5t4.5 42.5h36zM254 396q-26 0 -44 17.5t-18 43.5t18 44t44 18t43.5 -18t17.5 -44t-17.5 -43.5t-43.5 -17.5z" />
    <glyph glyph-name="Agrave" unicode="&#xc0;" horiz-adv-x="719" 
d="M459 266h-264l-36 -94q-10 -26 -10.5 -50t9 -42t28 -29.5t47.5 -12.5v-38h-230v38q19 5 33 13t24.5 21t19.5 32t20 46l201 500l-16 32h107l248 -577q15 -35 31.5 -51t44.5 -16v-38h-280v38q60 6 76.5 33.5t-2.5 72.5zM323 591l-107 -271h220zM360 908l51 -169h-16
l-144 169h109z" />
    <glyph glyph-name="Aacute" unicode="&#xc1;" horiz-adv-x="719" 
d="M459 266h-264l-36 -94q-10 -26 -10.5 -50t9 -42t28 -29.5t47.5 -12.5v-38h-230v38q19 5 33 13t24.5 21t19.5 32t20 46l201 500l-16 32h107l248 -577q15 -35 31.5 -51t44.5 -16v-38h-280v38q60 6 76.5 33.5t-2.5 72.5zM323 591l-107 -271h220zM325 739h-16l51 169h109z
" />
    <glyph glyph-name="Acircumflex" unicode="&#xc2;" horiz-adv-x="719" 
d="M459 266h-264l-36 -94q-10 -26 -10.5 -50t9 -42t28 -29.5t47.5 -12.5v-38h-230v38q19 5 33 13t24.5 21t19.5 32t20 46l201 500l-16 32h107l248 -577q15 -35 31.5 -51t44.5 -16v-38h-280v38q60 6 76.5 33.5t-2.5 72.5zM323 591l-107 -271h220zM404 896l93 -161h-15
l-133 105l-112 -105h-15l92 161h90z" />
    <glyph glyph-name="Atilde" unicode="&#xc3;" horiz-adv-x="719" 
d="M459 266h-264l-36 -94q-10 -26 -10.5 -50t9 -42t28 -29.5t47.5 -12.5v-38h-230v38q19 5 33 13t24.5 21t19.5 32t20 46l201 500l-16 32h107l248 -577q15 -35 31.5 -51t44.5 -16v-38h-280v38q60 6 76.5 33.5t-2.5 72.5zM323 591l-107 -271h220zM204 753q2 62 25.5 94.5
t66.5 32.5q24 0 46 -11t42 -23.5t37.5 -23.5t32.5 -11q39 0 47 69h15v-9q0 -53 -26 -86.5t-68 -33.5q-24 0 -45.5 11t-41.5 24t-37.5 23.5t-33.5 10.5q-20 0 -31 -19t-14 -48h-15z" />
    <glyph glyph-name="Adieresis" unicode="&#xc4;" horiz-adv-x="719" 
d="M459 266h-264l-36 -94q-10 -26 -10.5 -50t9 -42t28 -29.5t47.5 -12.5v-38h-230v38q19 5 33 13t24.5 21t19.5 32t20 46l201 500l-16 32h107l248 -577q15 -35 31.5 -51t44.5 -16v-38h-280v38q60 6 76.5 33.5t-2.5 72.5zM323 591l-107 -271h220zM446 867q22 0 37.5 -15.5
t15.5 -37.5t-15.5 -37.5t-37.5 -15.5t-37.5 15.5t-15.5 37.5t15.5 37.5t37.5 15.5zM274 867q22 0 37.5 -15.5t15.5 -37.5t-15.5 -37.5t-37.5 -15.5t-37.5 15.5t-15.5 37.5t15.5 37.5t37.5 15.5z" />
    <glyph glyph-name="Aring" unicode="&#xc5;" horiz-adv-x="719" 
d="M459 266h-264l-36 -94q-10 -26 -10.5 -50t9 -42t28 -29.5t47.5 -12.5v-38h-230v38q19 5 33 13t24.5 21t19.5 32t20 46l201 500l-16 32h107l248 -577q15 -35 31.5 -51t44.5 -16v-38h-280v38q60 6 76.5 33.5t-2.5 72.5zM323 591l-107 -271h220zM359 908q39 0 66.5 -27
t27.5 -66q0 -20 -7.5 -37t-20 -29.5t-30 -20t-36.5 -7.5q-39 0 -66 27.5t-27 66.5t27 66t66 27zM359 874q-25 0 -42 -17t-17 -42t17 -42.5t42 -17.5t42.5 17.5t17.5 42.5t-17.5 42t-42.5 17z" />
    <glyph glyph-name="AE" unicode="&#xc6;" horiz-adv-x="1000" 
d="M588 147q10 -32 18.5 -52.5t20.5 -32t30 -15.5t47 -4h46q31 0 51.5 4t39 18t39 40t52.5 70h38l-38 -175h-532v38q62 0 78 29t-4 91l-57 174h-207l-59 -129q-14 -30 -19.5 -59.5t1 -52.5t28 -37.5t60.5 -15.5v-38h-239v38q29 4 48.5 23.5t35.5 54.5l197 430q23 51 7.5 74
t-60.5 24v38h593l48 -152h-35q-32 34 -53.5 55.5t-41.5 33.5t-42.5 16t-55.5 4h-198l90 -264h156q54 0 71.5 21t7.5 77h38l81 -237h-41q-30 54 -65 75t-69 21h-166zM333 595l-103 -220h176z" />
    <glyph glyph-name="Ccedilla" unicode="&#xc7;" horiz-adv-x="781" 
d="M684 488q-35 75 -98.5 119t-138.5 44q-51 0 -98.5 -19t-84.5 -57t-59 -94.5t-22 -132.5q0 -64 18.5 -121.5t54 -101t87 -69t118.5 -25.5q85 0 144.5 41.5t78.5 126.5h37l-5 -157q-29 -12 -63.5 -21.5t-71 -17t-72 -11.5t-65.5 -4q-84 0 -154 25.5t-121 71t-79 108.5
t-28 138q0 66 24.5 130.5t74 116.5t123.5 84t174 32q56 0 113.5 -12t120.5 -35l24 -159h-32zM285 -150q14 -3 21.5 -4t14.5 -1q26 0 45 15.5t19 38.5q0 46 -70 54l65 35q45 -4 64 -24t19 -44q0 -20 -9.5 -37t-26 -30t-39.5 -20t-49 -7q-13 0 -25 1.5t-33 6.5z" />
    <glyph glyph-name="Egrave" unicode="&#xc8;" horiz-adv-x="677" 
d="M613 0h-587v38q57 0 82 23.5t25 78.5v402q0 50 -23 76t-84 26v38h578v-152h-36q-14 34 -30.5 55t-37 33t-46 16.5t-56.5 4.5h-160v-262h134q70 0 100 21.5t34 74.5h41v-241h-41q-9 57 -38.5 79.5t-93.5 22.5h-136v-165q0 -36 5.5 -60t19 -39t36 -21t56.5 -6h50q42 0 73 6
t55 20.5t43 38.5t37 59h45zM339 908l51 -169h-16l-144 169h109z" />
    <glyph glyph-name="Eacute" unicode="&#xc9;" horiz-adv-x="677" 
d="M613 0h-587v38q57 0 82 23.5t25 78.5v402q0 50 -23 76t-84 26v38h578v-152h-36q-14 34 -30.5 55t-37 33t-46 16.5t-56.5 4.5h-160v-262h134q70 0 100 21.5t34 74.5h41v-241h-41q-9 57 -38.5 79.5t-93.5 22.5h-136v-165q0 -36 5.5 -60t19 -39t36 -21t56.5 -6h50q42 0 73 6
t55 20.5t43 38.5t37 59h45zM304 739h-16l51 169h109z" />
    <glyph glyph-name="Ecircumflex" unicode="&#xca;" horiz-adv-x="677" 
d="M613 0h-587v38q57 0 82 23.5t25 78.5v402q0 50 -23 76t-84 26v38h578v-152h-36q-14 34 -30.5 55t-37 33t-46 16.5t-56.5 4.5h-160v-262h134q70 0 100 21.5t34 74.5h41v-241h-41q-9 57 -38.5 79.5t-93.5 22.5h-136v-165q0 -36 5.5 -60t19 -39t36 -21t56.5 -6h50q42 0 73 6
t55 20.5t43 38.5t37 59h45zM383 896l93 -161h-15l-133 105l-112 -105h-15l92 161h90z" />
    <glyph glyph-name="Edieresis" unicode="&#xcb;" horiz-adv-x="677" 
d="M613 0h-587v38q57 0 82 23.5t25 78.5v402q0 50 -23 76t-84 26v38h578v-152h-36q-14 34 -30.5 55t-37 33t-46 16.5t-56.5 4.5h-160v-262h134q70 0 100 21.5t34 74.5h41v-241h-41q-9 57 -38.5 79.5t-93.5 22.5h-136v-165q0 -36 5.5 -60t19 -39t36 -21t56.5 -6h50q42 0 73 6
t55 20.5t43 38.5t37 59h45zM425 867q22 0 37.5 -15.5t15.5 -37.5t-15.5 -37.5t-37.5 -15.5t-37.5 15.5t-15.5 37.5t15.5 37.5t37.5 15.5zM253 867q22 0 37.5 -15.5t15.5 -37.5t-15.5 -37.5t-37.5 -15.5t-37.5 15.5t-15.5 37.5t15.5 37.5t37.5 15.5z" />
    <glyph glyph-name="Igrave" unicode="&#xcc;" horiz-adv-x="375" 
d="M241 139q0 -49 22.5 -75t84.5 -26v-38h-321v38q35 0 56.5 6.5t33 21t15.5 36t4 51.5v384q0 56 -22.5 81.5t-86.5 25.5v38h321v-38q-55 0 -81 -22.5t-26 -80.5v-402zM188 908l51 -169h-16l-144 169h109z" />
    <glyph glyph-name="Iacute" unicode="&#xcd;" horiz-adv-x="375" 
d="M241 139q0 -49 22.5 -75t84.5 -26v-38h-321v38q35 0 56.5 6.5t33 21t15.5 36t4 51.5v384q0 56 -22.5 81.5t-86.5 25.5v38h321v-38q-55 0 -81 -22.5t-26 -80.5v-402zM153 739h-16l51 169h109z" />
    <glyph glyph-name="Icircumflex" unicode="&#xce;" horiz-adv-x="375" 
d="M241 139q0 -49 22.5 -75t84.5 -26v-38h-321v38q35 0 56.5 6.5t33 21t15.5 36t4 51.5v384q0 56 -22.5 81.5t-86.5 25.5v38h321v-38q-55 0 -81 -22.5t-26 -80.5v-402zM232 896l93 -161h-15l-133 105l-112 -105h-15l92 161h90z" />
    <glyph glyph-name="Idieresis" unicode="&#xcf;" horiz-adv-x="375" 
d="M241 139q0 -49 22.5 -75t84.5 -26v-38h-321v38q35 0 56.5 6.5t33 21t15.5 36t4 51.5v384q0 56 -22.5 81.5t-86.5 25.5v38h321v-38q-55 0 -81 -22.5t-26 -80.5v-402zM274 867q22 0 37.5 -15.5t15.5 -37.5t-15.5 -37.5t-37.5 -15.5t-37.5 15.5t-15.5 37.5t15.5 37.5
t37.5 15.5zM102 867q22 0 37.5 -15.5t15.5 -37.5t-15.5 -37.5t-37.5 -15.5t-37.5 15.5t-15.5 37.5t15.5 37.5t37.5 15.5z" />
    <glyph glyph-name="Eth" unicode="&#xd0;" horiz-adv-x="844" 
d="M417 682q96 0 162 -25t117 -76q57 -57 79 -114.5t22 -120.5q0 -59 -22 -120t-69 -111.5t-120.5 -82.5t-176.5 -32h-380v38q62 0 87 22.5t25 78.5v191h-112v47h112v159q0 24 -4.5 44t-16.5 34.5t-34 22t-57 7.5v38h388zM246 377h213v-47h-213v-181q0 -48 28 -77t77 -29h57
q67 0 116.5 23t82.5 61.5t49 88.5t16 105q0 58 -18 115t-58 102t-102.5 73t-150.5 28h-97v-262z" />
    <glyph glyph-name="Ntilde" unicode="&#xd1;" horiz-adv-x="844" 
d="M143 559l-44 44q-25 23 -44 30.5t-48 10.5v38h162l511 -518v327q-1 30 -5.5 57.5t-17 48.5t-35.5 34t-61 13v38h269v-38q-56 0 -81.5 -42.5t-25.5 -110.5v-313q0 -38 3 -62.5t7 -44t7.5 -37.5t5.5 -42h-66q-23 32 -43 56t-37 41l-414 424v-347q0 -69 30 -98.5t92 -29.5
v-38h-286v38q66 0 94 23.5t27 85.5v412zM267 753q2 62 25.5 94.5t66.5 32.5q24 0 46 -11t42 -23.5t37.5 -23.5t32.5 -11q39 0 47 69h15v-9q0 -53 -26 -86.5t-68 -33.5q-24 0 -45.5 11t-41.5 24t-37.5 23.5t-33.5 10.5q-20 0 -31 -19t-14 -48h-15z" />
    <glyph glyph-name="Ograve" unicode="&#xd2;" horiz-adv-x="813" 
d="M53 328q0 91 30.5 159.5t80.5 114.5t113.5 69t129.5 23q76 0 140.5 -27t111.5 -74.5t74 -113t27 -141.5q0 -74 -28.5 -138t-78 -111t-117 -74t-145.5 -27q-68 0 -129 24.5t-107.5 69.5t-74 107.5t-27.5 138.5zM174 382q0 -69 16 -132t47 -112t77.5 -78t106.5 -29
q49 0 89.5 19.5t69 54.5t44 85t15.5 110q0 65 -15.5 128t-47 112.5t-78 80t-109.5 30.5q-45 0 -84 -17.5t-68.5 -51t-46 -84t-16.5 -116.5zM407 908l51 -169h-16l-144 169h109z" />
    <glyph glyph-name="Oacute" unicode="&#xd3;" horiz-adv-x="813" 
d="M53 328q0 91 30.5 159.5t80.5 114.5t113.5 69t129.5 23q76 0 140.5 -27t111.5 -74.5t74 -113t27 -141.5q0 -74 -28.5 -138t-78 -111t-117 -74t-145.5 -27q-68 0 -129 24.5t-107.5 69.5t-74 107.5t-27.5 138.5zM174 382q0 -69 16 -132t47 -112t77.5 -78t106.5 -29
q49 0 89.5 19.5t69 54.5t44 85t15.5 110q0 65 -15.5 128t-47 112.5t-78 80t-109.5 30.5q-45 0 -84 -17.5t-68.5 -51t-46 -84t-16.5 -116.5zM372 739h-16l51 169h109z" />
    <glyph glyph-name="Ocircumflex" unicode="&#xd4;" horiz-adv-x="813" 
d="M53 328q0 91 30.5 159.5t80.5 114.5t113.5 69t129.5 23q76 0 140.5 -27t111.5 -74.5t74 -113t27 -141.5q0 -74 -28.5 -138t-78 -111t-117 -74t-145.5 -27q-68 0 -129 24.5t-107.5 69.5t-74 107.5t-27.5 138.5zM174 382q0 -69 16 -132t47 -112t77.5 -78t106.5 -29
q49 0 89.5 19.5t69 54.5t44 85t15.5 110q0 65 -15.5 128t-47 112.5t-78 80t-109.5 30.5q-45 0 -84 -17.5t-68.5 -51t-46 -84t-16.5 -116.5zM451 896l93 -161h-15l-133 105l-112 -105h-15l92 161h90z" />
    <glyph glyph-name="Otilde" unicode="&#xd5;" horiz-adv-x="813" 
d="M53 328q0 91 30.5 159.5t80.5 114.5t113.5 69t129.5 23q76 0 140.5 -27t111.5 -74.5t74 -113t27 -141.5q0 -74 -28.5 -138t-78 -111t-117 -74t-145.5 -27q-68 0 -129 24.5t-107.5 69.5t-74 107.5t-27.5 138.5zM174 382q0 -69 16 -132t47 -112t77.5 -78t106.5 -29
q49 0 89.5 19.5t69 54.5t44 85t15.5 110q0 65 -15.5 128t-47 112.5t-78 80t-109.5 30.5q-45 0 -84 -17.5t-68.5 -51t-46 -84t-16.5 -116.5zM251 753q2 62 25.5 94.5t66.5 32.5q24 0 46 -11t42 -23.5t37.5 -23.5t32.5 -11q39 0 47 69h15v-9q0 -53 -26 -86.5t-68 -33.5
q-24 0 -45.5 11t-41.5 24t-37.5 23.5t-33.5 10.5q-20 0 -31 -19t-14 -48h-15z" />
    <glyph glyph-name="Odieresis" unicode="&#xd6;" horiz-adv-x="813" 
d="M53 328q0 91 30.5 159.5t80.5 114.5t113.5 69t129.5 23q76 0 140.5 -27t111.5 -74.5t74 -113t27 -141.5q0 -74 -28.5 -138t-78 -111t-117 -74t-145.5 -27q-68 0 -129 24.5t-107.5 69.5t-74 107.5t-27.5 138.5zM174 382q0 -69 16 -132t47 -112t77.5 -78t106.5 -29
q49 0 89.5 19.5t69 54.5t44 85t15.5 110q0 65 -15.5 128t-47 112.5t-78 80t-109.5 30.5q-45 0 -84 -17.5t-68.5 -51t-46 -84t-16.5 -116.5zM493 867q22 0 37.5 -15.5t15.5 -37.5t-15.5 -37.5t-37.5 -15.5t-37.5 15.5t-15.5 37.5t15.5 37.5t37.5 15.5zM321 867
q22 0 37.5 -15.5t15.5 -37.5t-15.5 -37.5t-37.5 -15.5t-37.5 15.5t-15.5 37.5t15.5 37.5t37.5 15.5z" />
    <glyph glyph-name="multiply" unicode="&#xd7;" horiz-adv-x="668" 
d="M140 573l194 -194l194 194l54 -54l-194 -194l194 -194l-54 -54l-194 194l-193 -193l-54 54l193 193l-194 194z" />
    <glyph glyph-name="Oslash" unicode="&#xd8;" horiz-adv-x="813" 
d="M679 709l33 -29l-64 -76q54 -52 83 -120.5t29 -145.5q0 -75 -28.5 -139t-78 -111t-117 -73.5t-146.5 -26.5q-57 0 -107.5 16t-91.5 50l-69 -83l-31 29l68 80q-56 53 -81 112.5t-25 139.5q0 78 26.5 144.5t74 115t112.5 75.5t142 27q59 0 109.5 -15.5t96.5 -47.5zM561 566
q-31 40 -76 62.5t-96 22.5q-45 0 -84.5 -18.5t-68.5 -53t-45.5 -84t-16.5 -110.5q0 -60 13.5 -120.5t36.5 -105.5zM248 121q33 -44 77.5 -67t95.5 -23q49 0 89.5 19.5t69 55t44 85t15.5 110.5q0 60 -14 119.5t-40 106.5z" />
    <glyph glyph-name="Ugrave" unicode="&#xd9;" horiz-adv-x="833" 
d="M345 682v-38q-32 0 -54 -5.5t-35.5 -17.5t-19 -32t-5.5 -49v-311q0 -84 56 -132.5t157 -48.5q42 0 82 12t71 38t49.5 67t18.5 100v262q0 27 -5 48.5t-18.5 37t-36 23.5t-58.5 8v38h269v-38q-47 0 -76.5 -23.5t-29.5 -81.5v-282q0 -77 -23.5 -128.5t-63.5 -83t-92.5 -44.5
t-110.5 -13q-77 0 -132.5 18t-91.5 48.5t-53 70.5t-17 84v339q0 22 -5 40t-17 30.5t-33 19t-54 6.5v38h328zM417 908l51 -169h-16l-144 169h109z" />
    <glyph glyph-name="Uacute" unicode="&#xda;" horiz-adv-x="833" 
d="M345 682v-38q-32 0 -54 -5.5t-35.5 -17.5t-19 -32t-5.5 -49v-311q0 -84 56 -132.5t157 -48.5q42 0 82 12t71 38t49.5 67t18.5 100v262q0 27 -5 48.5t-18.5 37t-36 23.5t-58.5 8v38h269v-38q-47 0 -76.5 -23.5t-29.5 -81.5v-282q0 -77 -23.5 -128.5t-63.5 -83t-92.5 -44.5
t-110.5 -13q-77 0 -132.5 18t-91.5 48.5t-53 70.5t-17 84v339q0 22 -5 40t-17 30.5t-33 19t-54 6.5v38h328zM382 739h-16l51 169h109z" />
    <glyph glyph-name="Ucircumflex" unicode="&#xdb;" horiz-adv-x="833" 
d="M345 682v-38q-32 0 -54 -5.5t-35.5 -17.5t-19 -32t-5.5 -49v-311q0 -84 56 -132.5t157 -48.5q42 0 82 12t71 38t49.5 67t18.5 100v262q0 27 -5 48.5t-18.5 37t-36 23.5t-58.5 8v38h269v-38q-47 0 -76.5 -23.5t-29.5 -81.5v-282q0 -77 -23.5 -128.5t-63.5 -83t-92.5 -44.5
t-110.5 -13q-77 0 -132.5 18t-91.5 48.5t-53 70.5t-17 84v339q0 22 -5 40t-17 30.5t-33 19t-54 6.5v38h328zM461 896l93 -161h-15l-133 105l-112 -105h-15l92 161h90z" />
    <glyph glyph-name="Udieresis" unicode="&#xdc;" horiz-adv-x="833" 
d="M345 682v-38q-32 0 -54 -5.5t-35.5 -17.5t-19 -32t-5.5 -49v-311q0 -84 56 -132.5t157 -48.5q42 0 82 12t71 38t49.5 67t18.5 100v262q0 27 -5 48.5t-18.5 37t-36 23.5t-58.5 8v38h269v-38q-47 0 -76.5 -23.5t-29.5 -81.5v-282q0 -77 -23.5 -128.5t-63.5 -83t-92.5 -44.5
t-110.5 -13q-77 0 -132.5 18t-91.5 48.5t-53 70.5t-17 84v339q0 22 -5 40t-17 30.5t-33 19t-54 6.5v38h328zM503 867q22 0 37.5 -15.5t15.5 -37.5t-15.5 -37.5t-37.5 -15.5t-37.5 15.5t-15.5 37.5t15.5 37.5t37.5 15.5zM331 867q22 0 37.5 -15.5t15.5 -37.5t-15.5 -37.5
t-37.5 -15.5t-37.5 15.5t-15.5 37.5t15.5 37.5t37.5 15.5z" />
    <glyph glyph-name="Yacute" unicode="&#xdd;" horiz-adv-x="719" 
d="M413 132q0 -94 100 -94v-38h-307v38q50 0 76 22t26 73v153l-209 306q-17 26 -38 37.5t-53 14.5v38h300v-38q-60 0 -73.5 -24.5t13.5 -63.5l149 -217l116 170q18 26 24 50t0 42.5t-24 29.5t-48 13v38h246v-38q-15 -2 -28 -7.5t-26.5 -16.5t-28 -29t-32.5 -44l-183 -261
v-154zM325 739h-16l51 169h109z" />
    <glyph glyph-name="Thorn" unicode="&#xde;" horiz-adv-x="635" 
d="M135 555q0 52 -28 70.5t-74 18.5v38h310v-38q-48 0 -75.5 -20.5t-27.5 -71.5v-21h133q68 0 113.5 -16.5t72.5 -42.5t38.5 -58.5t11.5 -64.5q0 -27 -10 -60.5t-38.5 -63.5t-79.5 -50.5t-134 -20.5h-107v-27q0 -40 25.5 -65t89.5 -25v-37h-322v38q52 0 77 23t25 74v420z
M240 197h89q46 0 76.5 13t49 33.5t26 45t7.5 48.5q0 23 -7 49.5t-25.5 49t-50.5 37.5t-81 15h-84v-291z" />
    <glyph glyph-name="germandbls" unicode="&#xdf;" 
d="M22 396v34q0 10 7.5 11.5t18 1.5t21.5 1t19 9q13 13 17 34.5t8 47t14 53t36 53.5q29 29 63 43.5t84 14.5q42 0 76.5 -10.5t59.5 -30t39 -46.5t14 -59q0 -51 -32.5 -83.5t-108.5 -58.5v-2q49 -6 82.5 -28t53.5 -51.5t29 -63.5t9 -64q0 -29 -10 -65t-30 -68t-51.5 -54
t-73.5 -22q-45 0 -68 19.5t-23 46.5q0 19 12 31t29 12q21 0 26.5 -12t8 -26t8 -26t26.5 -12q14 0 26 9.5t20.5 26.5t13.5 40t5 49q0 31 -9.5 69t-30.5 71.5t-54 58t-79 30.5v42q69 11 99 45t30 81q0 23 -9 42.5t-24 34t-36 23t-45 8.5q-51 0 -81 -35.5t-30 -108.5v-380
q0 -45 10 -66.5t46 -29.5v-36h-216v38q40 4 58 29t18 67v262h-76z" />
    <glyph glyph-name="agrave" unicode="&#xe0;" horiz-adv-x="479" 
d="M305 339q0 22 -9.5 37t-24 24.5t-30.5 13.5t-28 4q-15 0 -28.5 -4t-24.5 -11t-17.5 -15t-6.5 -17q0 -8 6 -18t11 -19.5t6.5 -18t-8.5 -12.5l-59 -28q-2 -1 -7.5 6.5t-11 18.5t-10 23.5t-4.5 20.5q0 18 10.5 38.5t32.5 38t57 29t84 11.5q72 0 109 -25t37 -82v-256
q0 -28 15 -35.5t41 9.5l9 -36q-22 -25 -41.5 -36t-39.5 -11q-29 0 -46.5 18.5t-21.5 53.5q-44 -39 -77.5 -55.5t-70.5 -16.5q-49 0 -80.5 30t-31.5 77q0 46 35 77.5t118 60.5l107 37v68zM252 213q-61 -23 -89.5 -41.5t-28.5 -50.5q0 -23 16 -44t54 -21q52 0 101 52v125z
M250 694l51 -169h-16l-144 169h109z" />
    <glyph glyph-name="aacute" unicode="&#xe1;" horiz-adv-x="479" 
d="M305 339q0 22 -9.5 37t-24 24.5t-30.5 13.5t-28 4q-15 0 -28.5 -4t-24.5 -11t-17.5 -15t-6.5 -17q0 -8 6 -18t11 -19.5t6.5 -18t-8.5 -12.5l-59 -28q-2 -1 -7.5 6.5t-11 18.5t-10 23.5t-4.5 20.5q0 18 10.5 38.5t32.5 38t57 29t84 11.5q72 0 109 -25t37 -82v-256
q0 -28 15 -35.5t41 9.5l9 -36q-22 -25 -41.5 -36t-39.5 -11q-29 0 -46.5 18.5t-21.5 53.5q-44 -39 -77.5 -55.5t-70.5 -16.5q-49 0 -80.5 30t-31.5 77q0 46 35 77.5t118 60.5l107 37v68zM252 213q-61 -23 -89.5 -41.5t-28.5 -50.5q0 -23 16 -44t54 -21q52 0 101 52v125z
M205 525h-16l51 169h109z" />
    <glyph glyph-name="acircumflex" unicode="&#xe2;" horiz-adv-x="479" 
d="M305 339q0 22 -9.5 37t-24 24.5t-30.5 13.5t-28 4q-15 0 -28.5 -4t-24.5 -11t-17.5 -15t-6.5 -17q0 -8 6 -18t11 -19.5t6.5 -18t-8.5 -12.5l-59 -28q-2 -1 -7.5 6.5t-11 18.5t-10 23.5t-4.5 20.5q0 18 10.5 38.5t32.5 38t57 29t84 11.5q72 0 109 -25t37 -82v-256
q0 -28 15 -35.5t41 9.5l9 -36q-22 -25 -41.5 -36t-39.5 -11q-29 0 -46.5 18.5t-21.5 53.5q-44 -39 -77.5 -55.5t-70.5 -16.5q-49 0 -80.5 30t-31.5 77q0 46 35 77.5t118 60.5l107 37v68zM252 213q-61 -23 -89.5 -41.5t-28.5 -50.5q0 -23 16 -44t54 -21q52 0 101 52v125z
M284 682l93 -161h-15l-133 105l-112 -105h-15l92 161h90z" />
    <glyph glyph-name="atilde" unicode="&#xe3;" horiz-adv-x="479" 
d="M305 339q0 22 -9.5 37t-24 24.5t-30.5 13.5t-28 4q-15 0 -28.5 -4t-24.5 -11t-17.5 -15t-6.5 -17q0 -8 6 -18t11 -19.5t6.5 -18t-8.5 -12.5l-59 -28q-2 -1 -7.5 6.5t-11 18.5t-10 23.5t-4.5 20.5q0 18 10.5 38.5t32.5 38t57 29t84 11.5q72 0 109 -25t37 -82v-256
q0 -28 15 -35.5t41 9.5l9 -36q-22 -25 -41.5 -36t-39.5 -11q-29 0 -46.5 18.5t-21.5 53.5q-44 -39 -77.5 -55.5t-70.5 -16.5q-49 0 -80.5 30t-31.5 77q0 46 35 77.5t118 60.5l107 37v68zM252 213q-61 -23 -89.5 -41.5t-28.5 -50.5q0 -23 16 -44t54 -21q52 0 101 52v125z
M84 539q2 62 25.5 94.5t66.5 32.5q24 0 46 -11t42 -23.5t37.5 -23.5t32.5 -11q39 0 47 69h15v-9q0 -53 -26 -86.5t-68 -33.5q-24 0 -45.5 11t-41.5 24t-37.5 23.5t-33.5 10.5q-20 0 -31 -19t-14 -48h-15z" />
    <glyph glyph-name="adieresis" unicode="&#xe4;" horiz-adv-x="479" 
d="M305 339q0 22 -9.5 37t-24 24.5t-30.5 13.5t-28 4q-15 0 -28.5 -4t-24.5 -11t-17.5 -15t-6.5 -17q0 -8 6 -18t11 -19.5t6.5 -18t-8.5 -12.5l-59 -28q-2 -1 -7.5 6.5t-11 18.5t-10 23.5t-4.5 20.5q0 18 10.5 38.5t32.5 38t57 29t84 11.5q72 0 109 -25t37 -82v-256
q0 -28 15 -35.5t41 9.5l9 -36q-22 -25 -41.5 -36t-39.5 -11q-29 0 -46.5 18.5t-21.5 53.5q-44 -39 -77.5 -55.5t-70.5 -16.5q-49 0 -80.5 30t-31.5 77q0 46 35 77.5t118 60.5l107 37v68zM252 213q-61 -23 -89.5 -41.5t-28.5 -50.5q0 -23 16 -44t54 -21q52 0 101 52v125z
M326 653q22 0 37.5 -15.5t15.5 -37.5t-15.5 -37.5t-37.5 -15.5t-37.5 15.5t-15.5 37.5t15.5 37.5t37.5 15.5zM154 653q22 0 37.5 -15.5t15.5 -37.5t-15.5 -37.5t-37.5 -15.5t-37.5 15.5t-15.5 37.5t15.5 37.5t37.5 15.5z" />
    <glyph glyph-name="aring" unicode="&#xe5;" horiz-adv-x="479" 
d="M305 339q0 22 -9.5 37t-24 24.5t-30.5 13.5t-28 4q-15 0 -28.5 -4t-24.5 -11t-17.5 -15t-6.5 -17q0 -8 6 -18t11 -19.5t6.5 -18t-8.5 -12.5l-59 -28q-2 -1 -7.5 6.5t-11 18.5t-10 23.5t-4.5 20.5q0 18 10.5 38.5t32.5 38t57 29t84 11.5q72 0 109 -25t37 -82v-256
q0 -28 15 -35.5t41 9.5l9 -36q-22 -25 -41.5 -36t-39.5 -11q-29 0 -46.5 18.5t-21.5 53.5q-44 -39 -77.5 -55.5t-70.5 -16.5q-49 0 -80.5 30t-31.5 77q0 46 35 77.5t118 60.5l107 37v68zM252 213q-61 -23 -89.5 -41.5t-28.5 -50.5q0 -23 16 -44t54 -21q52 0 101 52v125z
M239 694q39 0 66.5 -27t27.5 -66q0 -20 -7.5 -37t-20 -29.5t-30 -20t-36.5 -7.5q-39 0 -66 27.5t-27 66.5t27 66t66 27zM239 660q-25 0 -42 -17t-17 -42t17 -42.5t42 -17.5t42.5 17.5t17.5 42.5t-17.5 42t-42.5 17z" />
    <glyph glyph-name="ae" unicode="&#xe6;" horiz-adv-x="686" 
d="M384 242q-3 -92 29 -130t100 -38q86 0 134 56l21 -20q-35 -63 -80.5 -92t-110.5 -29q-98 0 -158 84q-87 -84 -174 -84q-51 0 -81 28t-30 76q0 42 23.5 69.5t61 45.5t85 29.5t95.5 22.5v57q0 46 -21 73.5t-56 27.5q-6 0 -20.5 -2t-30.5 -8t-28 -16t-12 -25q0 -12 6 -21.5
t11.5 -17.5t6 -14.5t-10.5 -12.5l-45 -24q-10 -6 -19 1t-15.5 19.5t-10 27.5t-3.5 25q0 29 20.5 50t51.5 34.5t66 20t64 6.5q45 0 72.5 -14t44.5 -46q42 60 126 60q69 0 112 -43.5t48 -116.5zM299 225q-44 -11 -77 -20.5t-56 -22t-34.5 -28.5t-11.5 -38q0 -26 20 -43t49 -17
q56 0 110 52v117zM562 317q-12 53 -33.5 77t-57.5 24q-49 0 -69.5 -34.5t-17.5 -105.5z" />
    <glyph glyph-name="ccedilla" unicode="&#xe7;" horiz-adv-x="469" 
d="M440 117q-16 -60 -65 -94t-118 -34q-56 0 -96 21.5t-66 55t-38.5 74.5t-12.5 81t13 82.5t41.5 77.5t73 57.5t108.5 22.5q31 0 59.5 -5t50.5 -15.5t35 -27.5t13 -42q0 -23 -10.5 -35.5t-27.5 -12.5q-16 0 -24.5 7t-14 17.5t-11 23t-15.5 23t-26.5 17.5t-45.5 7
q-63 0 -100.5 -44.5t-37.5 -117.5q0 -33 10.5 -66.5t31.5 -60.5t51.5 -44t69.5 -17q48 0 78 15.5t51 48.5zM125 -150q14 -3 21.5 -4t14.5 -1q26 0 45 15.5t19 38.5q0 46 -70 54l65 35q45 -4 64 -24t19 -44q0 -20 -9.5 -37t-26 -30t-39.5 -20t-49 -7q-13 0 -25 1.5t-33 6.5z
" />
    <glyph glyph-name="egrave" unicode="&#xe8;" horiz-adv-x="469" 
d="M118 277q-2 -50 12 -89t38 -65.5t56 -40t67 -13.5q70 0 125 48l21 -19q-32 -53 -80.5 -81t-105.5 -28q-45 0 -83.5 17t-66 48t-43 73.5t-15.5 92.5q0 51 16 95.5t44 76.5t66.5 50.5t82.5 18.5q48 0 83 -19t57.5 -46.5t33.5 -59.5t11 -59h-319zM332 313q-6 54 -31.5 82.5
t-67.5 28.5q-44 0 -73 -30t-36 -81h208zM245 694l51 -169h-16l-144 169h109z" />
    <glyph glyph-name="eacute" unicode="&#xe9;" horiz-adv-x="469" 
d="M118 277q-2 -50 12 -89t38 -65.5t56 -40t67 -13.5q70 0 125 48l21 -19q-32 -53 -80.5 -81t-105.5 -28q-45 0 -83.5 17t-66 48t-43 73.5t-15.5 92.5q0 51 16 95.5t44 76.5t66.5 50.5t82.5 18.5q48 0 83 -19t57.5 -46.5t33.5 -59.5t11 -59h-319zM332 313q-6 54 -31.5 82.5
t-67.5 28.5q-44 0 -73 -30t-36 -81h208zM200 525h-16l51 169h109z" />
    <glyph glyph-name="ecircumflex" unicode="&#xea;" horiz-adv-x="469" 
d="M118 277q-2 -50 12 -89t38 -65.5t56 -40t67 -13.5q70 0 125 48l21 -19q-32 -53 -80.5 -81t-105.5 -28q-45 0 -83.5 17t-66 48t-43 73.5t-15.5 92.5q0 51 16 95.5t44 76.5t66.5 50.5t82.5 18.5q48 0 83 -19t57.5 -46.5t33.5 -59.5t11 -59h-319zM332 313q-6 54 -31.5 82.5
t-67.5 28.5q-44 0 -73 -30t-36 -81h208zM289 682l93 -161h-15l-133 105l-112 -105h-15l92 161h90z" />
    <glyph glyph-name="edieresis" unicode="&#xeb;" horiz-adv-x="469" 
d="M118 277q-2 -50 12 -89t38 -65.5t56 -40t67 -13.5q70 0 125 48l21 -19q-32 -53 -80.5 -81t-105.5 -28q-45 0 -83.5 17t-66 48t-43 73.5t-15.5 92.5q0 51 16 95.5t44 76.5t66.5 50.5t82.5 18.5q48 0 83 -19t57.5 -46.5t33.5 -59.5t11 -59h-319zM332 313q-6 54 -31.5 82.5
t-67.5 28.5q-44 0 -73 -30t-36 -81h208zM331 653q22 0 37.5 -15.5t15.5 -37.5t-15.5 -37.5t-37.5 -15.5t-37.5 15.5t-15.5 37.5t15.5 37.5t37.5 15.5zM159 653q22 0 37.5 -15.5t15.5 -37.5t-15.5 -37.5t-37.5 -15.5t-37.5 15.5t-15.5 37.5t15.5 37.5t37.5 15.5z" />
    <glyph glyph-name="igrave" unicode="&#xec;" horiz-adv-x="271" 
d="M102 351l-76 38v23l135 49h25v-345q0 -42 17.5 -60.5t44.5 -19.5v-36h-218v36q29 0 50.5 17.5t21.5 55.5v242zM148 694l51 -169h-16l-144 169h109z" />
    <glyph glyph-name="iacute" unicode="&#xed;" horiz-adv-x="271" 
d="M102 351l-76 38v23l135 49h25v-345q0 -42 17.5 -60.5t44.5 -19.5v-36h-218v36q29 0 50.5 17.5t21.5 55.5v242zM103 525h-16l51 169h109z" />
    <glyph glyph-name="icircumflex" unicode="&#xee;" horiz-adv-x="271" 
d="M102 351l-76 38v23l135 49h25v-345q0 -42 17.5 -60.5t44.5 -19.5v-36h-218v36q29 0 50.5 17.5t21.5 55.5v242zM182 682l93 -161h-15l-133 105l-112 -105h-15l92 161h90z" />
    <glyph glyph-name="idieresis" unicode="&#xef;" horiz-adv-x="271" 
d="M102 351l-76 38v23l135 49h25v-345q0 -42 17.5 -60.5t44.5 -19.5v-36h-218v36q29 0 50.5 17.5t21.5 55.5v242zM224 653q22 0 37.5 -15.5t15.5 -37.5t-15.5 -37.5t-37.5 -15.5t-37.5 15.5t-15.5 37.5t15.5 37.5t37.5 15.5zM52 653q22 0 37.5 -15.5t15.5 -37.5t-15.5 -37.5
t-37.5 -15.5t-37.5 15.5t-15.5 37.5t15.5 37.5t37.5 15.5z" />
    <glyph glyph-name="eth" unicode="&#xf0;" horiz-adv-x="514" 
d="M123 266q0 -33 8 -75t25.5 -78.5t45 -61.5t66.5 -25q59 0 92.5 38t33.5 104q0 32 -7 76t-24 84t-45.5 68t-70.5 28q-56 0 -90 -35.5t-34 -122.5zM313 605q47 -40 79.5 -87.5t53 -96.5t30 -97t9.5 -90q0 -51 -17.5 -96t-48 -78t-72 -52t-88.5 -19t-89 19t-73.5 51.5
t-50 76t-18.5 92.5t17.5 91.5t47.5 74t70.5 49.5t87.5 18q17 0 42 -6.5t45 -23.5l2 2q-11 29 -30.5 65t-52.5 73l-111 -68l-18 27l106 64q-20 19 -46 38t-58 36l38 23q68 -27 118 -65l106 65l18 -27z" />
    <glyph glyph-name="ntilde" unicode="&#xf1;" 
d="M175 118q0 -42 18 -62t63 -20v-36h-239v36q74 3 74 76v241l-67 38v23l126 47h25v-85h2q31 41 74.5 63t85.5 22q70 0 108.5 -37t38.5 -118v-190q0 -38 14 -56.5t57 -23.5v-36h-236v36q44 0 62.5 20.5t18.5 61.5v166q0 48 -22.5 79t-71.5 31q-35 0 -67 -16t-64 -43v-217z
M131 539q2 62 25.5 94.5t66.5 32.5q24 0 46 -11t42 -23.5t37.5 -23.5t32.5 -11q39 0 47 69h15v-9q0 -53 -26 -86.5t-68 -33.5q-24 0 -45.5 11t-41.5 24t-37.5 23.5t-33.5 10.5q-20 0 -31 -19t-14 -48h-15z" />
    <glyph glyph-name="ograve" unicode="&#xf2;" horiz-adv-x="542" 
d="M43 228q0 49 17.5 91.5t47.5 74t70.5 49.5t87.5 18q51 0 94 -17t74 -48t48 -73.5t17 -93.5t-17 -95t-47.5 -76t-71.5 -50.5t-89 -18.5q-47 0 -89 19t-73.5 51.5t-50 76t-18.5 92.5zM138 266q0 -33 8 -75t25.5 -78.5t45 -61.5t66.5 -25q59 0 92.5 38t33.5 104q0 32 -7 76
t-24 84t-45.5 68t-70.5 28q-56 0 -90 -35.5t-34 -122.5zM282 694l51 -169h-16l-144 169h109z" />
    <glyph glyph-name="oacute" unicode="&#xf3;" horiz-adv-x="542" 
d="M43 228q0 49 17.5 91.5t47.5 74t70.5 49.5t87.5 18q51 0 94 -17t74 -48t48 -73.5t17 -93.5t-17 -95t-47.5 -76t-71.5 -50.5t-89 -18.5q-47 0 -89 19t-73.5 51.5t-50 76t-18.5 92.5zM138 266q0 -33 8 -75t25.5 -78.5t45 -61.5t66.5 -25q59 0 92.5 38t33.5 104q0 32 -7 76
t-24 84t-45.5 68t-70.5 28q-56 0 -90 -35.5t-34 -122.5zM237 525h-16l51 169h109z" />
    <glyph glyph-name="ocircumflex" unicode="&#xf4;" horiz-adv-x="542" 
d="M43 228q0 49 17.5 91.5t47.5 74t70.5 49.5t87.5 18q51 0 94 -17t74 -48t48 -73.5t17 -93.5t-17 -95t-47.5 -76t-71.5 -50.5t-89 -18.5q-47 0 -89 19t-73.5 51.5t-50 76t-18.5 92.5zM138 266q0 -33 8 -75t25.5 -78.5t45 -61.5t66.5 -25q59 0 92.5 38t33.5 104q0 32 -7 76
t-24 84t-45.5 68t-70.5 28q-56 0 -90 -35.5t-34 -122.5zM316 682l93 -161h-15l-133 105l-112 -105h-15l92 161h90z" />
    <glyph glyph-name="otilde" unicode="&#xf5;" horiz-adv-x="542" 
d="M43 228q0 49 17.5 91.5t47.5 74t70.5 49.5t87.5 18q51 0 94 -17t74 -48t48 -73.5t17 -93.5t-17 -95t-47.5 -76t-71.5 -50.5t-89 -18.5q-47 0 -89 19t-73.5 51.5t-50 76t-18.5 92.5zM138 266q0 -33 8 -75t25.5 -78.5t45 -61.5t66.5 -25q59 0 92.5 38t33.5 104q0 32 -7 76
t-24 84t-45.5 68t-70.5 28q-56 0 -90 -35.5t-34 -122.5zM116 539q2 62 25.5 94.5t66.5 32.5q24 0 46 -11t42 -23.5t37.5 -23.5t32.5 -11q39 0 47 69h15v-9q0 -53 -26 -86.5t-68 -33.5q-24 0 -45.5 11t-41.5 24t-37.5 23.5t-33.5 10.5q-20 0 -31 -19t-14 -48h-15z" />
    <glyph glyph-name="odieresis" unicode="&#xf6;" horiz-adv-x="542" 
d="M43 228q0 49 17.5 91.5t47.5 74t70.5 49.5t87.5 18q51 0 94 -17t74 -48t48 -73.5t17 -93.5t-17 -95t-47.5 -76t-71.5 -50.5t-89 -18.5q-47 0 -89 19t-73.5 51.5t-50 76t-18.5 92.5zM138 266q0 -33 8 -75t25.5 -78.5t45 -61.5t66.5 -25q59 0 92.5 38t33.5 104q0 32 -7 76
t-24 84t-45.5 68t-70.5 28q-56 0 -90 -35.5t-34 -122.5zM358 653q22 0 37.5 -15.5t15.5 -37.5t-15.5 -37.5t-37.5 -15.5t-37.5 15.5t-15.5 37.5t15.5 37.5t37.5 15.5zM186 653q22 0 37.5 -15.5t15.5 -37.5t-15.5 -37.5t-37.5 -15.5t-37.5 15.5t-15.5 37.5t15.5 37.5
t37.5 15.5z" />
    <glyph glyph-name="divide" unicode="&#xf7;" horiz-adv-x="668" 
d="M601 364v-77h-535v77h535zM333 74q-20 0 -33.5 13.5t-13.5 33.5t13.5 34t33.5 14t34 -14t14 -34t-14 -33.5t-34 -13.5zM333 482q-20 0 -33.5 13.5t-13.5 33.5t13.5 34t33.5 14t34 -14t14 -34t-14 -33.5t-34 -13.5z" />
    <glyph glyph-name="oslash" unicode="&#xf8;" horiz-adv-x="542" 
d="M106 65q-63 73 -63 166q0 48 17.5 90t47.5 73t70.5 49t87.5 18q79 0 144 -44l39 45l29 -24l-39 -47q29 -31 44.5 -73t15.5 -90q0 -51 -17 -94.5t-47.5 -76t-72 -50.5t-89.5 -18q-74 0 -138 49l-41 -48l-30 24zM361 361q-37 63 -105 63q-24 0 -45 -8.5t-37.5 -26.5
t-26 -46.5t-9.5 -68.5q0 -45 7 -78.5t19 -65.5zM182 93q23 -35 47 -51t52 -16q63 0 95.5 40t32.5 101q0 38 -7.5 79.5t-21.5 76.5z" />
    <glyph glyph-name="ugrave" unicode="&#xf9;" 
d="M553 17l-152 -28v77q-44 -41 -83 -59t-84 -18q-28 0 -52.5 7t-43 23t-29 41t-10.5 60v196q0 30 -4 47t-13 26t-24.5 11.5t-38.5 2.5v36l164 11v-279q0 -57 23 -84t68 -27q33 0 62 11.5t65 40.5v204q0 30 -3.5 47t-13.5 26t-26.5 11.5t-42.5 2.5v36l170 11v-346
q0 -34 13.5 -45.5t54.5 -2.5v-39zM287 694l51 -169h-16l-144 169h109z" />
    <glyph glyph-name="uacute" unicode="&#xfa;" 
d="M553 17l-152 -28v77q-44 -41 -83 -59t-84 -18q-28 0 -52.5 7t-43 23t-29 41t-10.5 60v196q0 30 -4 47t-13 26t-24.5 11.5t-38.5 2.5v36l164 11v-279q0 -57 23 -84t68 -27q33 0 62 11.5t65 40.5v204q0 30 -3.5 47t-13.5 26t-26.5 11.5t-42.5 2.5v36l170 11v-346
q0 -34 13.5 -45.5t54.5 -2.5v-39zM252 525h-16l51 169h109z" />
    <glyph glyph-name="ucircumflex" unicode="&#xfb;" 
d="M553 17l-152 -28v77q-44 -41 -83 -59t-84 -18q-28 0 -52.5 7t-43 23t-29 41t-10.5 60v196q0 30 -4 47t-13 26t-24.5 11.5t-38.5 2.5v36l164 11v-279q0 -57 23 -84t68 -27q33 0 62 11.5t65 40.5v204q0 30 -3.5 47t-13.5 26t-26.5 11.5t-42.5 2.5v36l170 11v-346
q0 -34 13.5 -45.5t54.5 -2.5v-39zM331 682l93 -161h-15l-133 105l-112 -105h-15l92 161h90z" />
    <glyph glyph-name="udieresis" unicode="&#xfc;" 
d="M553 17l-152 -28v77q-44 -41 -83 -59t-84 -18q-28 0 -52.5 7t-43 23t-29 41t-10.5 60v196q0 30 -4 47t-13 26t-24.5 11.5t-38.5 2.5v36l164 11v-279q0 -57 23 -84t68 -27q33 0 62 11.5t65 40.5v204q0 30 -3.5 47t-13.5 26t-26.5 11.5t-42.5 2.5v36l170 11v-346
q0 -34 13.5 -45.5t54.5 -2.5v-39zM373 653q22 0 37.5 -15.5t15.5 -37.5t-15.5 -37.5t-37.5 -15.5t-37.5 15.5t-15.5 37.5t15.5 37.5t37.5 15.5zM201 653q22 0 37.5 -15.5t15.5 -37.5t-15.5 -37.5t-37.5 -15.5t-37.5 15.5t-15.5 37.5t15.5 37.5t37.5 15.5z" />
    <glyph glyph-name="yacute" unicode="&#xfd;" horiz-adv-x="479" 
d="M74 355q-10 22 -18 34t-16 17.5t-17 6.5t-21 1v36h218v-36q-45 -2 -55.5 -19.5t6.5 -56.5l103 -236l86 219q15 39 3 65t-58 28v36h173v-36q-14 -3 -24 -8t-17.5 -14t-14.5 -22t-14 -32l-166 -422q-43 -107 -131 -107q-35 0 -57.5 15.5t-22.5 41.5q0 17 12.5 29t30.5 12
q13 0 20.5 -5t14.5 -11t14.5 -11t21.5 -5q29 0 48.5 27.5t39.5 92.5zM205 525h-16l51 169h109z" />
    <glyph glyph-name="thorn" unicode="&#xfe;" horiz-adv-x="561" 
d="M169 -72q0 -50 21 -66.5t64 -16.5v-36h-243v36q37 0 55.5 20.5t18.5 52.5v667l-71 39v23l130 48h25v-309q39 39 78 57t85 18q40 0 74 -15.5t58.5 -44t38 -67.5t13.5 -85q0 -54 -18 -101.5t-49.5 -82.5t-73 -55.5t-89.5 -20.5q-59 0 -117 29v-90zM169 167q0 -65 35.5 -100
t89.5 -35q64 0 101 44t37 127q0 52 -14 88t-36 58t-47.5 32t-47.5 10q-29 0 -59 -11.5t-59 -34.5v-178z" />
    <glyph glyph-name="ydieresis" unicode="&#xff;" horiz-adv-x="479" 
d="M74 355q-10 22 -18 34t-16 17.5t-17 6.5t-21 1v36h218v-36q-45 -2 -55.5 -19.5t6.5 -56.5l103 -236l86 219q15 39 3 65t-58 28v36h173v-36q-14 -3 -24 -8t-17.5 -14t-14.5 -22t-14 -32l-166 -422q-43 -107 -131 -107q-35 0 -57.5 15.5t-22.5 41.5q0 17 12.5 29t30.5 12
q13 0 20.5 -5t14.5 -11t14.5 -11t21.5 -5q29 0 48.5 27.5t39.5 92.5zM326 653q22 0 37.5 -15.5t15.5 -37.5t-15.5 -37.5t-37.5 -15.5t-37.5 15.5t-15.5 37.5t15.5 37.5t37.5 15.5zM154 653q22 0 37.5 -15.5t15.5 -37.5t-15.5 -37.5t-37.5 -15.5t-37.5 15.5t-15.5 37.5
t15.5 37.5t37.5 15.5z" />
    <glyph glyph-name="Amacron" unicode="&#x100;" horiz-adv-x="719" 
d="M459 266h-264l-36 -94q-10 -26 -10.5 -50t9 -42t28 -29.5t47.5 -12.5v-38h-230v38q19 5 33 13t24.5 21t19.5 32t20 46l201 500l-16 32h107l248 -577q15 -35 31.5 -51t44.5 -16v-38h-280v38q60 6 76.5 33.5t-2.5 72.5zM323 591l-107 -271h220zM496 846v-63h-311v63h311z
" />
    <glyph glyph-name="amacron" unicode="&#x101;" horiz-adv-x="479" 
d="M305 339q0 22 -9.5 37t-24 24.5t-30.5 13.5t-28 4q-15 0 -28.5 -4t-24.5 -11t-17.5 -15t-6.5 -17q0 -8 6 -18t11 -19.5t6.5 -18t-8.5 -12.5l-59 -28q-2 -1 -7.5 6.5t-11 18.5t-10 23.5t-4.5 20.5q0 18 10.5 38.5t32.5 38t57 29t84 11.5q72 0 109 -25t37 -82v-256
q0 -28 15 -35.5t41 9.5l9 -36q-22 -25 -41.5 -36t-39.5 -11q-29 0 -46.5 18.5t-21.5 53.5q-44 -39 -77.5 -55.5t-70.5 -16.5q-49 0 -80.5 30t-31.5 77q0 46 35 77.5t118 60.5l107 37v68zM252 213q-61 -23 -89.5 -41.5t-28.5 -50.5q0 -23 16 -44t54 -21q52 0 101 52v125z
M386 632v-63h-311v63h311z" />
    <glyph glyph-name="Abreve" unicode="&#x102;" horiz-adv-x="719" 
d="M459 266h-264l-36 -94q-10 -26 -10.5 -50t9 -42t28 -29.5t47.5 -12.5v-38h-230v38q19 5 33 13t24.5 21t19.5 32t20 46l201 500l-16 32h107l248 -577q15 -35 31.5 -51t44.5 -16v-38h-280v38q60 6 76.5 33.5t-2.5 72.5zM323 591l-107 -271h220zM218 901q19 -33 48 -47.5
t77 -14.5q100 0 123 62h16q-5 -60 -43.5 -98t-95.5 -38t-96 37.5t-44 98.5h15z" />
    <glyph glyph-name="abreve" unicode="&#x103;" horiz-adv-x="479" 
d="M305 339q0 22 -9.5 37t-24 24.5t-30.5 13.5t-28 4q-15 0 -28.5 -4t-24.5 -11t-17.5 -15t-6.5 -17q0 -8 6 -18t11 -19.5t6.5 -18t-8.5 -12.5l-59 -28q-2 -1 -7.5 6.5t-11 18.5t-10 23.5t-4.5 20.5q0 18 10.5 38.5t32.5 38t57 29t84 11.5q72 0 109 -25t37 -82v-256
q0 -28 15 -35.5t41 9.5l9 -36q-22 -25 -41.5 -36t-39.5 -11q-29 0 -46.5 18.5t-21.5 53.5q-44 -39 -77.5 -55.5t-70.5 -16.5q-49 0 -80.5 30t-31.5 77q0 46 35 77.5t118 60.5l107 37v68zM252 213q-61 -23 -89.5 -41.5t-28.5 -50.5q0 -23 16 -44t54 -21q52 0 101 52v125z
M117 687q19 -33 48 -47.5t77 -14.5q100 0 123 62h16q-5 -60 -43.5 -98t-95.5 -38t-96 37.5t-44 98.5h15z" />
    <glyph glyph-name="Aogonek" unicode="&#x104;" horiz-adv-x="719" 
d="M459 266h-264l-36 -94q-10 -26 -10.5 -50t9 -42t28 -29.5t47.5 -12.5v-38h-230v38q19 5 33 13t24.5 21t19.5 32t20 46l201 500l-16 32h107l248 -577q15 -35 31.5 -51t44.5 -16v-38h-118q-5 -11 -7 -20.5t-2 -20.5q0 -23 9 -41t24 -30t33.5 -18t37.5 -6q15 0 29 3t30 8
l10 -15q-21 -12 -36 -19t-27.5 -11t-24 -5.5t-25.5 -1.5q-51 0 -81.5 25t-30.5 66q0 24 8.5 46.5t23.5 39.5h-133v38q60 6 76.5 33.5t-2.5 72.5zM323 591l-107 -271h220z" />
    <glyph glyph-name="aogonek" unicode="&#x105;" horiz-adv-x="479" 
d="M305 339q0 22 -9.5 37t-24 24.5t-30.5 13.5t-28 4q-15 0 -28.5 -4t-24.5 -11t-17.5 -15t-6.5 -17q0 -8 6 -18t11 -19.5t6.5 -18t-8.5 -12.5l-59 -28q-2 -1 -7.5 6.5t-11 18.5t-10 23.5t-4.5 20.5q0 18 10.5 38.5t32.5 38t57 29t84 11.5q72 0 109 -25t37 -82v-256
q0 -28 15 -35.5t41 9.5l9 -36q-31 -35 -59 -44q-4 -8 -5 -16t-1 -17q0 -23 9 -41t24 -30t33.5 -18t37.5 -6q15 0 29 3t30 8l10 -15q-21 -12 -36 -19t-27.5 -11t-24 -5.5t-25.5 -1.5q-51 0 -81.5 25t-30.5 66q0 43 24 76q-23 4 -38 22t-18 49q-44 -39 -77.5 -55.5
t-70.5 -16.5q-49 0 -80.5 30t-31.5 77q0 46 35 77.5t118 60.5l107 37v68zM252 213q-61 -23 -89.5 -41.5t-28.5 -50.5q0 -23 16 -44t54 -21q52 0 101 52v125z" />
    <glyph glyph-name="Cacute" unicode="&#x106;" horiz-adv-x="781" 
d="M684 488q-35 75 -98.5 119t-138.5 44q-51 0 -98.5 -19t-84.5 -57t-59 -94.5t-22 -132.5q0 -64 18.5 -121.5t54 -101t87 -69t118.5 -25.5q85 0 144.5 41.5t78.5 126.5h37l-5 -157q-29 -12 -63.5 -21.5t-71 -17t-72 -11.5t-65.5 -4q-84 0 -154 25.5t-121 71t-79 108.5
t-28 138q0 66 24.5 130.5t74 116.5t123.5 84t174 32q56 0 113.5 -12t120.5 -35l24 -159h-32zM400 739h-16l51 169h109z" />
    <glyph glyph-name="cacute" unicode="&#x107;" horiz-adv-x="469" 
d="M440 117q-16 -60 -65 -94t-118 -34q-56 0 -96 21.5t-66 55t-38.5 74.5t-12.5 81t13 82.5t41.5 77.5t73 57.5t108.5 22.5q31 0 59.5 -5t50.5 -15.5t35 -27.5t13 -42q0 -23 -10.5 -35.5t-27.5 -12.5q-16 0 -24.5 7t-14 17.5t-11 23t-15.5 23t-26.5 17.5t-45.5 7
q-63 0 -100.5 -44.5t-37.5 -117.5q0 -33 10.5 -66.5t31.5 -60.5t51.5 -44t69.5 -17q48 0 78 15.5t51 48.5zM247 525h-16l51 169h109z" />
    <glyph glyph-name="Ccircumflex" unicode="&#x108;" horiz-adv-x="781" 
d="M684 488q-35 75 -98.5 119t-138.5 44q-51 0 -98.5 -19t-84.5 -57t-59 -94.5t-22 -132.5q0 -64 18.5 -121.5t54 -101t87 -69t118.5 -25.5q85 0 144.5 41.5t78.5 126.5h37l-5 -157q-29 -12 -63.5 -21.5t-71 -17t-72 -11.5t-65.5 -4q-84 0 -154 25.5t-121 71t-79 108.5
t-28 138q0 66 24.5 130.5t74 116.5t123.5 84t174 32q56 0 113.5 -12t120.5 -35l24 -159h-32zM511 896l93 -161h-15l-133 105l-112 -105h-15l92 161h90z" />
    <glyph glyph-name="ccircumflex" unicode="&#x109;" horiz-adv-x="469" 
d="M440 117q-16 -60 -65 -94t-118 -34q-56 0 -96 21.5t-66 55t-38.5 74.5t-12.5 81t13 82.5t41.5 77.5t73 57.5t108.5 22.5q31 0 59.5 -5t50.5 -15.5t35 -27.5t13 -42q0 -23 -10.5 -35.5t-27.5 -12.5q-16 0 -24.5 7t-14 17.5t-11 23t-15.5 23t-26.5 17.5t-45.5 7
q-63 0 -100.5 -44.5t-37.5 -117.5q0 -33 10.5 -66.5t31.5 -60.5t51.5 -44t69.5 -17q48 0 78 15.5t51 48.5zM319 682l93 -161h-15l-133 105l-112 -105h-15l92 161h90z" />
    <glyph glyph-name="Cdotaccent" unicode="&#x10a;" horiz-adv-x="781" 
d="M684 488q-35 75 -98.5 119t-138.5 44q-51 0 -98.5 -19t-84.5 -57t-59 -94.5t-22 -132.5q0 -64 18.5 -121.5t54 -101t87 -69t118.5 -25.5q85 0 144.5 41.5t78.5 126.5h37l-5 -157q-29 -12 -63.5 -21.5t-71 -17t-72 -11.5t-65.5 -4q-84 0 -154 25.5t-121 71t-79 108.5
t-28 138q0 66 24.5 130.5t74 116.5t123.5 84t174 32q56 0 113.5 -12t120.5 -35l24 -159h-32zM453 867q22 0 37.5 -15.5t15.5 -37.5t-15.5 -37.5t-37.5 -15.5t-37.5 15.5t-15.5 37.5t15.5 37.5t37.5 15.5z" />
    <glyph glyph-name="cdotaccent" unicode="&#x10b;" horiz-adv-x="469" 
d="M440 117q-16 -60 -65 -94t-118 -34q-56 0 -96 21.5t-66 55t-38.5 74.5t-12.5 81t13 82.5t41.5 77.5t73 57.5t108.5 22.5q31 0 59.5 -5t50.5 -15.5t35 -27.5t13 -42q0 -23 -10.5 -35.5t-27.5 -12.5q-16 0 -24.5 7t-14 17.5t-11 23t-15.5 23t-26.5 17.5t-45.5 7
q-63 0 -100.5 -44.5t-37.5 -117.5q0 -33 10.5 -66.5t31.5 -60.5t51.5 -44t69.5 -17q48 0 78 15.5t51 48.5zM267 653q22 0 37.5 -15.5t15.5 -37.5t-15.5 -37.5t-37.5 -15.5t-37.5 15.5t-15.5 37.5t15.5 37.5t37.5 15.5z" />
    <glyph glyph-name="Ccaron" unicode="&#x10c;" horiz-adv-x="781" 
d="M684 488q-35 75 -98.5 119t-138.5 44q-51 0 -98.5 -19t-84.5 -57t-59 -94.5t-22 -132.5q0 -64 18.5 -121.5t54 -101t87 -69t118.5 -25.5q85 0 144.5 41.5t78.5 126.5h37l-5 -157q-29 -12 -63.5 -21.5t-71 -17t-72 -11.5t-65.5 -4q-84 0 -154 25.5t-121 71t-79 108.5
t-28 138q0 66 24.5 130.5t74 116.5t123.5 84t174 32q56 0 113.5 -12t120.5 -35l24 -159h-32zM403 744l-93 161h15l133 -105l112 105h15l-92 -161h-90z" />
    <glyph glyph-name="ccaron" unicode="&#x10d;" horiz-adv-x="469" 
d="M440 117q-16 -60 -65 -94t-118 -34q-56 0 -96 21.5t-66 55t-38.5 74.5t-12.5 81t13 82.5t41.5 77.5t73 57.5t108.5 22.5q31 0 59.5 -5t50.5 -15.5t35 -27.5t13 -42q0 -23 -10.5 -35.5t-27.5 -12.5q-16 0 -24.5 7t-14 17.5t-11 23t-15.5 23t-26.5 17.5t-45.5 7
q-63 0 -100.5 -44.5t-37.5 -117.5q0 -33 10.5 -66.5t31.5 -60.5t51.5 -44t69.5 -17q48 0 78 15.5t51 48.5zM220 530l-93 161h15l133 -105l112 105h15l-92 -161h-90z" />
    <glyph glyph-name="Dcaron" unicode="&#x10e;" horiz-adv-x="844" 
d="M141 536q0 24 -4.5 44t-16.5 34.5t-34 22t-57 7.5v38h388q96 0 162 -25t117 -76q57 -57 79 -114.5t22 -120.5q0 -59 -22 -120t-69 -111.5t-120.5 -82.5t-176.5 -32h-380v38q62 0 87 22.5t25 78.5v397zM246 149q0 -48 28 -77t77 -29h57q67 0 116.5 23t82.5 61.5t49 88.5
t16 105q0 58 -18 115t-58 102t-102.5 73t-150.5 28h-97v-490zM324 744l-93 161h15l133 -105l112 105h15l-92 -161h-90z" />
    <glyph glyph-name="dcaron" unicode="&#x10f;" 
d="M395 593l-73 40v23l132 39h25v-592q0 -33 17 -45t55 -1v-40l-131 -28h-25v75q-39 -37 -82 -56t-85 -19q-39 0 -73.5 16.5t-60 45.5t-40 68t-14.5 84q0 53 19.5 100t52.5 82t77.5 55.5t94.5 20.5q44 0 111 -19v151zM395 255q0 46 -13 77t-32.5 50t-42.5 27.5t-44 8.5
q-29 0 -54 -13t-44 -35t-30 -51.5t-11 -63.5q0 -26 7.5 -60.5t25.5 -65.5t47.5 -52t72.5 -21q73 0 118 57v142zM535 486q48 14 72 36.5t24 49.5q0 15 -7 22t-25 7q-60 0 -60 45q0 23 15.5 36t41.5 13q35 0 60.5 -26t25.5 -71q0 -46 -32.5 -84.5t-101.5 -55.5z" />
    <glyph glyph-name="Dcroat" unicode="&#x110;" horiz-adv-x="844" 
d="M417 682q96 0 162 -25t117 -76q57 -57 79 -114.5t22 -120.5q0 -59 -22 -120t-69 -111.5t-120.5 -82.5t-176.5 -32h-380v38q62 0 87 22.5t25 78.5v191h-112v47h112v159q0 24 -4.5 44t-16.5 34.5t-34 22t-57 7.5v38h388zM246 377h213v-47h-213v-181q0 -48 28 -77t77 -29h57
q67 0 116.5 23t82.5 61.5t49 88.5t16 105q0 58 -18 115t-58 102t-102.5 73t-150.5 28h-97v-262z" />
    <glyph glyph-name="dcroat" unicode="&#x111;" 
d="M229 558h166v35l-73 40v23l132 39h25v-137h69v-47h-69v-408q0 -33 17 -45t55 -1v-40l-131 -28h-25v75q-39 -37 -82 -56t-85 -19q-39 0 -73.5 16.5t-60 45.5t-40 68t-14.5 84q0 53 19.5 100t52.5 82t77.5 55.5t94.5 20.5q44 0 111 -19v69h-166v47zM395 255q0 46 -13 77
t-32.5 50t-42.5 27.5t-44 8.5q-29 0 -54 -13t-44 -35t-30 -51.5t-11 -63.5q0 -26 7.5 -60.5t25.5 -65.5t47.5 -52t72.5 -21q73 0 118 57v142z" />
    <glyph glyph-name="Emacron" unicode="&#x112;" horiz-adv-x="677" 
d="M613 0h-587v38q57 0 82 23.5t25 78.5v402q0 50 -23 76t-84 26v38h578v-152h-36q-14 34 -30.5 55t-37 33t-46 16.5t-56.5 4.5h-160v-262h134q70 0 100 21.5t34 74.5h41v-241h-41q-9 57 -38.5 79.5t-93.5 22.5h-136v-165q0 -36 5.5 -60t19 -39t36 -21t56.5 -6h50q42 0 73 6
t55 20.5t43 38.5t37 59h45zM503 846v-63h-311v63h311z" />
    <glyph glyph-name="emacron" unicode="&#x113;" horiz-adv-x="469" 
d="M118 277q-2 -50 12 -89t38 -65.5t56 -40t67 -13.5q70 0 125 48l21 -19q-32 -53 -80.5 -81t-105.5 -28q-45 0 -83.5 17t-66 48t-43 73.5t-15.5 92.5q0 51 16 95.5t44 76.5t66.5 50.5t82.5 18.5q48 0 83 -19t57.5 -46.5t33.5 -59.5t11 -59h-319zM332 313q-6 54 -31.5 82.5
t-67.5 28.5q-44 0 -73 -30t-36 -81h208zM410 632v-63h-311v63h311z" />
    <glyph glyph-name="Ebreve" unicode="&#x114;" horiz-adv-x="677" 
d="M613 0h-587v38q57 0 82 23.5t25 78.5v402q0 50 -23 76t-84 26v38h578v-152h-36q-14 34 -30.5 55t-37 33t-46 16.5t-56.5 4.5h-160v-262h134q70 0 100 21.5t34 74.5h41v-241h-41q-9 57 -38.5 79.5t-93.5 22.5h-136v-165q0 -36 5.5 -60t19 -39t36 -21t56.5 -6h50q42 0 73 6
t55 20.5t43 38.5t37 59h45zM221 901q19 -33 48 -47.5t77 -14.5q100 0 123 62h16q-5 -60 -43.5 -98t-95.5 -38t-96 37.5t-44 98.5h15z" />
    <glyph glyph-name="ebreve" unicode="&#x115;" horiz-adv-x="469" 
d="M118 277q-2 -50 12 -89t38 -65.5t56 -40t67 -13.5q70 0 125 48l21 -19q-32 -53 -80.5 -81t-105.5 -28q-45 0 -83.5 17t-66 48t-43 73.5t-15.5 92.5q0 51 16 95.5t44 76.5t66.5 50.5t82.5 18.5q48 0 83 -19t57.5 -46.5t33.5 -59.5t11 -59h-319zM332 313q-6 54 -31.5 82.5
t-67.5 28.5q-44 0 -73 -30t-36 -81h208zM127 687q19 -33 48 -47.5t77 -14.5q100 0 123 62h16q-5 -60 -43.5 -98t-95.5 -38t-96 37.5t-44 98.5h15z" />
    <glyph glyph-name="Edotaccent" unicode="&#x116;" horiz-adv-x="677" 
d="M613 0h-587v38q57 0 82 23.5t25 78.5v402q0 50 -23 76t-84 26v38h578v-152h-36q-14 34 -30.5 55t-37 33t-46 16.5t-56.5 4.5h-160v-262h134q70 0 100 21.5t34 74.5h41v-241h-41q-9 57 -38.5 79.5t-93.5 22.5h-136v-165q0 -36 5.5 -60t19 -39t36 -21t56.5 -6h50q42 0 73 6
t55 20.5t43 38.5t37 59h45zM347 867q22 0 37.5 -15.5t15.5 -37.5t-15.5 -37.5t-37.5 -15.5t-37.5 15.5t-15.5 37.5t15.5 37.5t37.5 15.5z" />
    <glyph glyph-name="edotaccent" unicode="&#x117;" horiz-adv-x="469" 
d="M118 277q-2 -50 12 -89t38 -65.5t56 -40t67 -13.5q70 0 125 48l21 -19q-32 -53 -80.5 -81t-105.5 -28q-45 0 -83.5 17t-66 48t-43 73.5t-15.5 92.5q0 51 16 95.5t44 76.5t66.5 50.5t82.5 18.5q48 0 83 -19t57.5 -46.5t33.5 -59.5t11 -59h-319zM332 313q-6 54 -31.5 82.5
t-67.5 28.5q-44 0 -73 -30t-36 -81h208zM247 653q22 0 37.5 -15.5t15.5 -37.5t-15.5 -37.5t-37.5 -15.5t-37.5 15.5t-15.5 37.5t15.5 37.5t37.5 15.5z" />
    <glyph glyph-name="Eogonek" unicode="&#x118;" horiz-adv-x="677" 
d="M613 0h-46q-5 -11 -7 -20.5t-2 -20.5q0 -23 9 -41t24 -30t33.5 -18t37.5 -6q15 0 29 3t30 8l10 -15q-21 -12 -36 -19t-27.5 -11t-24 -5.5t-25.5 -1.5q-51 0 -81.5 25t-30.5 66q0 24 8.5 46.5t23.5 39.5h-512v38q57 0 82 23.5t25 78.5v402q0 50 -23 76t-84 26v38h578v-152
h-36q-14 34 -30.5 55t-37 33t-46 16.5t-56.5 4.5h-160v-262h134q70 0 100 21.5t34 74.5h41v-241h-41q-9 57 -38.5 79.5t-93.5 22.5h-136v-165q0 -36 5.5 -60t19 -39t36 -21t56.5 -6h50q42 0 73 6t55 20.5t43 38.5t37 59h45z" />
    <glyph glyph-name="eogonek" unicode="&#x119;" horiz-adv-x="469" 
d="M118 277q-2 -50 12 -89t38 -65.5t56 -40t67 -13.5q70 0 125 48l21 -19q-29 -47 -70 -74t-90 -33q-5 -14 -5 -32q0 -23 9 -41t24 -30t33.5 -18t37.5 -6q15 0 29 3t30 8l10 -15q-21 -12 -36 -19t-27.5 -11t-24 -5.5t-25.5 -1.5q-51 0 -81.5 25t-30.5 66q0 43 23 75
q-44 1 -80.5 19t-63 49t-41.5 72.5t-15 90.5q0 51 16 95.5t44 76.5t66.5 50.5t82.5 18.5q48 0 83 -19t57.5 -46.5t33.5 -59.5t11 -59h-319zM332 313q-6 54 -31.5 82.5t-67.5 28.5q-44 0 -73 -30t-36 -81h208z" />
    <glyph glyph-name="Ecaron" unicode="&#x11a;" horiz-adv-x="677" 
d="M613 0h-587v38q57 0 82 23.5t25 78.5v402q0 50 -23 76t-84 26v38h578v-152h-36q-14 34 -30.5 55t-37 33t-46 16.5t-56.5 4.5h-160v-262h134q70 0 100 21.5t34 74.5h41v-241h-41q-9 57 -38.5 79.5t-93.5 22.5h-136v-165q0 -36 5.5 -60t19 -39t36 -21t56.5 -6h50q42 0 73 6
t55 20.5t43 38.5t37 59h45zM298 744l-93 161h15l133 -105l112 105h15l-92 -161h-90z" />
    <glyph glyph-name="ecaron" unicode="&#x11b;" horiz-adv-x="469" 
d="M118 277q-2 -50 12 -89t38 -65.5t56 -40t67 -13.5q70 0 125 48l21 -19q-32 -53 -80.5 -81t-105.5 -28q-45 0 -83.5 17t-66 48t-43 73.5t-15.5 92.5q0 51 16 95.5t44 76.5t66.5 50.5t82.5 18.5q48 0 83 -19t57.5 -46.5t33.5 -59.5t11 -59h-319zM332 313q-6 54 -31.5 82.5
t-67.5 28.5q-44 0 -73 -30t-36 -81h208zM202 530l-93 161h15l133 -105l112 105h15l-92 -161h-90z" />
    <glyph glyph-name="Gcircumflex" unicode="&#x11c;" horiz-adv-x="833" 
d="M735 36q-86 -26 -153.5 -37t-126.5 -11q-105 0 -182 30t-127.5 78t-75.5 109t-25 124q0 76 33 142.5t90 116t134 78t165 28.5q58 0 114 -10t130 -35l14 -160h-41q-39 83 -96.5 122.5t-138.5 39.5q-60 0 -111 -23t-88.5 -64.5t-58.5 -97.5t-21 -122t22.5 -123.5
t61.5 -99.5t92 -66t114 -24q42 0 81.5 10.5t84.5 33.5v144q0 46 -24 70t-75 24h-21v38h320v-38q-26 -2 -43.5 -9t-28 -19t-15 -30t-4.5 -43v-176zM513 896l93 -161h-15l-133 105l-112 -105h-15l92 161h90z" />
    <glyph glyph-name="gcircumflex" unicode="&#x11d;" horiz-adv-x="500" 
d="M496 366q-18 -3 -45 -1.5t-51 7.5q8 -20 11.5 -36t3.5 -34q0 -42 -18 -72.5t-46 -50t-60.5 -29t-60.5 -9.5q-12 0 -26 1.5t-37 6.5q-15 -13 -22.5 -21t-7.5 -17q0 -18 22 -25t84 -7h80q69 0 114 -27.5t45 -77.5q0 -36 -19.5 -66.5t-55 -52t-83.5 -34t-105 -12.5
q-53 0 -90 9.5t-60 23.5t-33.5 30t-10.5 29q0 21 19 45t66 59q-57 25 -57 57q0 18 20 42.5t63 59.5q-82 48 -82 134q0 34 13 64t36.5 52t55.5 34.5t70 12.5q27 0 50 -4t48 -10t54.5 -11t71.5 -5q14 0 22 0.5t21 2.5v-68zM142 308q0 -26 6.5 -49.5t19 -41t31 -28t42.5 -10.5
q43 0 64.5 30t21.5 81q0 34 -10 58t-25 39.5t-32.5 23t-32.5 7.5q-34 0 -59.5 -29.5t-25.5 -80.5zM243 -11q-24 0 -48 2t-51 6q-26 -26 -36.5 -40t-10.5 -31q0 -22 18 -35t42 -20t47 -9t33 -2q24 0 55 4t59 13t47 23.5t19 35.5q0 29 -29 41t-95 12h-50zM295 682l93 -161h-15
l-133 105l-112 -105h-15l92 161h90z" />
    <glyph glyph-name="Gbreve" unicode="&#x11e;" horiz-adv-x="833" 
d="M735 36q-86 -26 -153.5 -37t-126.5 -11q-105 0 -182 30t-127.5 78t-75.5 109t-25 124q0 76 33 142.5t90 116t134 78t165 28.5q58 0 114 -10t130 -35l14 -160h-41q-39 83 -96.5 122.5t-138.5 39.5q-60 0 -111 -23t-88.5 -64.5t-58.5 -97.5t-21 -122t22.5 -123.5
t61.5 -99.5t92 -66t114 -24q42 0 81.5 10.5t84.5 33.5v144q0 46 -24 70t-75 24h-21v38h320v-38q-26 -2 -43.5 -9t-28 -19t-15 -30t-4.5 -43v-176zM339 901q19 -33 48 -47.5t77 -14.5q100 0 123 62h16q-5 -60 -43.5 -98t-95.5 -38t-96 37.5t-44 98.5h15z" />
    <glyph glyph-name="gbreve" unicode="&#x11f;" horiz-adv-x="500" 
d="M496 366q-18 -3 -45 -1.5t-51 7.5q8 -20 11.5 -36t3.5 -34q0 -42 -18 -72.5t-46 -50t-60.5 -29t-60.5 -9.5q-12 0 -26 1.5t-37 6.5q-15 -13 -22.5 -21t-7.5 -17q0 -18 22 -25t84 -7h80q69 0 114 -27.5t45 -77.5q0 -36 -19.5 -66.5t-55 -52t-83.5 -34t-105 -12.5
q-53 0 -90 9.5t-60 23.5t-33.5 30t-10.5 29q0 21 19 45t66 59q-57 25 -57 57q0 18 20 42.5t63 59.5q-82 48 -82 134q0 34 13 64t36.5 52t55.5 34.5t70 12.5q27 0 50 -4t48 -10t54.5 -11t71.5 -5q14 0 22 0.5t21 2.5v-68zM142 308q0 -26 6.5 -49.5t19 -41t31 -28t42.5 -10.5
q43 0 64.5 30t21.5 81q0 34 -10 58t-25 39.5t-32.5 23t-32.5 7.5q-34 0 -59.5 -29.5t-25.5 -80.5zM243 -11q-24 0 -48 2t-51 6q-26 -26 -36.5 -40t-10.5 -31q0 -22 18 -35t42 -20t47 -9t33 -2q24 0 55 4t59 13t47 23.5t19 35.5q0 29 -29 41t-95 12h-50zM133 687
q19 -33 48 -47.5t77 -14.5q100 0 123 62h16q-5 -60 -43.5 -98t-95.5 -38t-96 37.5t-44 98.5h15z" />
    <glyph glyph-name="Gdotaccent" unicode="&#x120;" horiz-adv-x="833" 
d="M735 36q-86 -26 -153.5 -37t-126.5 -11q-105 0 -182 30t-127.5 78t-75.5 109t-25 124q0 76 33 142.5t90 116t134 78t165 28.5q58 0 114 -10t130 -35l14 -160h-41q-39 83 -96.5 122.5t-138.5 39.5q-60 0 -111 -23t-88.5 -64.5t-58.5 -97.5t-21 -122t22.5 -123.5
t61.5 -99.5t92 -66t114 -24q42 0 81.5 10.5t84.5 33.5v144q0 46 -24 70t-75 24h-21v38h320v-38q-26 -2 -43.5 -9t-28 -19t-15 -30t-4.5 -43v-176zM469 867q22 0 37.5 -15.5t15.5 -37.5t-15.5 -37.5t-37.5 -15.5t-37.5 15.5t-15.5 37.5t15.5 37.5t37.5 15.5z" />
    <glyph glyph-name="gdotaccent" unicode="&#x121;" horiz-adv-x="500" 
d="M496 366q-18 -3 -45 -1.5t-51 7.5q8 -20 11.5 -36t3.5 -34q0 -42 -18 -72.5t-46 -50t-60.5 -29t-60.5 -9.5q-12 0 -26 1.5t-37 6.5q-15 -13 -22.5 -21t-7.5 -17q0 -18 22 -25t84 -7h80q69 0 114 -27.5t45 -77.5q0 -36 -19.5 -66.5t-55 -52t-83.5 -34t-105 -12.5
q-53 0 -90 9.5t-60 23.5t-33.5 30t-10.5 29q0 21 19 45t66 59q-57 25 -57 57q0 18 20 42.5t63 59.5q-82 48 -82 134q0 34 13 64t36.5 52t55.5 34.5t70 12.5q27 0 50 -4t48 -10t54.5 -11t71.5 -5q14 0 22 0.5t21 2.5v-68zM142 308q0 -26 6.5 -49.5t19 -41t31 -28t42.5 -10.5
q43 0 64.5 30t21.5 81q0 34 -10 58t-25 39.5t-32.5 23t-32.5 7.5q-34 0 -59.5 -29.5t-25.5 -80.5zM243 -11q-24 0 -48 2t-51 6q-26 -26 -36.5 -40t-10.5 -31q0 -22 18 -35t42 -20t47 -9t33 -2q24 0 55 4t59 13t47 23.5t19 35.5q0 29 -29 41t-95 12h-50zM235 653
q22 0 37.5 -15.5t15.5 -37.5t-15.5 -37.5t-37.5 -15.5t-37.5 15.5t-15.5 37.5t15.5 37.5t37.5 15.5z" />
    <glyph glyph-name="Gcommaaccent" unicode="&#x122;" horiz-adv-x="833" 
d="M735 36q-86 -26 -153.5 -37t-126.5 -11q-105 0 -182 30t-127.5 78t-75.5 109t-25 124q0 76 33 142.5t90 116t134 78t165 28.5q58 0 114 -10t130 -35l14 -160h-41q-39 83 -96.5 122.5t-138.5 39.5q-60 0 -111 -23t-88.5 -64.5t-58.5 -97.5t-21 -122t22.5 -123.5
t61.5 -99.5t92 -66t114 -24q42 0 81.5 10.5t84.5 33.5v144q0 46 -24 70t-75 24h-21v38h320v-38q-26 -2 -43.5 -9t-28 -19t-15 -30t-4.5 -43v-176zM388 -177q13 1 28.5 3.5t29 8.5t22.5 16.5t9 27.5q0 22 -6.5 26.5t-13.5 4.5q-20 2 -34.5 9t-14.5 28q0 23 16 32t31 9
q27 0 48.5 -23.5t21.5 -65.5q0 -30 -12 -50t-31 -32t-44 -17t-50 -5v28z" />
    <glyph glyph-name="gcommaaccent" unicode="&#x123;" horiz-adv-x="500" 
d="M496 366q-18 -3 -45 -1.5t-51 7.5q8 -20 11.5 -36t3.5 -34q0 -42 -18 -72.5t-46 -50t-60.5 -29t-60.5 -9.5q-12 0 -26 1.5t-37 6.5q-15 -13 -22.5 -21t-7.5 -17q0 -18 22 -25t84 -7h80q69 0 114 -27.5t45 -77.5q0 -36 -19.5 -66.5t-55 -52t-83.5 -34t-105 -12.5
q-53 0 -90 9.5t-60 23.5t-33.5 30t-10.5 29q0 21 19 45t66 59q-57 25 -57 57q0 18 20 42.5t63 59.5q-82 48 -82 134q0 34 13 64t36.5 52t55.5 34.5t70 12.5q27 0 50 -4t48 -10t54.5 -11t71.5 -5q14 0 22 0.5t21 2.5v-68zM142 308q0 -26 6.5 -49.5t19 -41t31 -28t42.5 -10.5
q43 0 64.5 30t21.5 81q0 34 -10 58t-25 39.5t-32.5 23t-32.5 7.5q-34 0 -59.5 -29.5t-25.5 -80.5zM243 -11q-24 0 -48 2t-51 6q-26 -26 -36.5 -40t-10.5 -31q0 -22 18 -35t42 -20t47 -9t33 -2q24 0 55 4t59 13t47 23.5t19 35.5q0 29 -29 41t-95 12h-50zM304 681
q-13 -1 -28.5 -3.5t-29 -8.5t-22.5 -16.5t-9 -27.5q0 -22 6.5 -26.5t13.5 -4.5q20 -2 34.5 -9t14.5 -28q0 -23 -16 -32t-31 -9q-27 0 -48.5 23.5t-21.5 65.5q0 30 12 50t31 32t43.5 17t50.5 5v-28z" />
    <glyph glyph-name="Hcircumflex" unicode="&#x124;" horiz-adv-x="854" 
d="M241 139q0 -56 25.5 -78.5t82.5 -22.5v-38h-318v38q33 0 53.5 7t32 20.5t15.5 32.5t4 44v404q0 53 -24.5 75.5t-80.5 22.5v38h318v-38q-52 0 -80 -21t-28 -78v-170h370v178q0 42 -23.5 66.5t-73.5 24.5v38h309v-38q-61 0 -84 -25t-23 -79v-394q0 -26 4.5 -46.5t16 -34
t32.5 -20.5t54 -7v-38h-309v38q51 0 74 25t23 72v188h-370v-184zM476 896l93 -161h-15l-133 105l-112 -105h-15l92 161h90z" />
    <glyph glyph-name="hcircumflex" unicode="&#x125;" horiz-adv-x="561" 
d="M472 113q0 -41 20.5 -59t52.5 -18v-36h-232v36q40 0 57.5 21t17.5 51v188q0 46 -26.5 72t-70.5 26q-32 0 -63 -12t-59 -34v-225q0 -46 17.5 -66.5t62.5 -20.5v-36h-239v36q44 0 59.5 24t15.5 56v468l-75 42v23l134 46h25v-309q47 42 84 58.5t82 16.5q27 0 52 -8t43.5 -25
t30 -44.5t11.5 -67.5v-203zM168 883l93 -161h-15l-133 105l-112 -105h-15l92 161h90z" />
    <glyph glyph-name="Hbar" unicode="&#x126;" horiz-adv-x="854" 
d="M136 502v44q0 53 -24.5 75.5t-80.5 22.5v38h318v-38q-52 0 -80 -21t-28 -78v-43h370v51q0 42 -23.5 66.5t-73.5 24.5v38h309v-38q-61 0 -84 -25t-23 -79v-38h79v-47h-79v-309q0 -26 4.5 -46.5t16 -34t32.5 -20.5t54 -7v-38h-309v38q51 0 74 25t23 72v188h-370v-184
q0 -56 25.5 -78.5t82.5 -22.5v-38h-318v38q33 0 53.5 7t32 20.5t15.5 32.5t4 44v313h-79v47h79zM611 375v80h-370v-80h370z" />
    <glyph glyph-name="hbar" unicode="&#x127;" horiz-adv-x="561" 
d="M85 550v34l-75 42v23l134 46h25v-145h154v-47h-154v-117q47 42 84 58.5t82 16.5q27 0 52 -8t43.5 -25t30 -44.5t11.5 -67.5v-203q0 -41 20.5 -59t52.5 -18v-36h-232v36q40 0 57.5 21t17.5 51v188q0 46 -26.5 72t-70.5 26q-32 0 -63 -12t-59 -34v-225q0 -46 17.5 -66.5
t62.5 -20.5v-36h-239v36q44 0 59.5 24t15.5 56v387h-67v47h67z" />
    <glyph glyph-name="Itilde" unicode="&#x128;" horiz-adv-x="375" 
d="M241 139q0 -49 22.5 -75t84.5 -26v-38h-321v38q35 0 56.5 6.5t33 21t15.5 36t4 51.5v384q0 56 -22.5 81.5t-86.5 25.5v38h321v-38q-55 0 -81 -22.5t-26 -80.5v-402zM28 753q2 62 25.5 94.5t66.5 32.5q24 0 46 -11t42 -23.5t37.5 -23.5t32.5 -11q39 0 47 69h15v-9
q0 -53 -26 -86.5t-68 -33.5q-24 0 -45.5 11t-41.5 24t-37.5 23.5t-33.5 10.5q-20 0 -31 -19t-14 -48h-15z" />
    <glyph glyph-name="itilde" unicode="&#x129;" horiz-adv-x="271" 
d="M102 351l-76 38v23l135 49h25v-345q0 -42 17.5 -60.5t44.5 -19.5v-36h-218v36q29 0 50.5 17.5t21.5 55.5v242zM-25 539q2 62 25.5 94.5t66.5 32.5q24 0 46 -11t42 -23.5t37.5 -23.5t32.5 -11q39 0 47 69h15v-9q0 -53 -26 -86.5t-68 -33.5q-24 0 -45.5 11t-41.5 24
t-37.5 23.5t-33.5 10.5q-20 0 -31 -19t-14 -48h-15z" />
    <glyph glyph-name="Imacron" unicode="&#x12a;" horiz-adv-x="375" 
d="M241 139q0 -49 22.5 -75t84.5 -26v-38h-321v38q35 0 56.5 6.5t33 21t15.5 36t4 51.5v384q0 56 -22.5 81.5t-86.5 25.5v38h321v-38q-55 0 -81 -22.5t-26 -80.5v-402zM344 846v-63h-311v63h311z" />
    <glyph glyph-name="imacron" unicode="&#x12b;" horiz-adv-x="271" 
d="M102 351l-76 38v23l135 49h25v-345q0 -42 17.5 -60.5t44.5 -19.5v-36h-218v36q29 0 50.5 17.5t21.5 55.5v242zM286 632v-63h-311v63h311z" />
    <glyph glyph-name="Iogonek" unicode="&#x12e;" horiz-adv-x="375" 
d="M241 139q0 -49 22.5 -75t84.5 -26v-38h-149q-5 -11 -7 -20.5t-2 -20.5q0 -23 9 -41t24 -30t33.5 -18t37.5 -6q15 0 29 3t30 8l10 -15q-21 -12 -36 -19t-27.5 -11t-24 -5.5t-25.5 -1.5q-51 0 -81.5 25t-30.5 66q0 24 8.5 46.5t23.5 39.5h-143v38q35 0 56.5 6.5t33 21
t15.5 36t4 51.5v384q0 56 -22.5 81.5t-86.5 25.5v38h321v-38q-55 0 -81 -22.5t-26 -80.5v-402z" />
    <glyph glyph-name="iogonek" unicode="&#x12f;" horiz-adv-x="271" 
d="M102 351l-76 38v23l135 49h25v-345q0 -42 17.5 -60.5t44.5 -19.5v-36h-95q-5 -11 -7 -20.5t-2 -20.5q0 -23 9 -41t24 -30t33.5 -18t37.5 -6q15 0 29 3t30 8l10 -15q-21 -12 -36 -19t-27.5 -11t-24 -5.5t-25.5 -1.5q-51 0 -81.5 25t-30.5 66q0 24 8.5 46.5t23.5 39.5h-94
v36q29 0 50.5 17.5t21.5 55.5v242zM86 641q0 23 15.5 38.5t38.5 15.5t38.5 -15.5t15.5 -38.5t-15.5 -38.5t-38.5 -15.5t-38.5 15.5t-15.5 38.5z" />
    <glyph glyph-name="Idotaccent" unicode="&#x130;" horiz-adv-x="375" 
d="M241 139q0 -49 22.5 -75t84.5 -26v-38h-321v38q35 0 56.5 6.5t33 21t15.5 36t4 51.5v384q0 56 -22.5 81.5t-86.5 25.5v38h321v-38q-55 0 -81 -22.5t-26 -80.5v-402zM188 867q22 0 37.5 -15.5t15.5 -37.5t-15.5 -37.5t-37.5 -15.5t-37.5 15.5t-15.5 37.5t15.5 37.5
t37.5 15.5z" />
    <glyph glyph-name="dotlessi" unicode="&#x131;" horiz-adv-x="271" 
d="M102 351l-76 38v23l135 49h25v-345q0 -42 17.5 -60.5t44.5 -19.5v-36h-218v36q29 0 50.5 17.5t21.5 55.5v242z" />
    <glyph glyph-name="IJ" unicode="&#x132;" horiz-adv-x="729" 
d="M241 139q0 -49 22.5 -75t84.5 -26v-38h-321v38q35 0 56.5 6.5t33 21t15.5 36t4 51.5v384q0 56 -22.5 81.5t-86.5 25.5v38h321v-38q-55 0 -81 -22.5t-26 -80.5v-402zM730 682v-38q-55 0 -82.5 -20.5t-27.5 -70.5v-451q0 -74 -13 -125.5t-36.5 -84.5t-56 -48t-71.5 -15
q-45 0 -74 18.5t-29 47.5q0 20 12.5 33.5t33.5 13.5q20 0 31.5 -11t20.5 -24t18 -24t25 -11q23 0 28.5 22.5t5.5 60.5v588q0 53 -24.5 77t-85.5 24v38h325z" />
    <glyph glyph-name="ij" unicode="&#x133;" horiz-adv-x="531" 
d="M102 351l-76 38v23l135 49h25v-345q0 -42 17.5 -60.5t44.5 -19.5v-36h-218v36q29 0 50.5 17.5t21.5 55.5v242zM86 641q0 23 15.5 38.5t38.5 15.5t38.5 -15.5t15.5 -38.5t-15.5 -38.5t-38.5 -15.5t-38.5 15.5t-15.5 38.5zM375 348l-80 41v23l139 49h25v-398
q0 -42 -4 -67.5t-18.5 -50t-42 -55t-73.5 -81.5l-34 22q25 37 42 66.5t27.5 55t14.5 48t4 44.5v303zM359 641q0 23 15.5 38.5t38.5 15.5t38.5 -15.5t15.5 -38.5t-15.5 -38.5t-38.5 -15.5t-38.5 15.5t-15.5 38.5z" />
    <glyph glyph-name="Jcircumflex" unicode="&#x134;" horiz-adv-x="354" 
d="M355 682v-38q-55 0 -82.5 -20.5t-27.5 -70.5v-451q0 -74 -13 -125.5t-36.5 -84.5t-56 -48t-71.5 -15q-45 0 -74 18.5t-29 47.5q0 20 12.5 33.5t33.5 13.5q20 0 31.5 -11t20.5 -24t18 -24t25 -11q23 0 28.5 22.5t5.5 60.5v588q0 53 -24.5 77t-85.5 24v38h325zM238 896
l93 -161h-15l-133 105l-112 -105h-15l92 161h90z" />
    <glyph glyph-name="jcircumflex" unicode="&#x135;" horiz-adv-x="260" 
d="M102 348l-80 41v23l139 49h25v-398q0 -42 -4 -67.5t-18.5 -50t-42 -55t-73.5 -81.5l-34 22q25 37 42 66.5t27.5 55t14.5 48t4 44.5v303zM179 682l93 -161h-15l-133 105l-112 -105h-15l92 161h90z" />
    <glyph glyph-name="Kcommaaccent" unicode="&#x136;" horiz-adv-x="802" 
d="M348 682v-38q-54 0 -80 -21.5t-26 -72.5v-414q0 -23 5 -41.5t17.5 -31t34.5 -19t55 -6.5v-38h-323v38q59 0 82.5 24.5t23.5 82.5v388q0 27 -4 47.5t-16 35t-32.5 21.5t-53.5 7v38h317zM743 682v-38q-37 -4 -65 -14t-58 -33q-24 -18 -47 -39t-51.5 -47.5t-66.5 -58
t-90 -70.5q35 -27 75 -63t81.5 -74t83 -75t79.5 -66q42 -32 71.5 -45t61.5 -19v-40h-176q-63 51 -156.5 141t-221.5 198l-13 12q72 50 123.5 90t84.5 71t48 53.5t15 37.5q0 41 -61 41v38h283zM366 -177q13 1 28.5 3.5t29 8.5t22.5 16.5t9 27.5q0 22 -6.5 26.5t-13.5 4.5
q-20 2 -34.5 9t-14.5 28q0 23 16 32t31 9q27 0 48.5 -23.5t21.5 -65.5q0 -30 -12 -50t-31 -32t-44 -17t-50 -5v28z" />
    <glyph glyph-name="kcommaaccent" unicode="&#x137;" horiz-adv-x="510" 
d="M180 111q0 -34 17.5 -54.5t55.5 -20.5v-36h-221v36q10 0 21.5 4t21 13t15.5 23t6 33v480l-64 35v23l123 48h25v-584zM513 42v-42h-77q-17 11 -29.5 20.5t-24.5 21.5l-199 194l95 88q43 39 31.5 64.5t-65.5 25.5v36h248v-36q-29 0 -63 -20.5t-72 -53.5l-92 -78zM227 -177
q13 1 28.5 3.5t29 8.5t22.5 16.5t9 27.5q0 22 -6.5 26.5t-13.5 4.5q-20 2 -34.5 9t-14.5 28q0 23 16 32t31 9q27 0 48.5 -23.5t21.5 -65.5q0 -30 -12 -50t-31 -32t-44 -17t-50 -5v28z" />
    <glyph glyph-name="Lacute" unicode="&#x139;" horiz-adv-x="677" 
d="M135 544q0 25 -5 44t-18 31.5t-34.5 18.5t-55.5 6v38h331v-38q-35 0 -56.5 -7t-34.5 -19.5t-17.5 -30.5t-4.5 -39v-373q0 -69 29 -100.5t103 -31.5h89q66 0 112 28t84 96h42l-42 -167h-635v38q35 2 57 8t34.5 19t17 34t4.5 54v391zM330 739h-16l51 169h109z" />
    <glyph glyph-name="lacute" unicode="&#x13a;" horiz-adv-x="271" 
d="M181 119q0 -38 14 -59.5t48 -23.5v-36h-215v36q38 2 53.5 23t15.5 53v476l-69 38v23l128 46h25v-576zM92 742h-16l51 169h109z" />
    <glyph glyph-name="Lcommaaccent" unicode="&#x13b;" horiz-adv-x="677" 
d="M135 544q0 25 -5 44t-18 31.5t-34.5 18.5t-55.5 6v38h331v-38q-35 0 -56.5 -7t-34.5 -19.5t-17.5 -30.5t-4.5 -39v-373q0 -69 29 -100.5t103 -31.5h89q66 0 112 28t84 96h42l-42 -167h-635v38q35 2 57 8t34.5 19t17 34t4.5 54v391zM302 -177q13 1 28.5 3.5t29 8.5
t22.5 16.5t9 27.5q0 22 -6.5 26.5t-13.5 4.5q-20 2 -34.5 9t-14.5 28q0 23 16 32t31 9q27 0 48.5 -23.5t21.5 -65.5q0 -30 -12 -50t-31 -32t-44 -17t-50 -5v28z" />
    <glyph glyph-name="lcommaaccent" unicode="&#x13c;" horiz-adv-x="271" 
d="M181 119q0 -38 14 -59.5t48 -23.5v-36h-215v36q38 2 53.5 23t15.5 53v476l-69 38v23l128 46h25v-576zM71 -177q13 1 28.5 3.5t29 8.5t22.5 16.5t9 27.5q0 22 -6.5 26.5t-13.5 4.5q-20 2 -34.5 9t-14.5 28q0 23 16 32t31 9q27 0 48.5 -23.5t21.5 -65.5q0 -30 -12 -50
t-31 -32t-44 -17t-50 -5v28z" />
    <glyph glyph-name="Lcaron" unicode="&#x13d;" horiz-adv-x="677" 
d="M135 544q0 25 -5 44t-18 31.5t-34.5 18.5t-55.5 6v38h331v-38q-35 0 -56.5 -7t-34.5 -19.5t-17.5 -30.5t-4.5 -39v-373q0 -69 29 -100.5t103 -31.5h89q66 0 112 28t84 96h42l-42 -167h-635v38q35 2 57 8t34.5 19t17 34t4.5 54v391zM427 473q48 14 72 36.5t24 49.5
q0 15 -7 22t-25 7q-60 0 -60 45q0 23 15.5 36t41.5 13q35 0 60.5 -26t25.5 -71q0 -46 -32.5 -84.5t-101.5 -55.5z" />
    <glyph glyph-name="lcaron" unicode="&#x13e;" horiz-adv-x="271" 
d="M181 119q0 -38 14 -59.5t48 -23.5v-36h-215v36q38 2 53.5 23t15.5 53v476l-69 38v23l128 46h25v-576zM237 486q48 14 72 36.5t24 49.5q0 15 -7 22t-25 7q-60 0 -60 45q0 23 15.5 36t41.5 13q35 0 60.5 -26t25.5 -71q0 -46 -32.5 -84.5t-101.5 -55.5z" />
    <glyph glyph-name="Ldot" unicode="&#x13f;" horiz-adv-x="677" 
d="M135 544q0 25 -5 44t-18 31.5t-34.5 18.5t-55.5 6v38h331v-38q-35 0 -56.5 -7t-34.5 -19.5t-17.5 -30.5t-4.5 -39v-373q0 -69 29 -100.5t103 -31.5h89q66 0 112 28t84 96h42l-42 -167h-635v38q35 2 57 8t34.5 19t17 34t4.5 54v391zM411 425q22 0 37.5 -15.5t15.5 -37.5
t-15.5 -37.5t-37.5 -15.5t-37.5 15.5t-15.5 37.5t15.5 37.5t37.5 15.5z" />
    <glyph glyph-name="ldot" unicode="&#x140;" horiz-adv-x="300" 
d="M181 119q0 -38 14 -59.5t48 -23.5v-36h-215v36q38 2 53.5 23t15.5 53v476l-69 38v23l128 46h25v-576zM294 407q22 0 37.5 -15.5t15.5 -37.5t-15.5 -37.5t-37.5 -15.5t-37.5 15.5t-15.5 37.5t15.5 37.5t37.5 15.5z" />
    <glyph glyph-name="Lslash" unicode="&#x141;" horiz-adv-x="677" 
d="M240 175q0 -69 29 -100.5t103 -31.5h89q66 0 112 28t84 96h42l-42 -167h-635v38q35 2 57 8t34.5 19t17 34t4.5 54v142l-105 -82v58l105 82v191q0 25 -5 44t-18 31.5t-34.5 18.5t-55.5 6v38h331v-38q-35 0 -56.5 -7t-34.5 -19.5t-17.5 -30.5t-4.5 -39v-129l132 103v-58
l-132 -103v-186z" />
    <glyph glyph-name="lslash" unicode="&#x142;" horiz-adv-x="271" 
d="M181 119q0 -38 14 -59.5t48 -23.5v-36h-215v36q38 2 53.5 23t15.5 53v167l-90 -85v50l90 84v260l-69 38v23l128 46h25v-305l83 79v-50l-83 -77v-223z" />
    <glyph glyph-name="Nacute" unicode="&#x143;" horiz-adv-x="844" 
d="M143 559l-44 44q-25 23 -44 30.5t-48 10.5v38h162l511 -518v327q-1 30 -5.5 57.5t-17 48.5t-35.5 34t-61 13v38h269v-38q-56 0 -81.5 -42.5t-25.5 -110.5v-313q0 -38 3 -62.5t7 -44t7.5 -37.5t5.5 -42h-66q-23 32 -43 56t-37 41l-414 424v-347q0 -69 30 -98.5t92 -29.5
v-38h-286v38q66 0 94 23.5t27 85.5v412zM379 739h-16l51 169h109z" />
    <glyph glyph-name="nacute" unicode="&#x144;" 
d="M175 118q0 -42 18 -62t63 -20v-36h-239v36q74 3 74 76v241l-67 38v23l126 47h25v-85h2q31 41 74.5 63t85.5 22q70 0 108.5 -37t38.5 -118v-190q0 -38 14 -56.5t57 -23.5v-36h-236v36q44 0 62.5 20.5t18.5 61.5v166q0 48 -22.5 79t-71.5 31q-35 0 -67 -16t-64 -43v-217z
M254 525h-16l51 169h109z" />
    <glyph glyph-name="Ncommaaccent" unicode="&#x145;" horiz-adv-x="844" 
d="M143 559l-44 44q-25 23 -44 30.5t-48 10.5v38h162l511 -518v327q-1 30 -5.5 57.5t-17 48.5t-35.5 34t-61 13v38h269v-38q-56 0 -81.5 -42.5t-25.5 -110.5v-313q0 -38 3 -62.5t7 -44t7.5 -37.5t5.5 -42h-66q-23 32 -43 56t-37 41l-414 424v-347q0 -69 30 -98.5t92 -29.5
v-38h-286v38q66 0 94 23.5t27 85.5v412zM370 -177q13 1 28.5 3.5t29 8.5t22.5 16.5t9 27.5q0 22 -6.5 26.5t-13.5 4.5q-20 2 -34.5 9t-14.5 28q0 23 16 32t31 9q27 0 48.5 -23.5t21.5 -65.5q0 -30 -12 -50t-31 -32t-44 -17t-50 -5v28z" />
    <glyph glyph-name="ncommaaccent" unicode="&#x146;" 
d="M175 118q0 -42 18 -62t63 -20v-36h-239v36q74 3 74 76v241l-67 38v23l126 47h25v-85h2q31 41 74.5 63t85.5 22q70 0 108.5 -37t38.5 -118v-190q0 -38 14 -56.5t57 -23.5v-36h-236v36q44 0 62.5 20.5t18.5 61.5v166q0 48 -22.5 79t-71.5 31q-35 0 -67 -16t-64 -43v-217z
M218 -177q13 1 28.5 3.5t29 8.5t22.5 16.5t9 27.5q0 22 -6.5 26.5t-13.5 4.5q-20 2 -34.5 9t-14.5 28q0 23 16 32t31 9q27 0 48.5 -23.5t21.5 -65.5q0 -30 -12 -50t-31 -32t-44 -17t-50 -5v28z" />
    <glyph glyph-name="Ncaron" unicode="&#x147;" horiz-adv-x="844" 
d="M143 559l-44 44q-25 23 -44 30.5t-48 10.5v38h162l511 -518v327q-1 30 -5.5 57.5t-17 48.5t-35.5 34t-61 13v38h269v-38q-56 0 -81.5 -42.5t-25.5 -110.5v-313q0 -38 3 -62.5t7 -44t7.5 -37.5t5.5 -42h-66q-23 32 -43 56t-37 41l-414 424v-347q0 -69 30 -98.5t92 -29.5
v-38h-286v38q66 0 94 23.5t27 85.5v412zM372 744l-93 161h15l133 -105l112 105h15l-92 -161h-90z" />
    <glyph glyph-name="ncaron" unicode="&#x148;" 
d="M175 118q0 -42 18 -62t63 -20v-36h-239v36q74 3 74 76v241l-67 38v23l126 47h25v-85h2q31 41 74.5 63t85.5 22q70 0 108.5 -37t38.5 -118v-190q0 -38 14 -56.5t57 -23.5v-36h-236v36q44 0 62.5 20.5t18.5 61.5v166q0 48 -22.5 79t-71.5 31q-35 0 -67 -16t-64 -43v-217z
M246 530l-93 161h15l133 -105l112 105h15l-92 -161h-90z" />
    <glyph glyph-name="napostrophe" unicode="&#x149;" 
d="M175 118q0 -42 18 -62t63 -20v-36h-239v36q74 3 74 76v241l-67 38v23l126 47h25v-85h2q31 41 74.5 63t85.5 22q70 0 108.5 -37t38.5 -118v-190q0 -38 14 -56.5t57 -23.5v-36h-236v36q44 0 62.5 20.5t18.5 61.5v166q0 48 -22.5 79t-71.5 31q-35 0 -67 -16t-64 -43v-217z
M-42 530q13 1 28.5 3.5t29 8.5t22.5 16.5t9 27.5q0 22 -6.5 26.5t-13.5 4.5q-20 2 -34.5 9t-14.5 28q0 23 16 32t31 9q27 0 48.5 -23.5t21.5 -65.5q0 -30 -12 -50t-31 -32t-44 -17t-50 -5v28z" />
    <glyph glyph-name="Omacron" unicode="&#x14c;" horiz-adv-x="813" 
d="M53 328q0 91 30.5 159.5t80.5 114.5t113.5 69t129.5 23q76 0 140.5 -27t111.5 -74.5t74 -113t27 -141.5q0 -74 -28.5 -138t-78 -111t-117 -74t-145.5 -27q-68 0 -129 24.5t-107.5 69.5t-74 107.5t-27.5 138.5zM174 382q0 -69 16 -132t47 -112t77.5 -78t106.5 -29
q49 0 89.5 19.5t69 54.5t44 85t15.5 110q0 65 -15.5 128t-47 112.5t-78 80t-109.5 30.5q-45 0 -84 -17.5t-68.5 -51t-46 -84t-16.5 -116.5zM554 846v-63h-311v63h311z" />
    <glyph glyph-name="omacron" unicode="&#x14d;" horiz-adv-x="542" 
d="M43 228q0 49 17.5 91.5t47.5 74t70.5 49.5t87.5 18q51 0 94 -17t74 -48t48 -73.5t17 -93.5t-17 -95t-47.5 -76t-71.5 -50.5t-89 -18.5q-47 0 -89 19t-73.5 51.5t-50 76t-18.5 92.5zM138 266q0 -33 8 -75t25.5 -78.5t45 -61.5t66.5 -25q59 0 92.5 38t33.5 104q0 32 -7 76
t-24 84t-45.5 68t-70.5 28q-56 0 -90 -35.5t-34 -122.5zM428 632v-63h-311v63h311z" />
    <glyph glyph-name="Obreve" unicode="&#x14e;" horiz-adv-x="813" 
d="M53 328q0 91 30.5 159.5t80.5 114.5t113.5 69t129.5 23q76 0 140.5 -27t111.5 -74.5t74 -113t27 -141.5q0 -74 -28.5 -138t-78 -111t-117 -74t-145.5 -27q-68 0 -129 24.5t-107.5 69.5t-74 107.5t-27.5 138.5zM174 382q0 -69 16 -132t47 -112t77.5 -78t106.5 -29
q49 0 89.5 19.5t69 54.5t44 85t15.5 110q0 65 -15.5 128t-47 112.5t-78 80t-109.5 30.5q-45 0 -84 -17.5t-68.5 -51t-46 -84t-16.5 -116.5zM272 901q19 -33 48 -47.5t77 -14.5q100 0 123 62h16q-5 -60 -43.5 -98t-95.5 -38t-96 37.5t-44 98.5h15z" />
    <glyph glyph-name="obreve" unicode="&#x14f;" horiz-adv-x="542" 
d="M43 228q0 49 17.5 91.5t47.5 74t70.5 49.5t87.5 18q51 0 94 -17t74 -48t48 -73.5t17 -93.5t-17 -95t-47.5 -76t-71.5 -50.5t-89 -18.5q-47 0 -89 19t-73.5 51.5t-50 76t-18.5 92.5zM138 266q0 -33 8 -75t25.5 -78.5t45 -61.5t66.5 -25q59 0 92.5 38t33.5 104q0 32 -7 76
t-24 84t-45.5 68t-70.5 28q-56 0 -90 -35.5t-34 -122.5zM150 687q19 -33 48 -47.5t77 -14.5q100 0 123 62h16q-5 -60 -43.5 -98t-95.5 -38t-96 37.5t-44 98.5h15z" />
    <glyph glyph-name="Ohungarumlaut" unicode="&#x150;" horiz-adv-x="813" 
d="M53 328q0 91 30.5 159.5t80.5 114.5t113.5 69t129.5 23q76 0 140.5 -27t111.5 -74.5t74 -113t27 -141.5q0 -74 -28.5 -138t-78 -111t-117 -74t-145.5 -27q-68 0 -129 24.5t-107.5 69.5t-74 107.5t-27.5 138.5zM174 382q0 -69 16 -132t47 -112t77.5 -78t106.5 -29
q49 0 89.5 19.5t69 54.5t44 85t15.5 110q0 65 -15.5 128t-47 112.5t-78 80t-109.5 30.5q-45 0 -84 -17.5t-68.5 -51t-46 -84t-16.5 -116.5zM325 739h-17l32 169h91zM478 739h-17l32 169h91z" />
    <glyph glyph-name="ohungarumlaut" unicode="&#x151;" horiz-adv-x="542" 
d="M43 228q0 49 17.5 91.5t47.5 74t70.5 49.5t87.5 18q51 0 94 -17t74 -48t48 -73.5t17 -93.5t-17 -95t-47.5 -76t-71.5 -50.5t-89 -18.5q-47 0 -89 19t-73.5 51.5t-50 76t-18.5 92.5zM138 266q0 -33 8 -75t25.5 -78.5t45 -61.5t66.5 -25q59 0 92.5 38t33.5 104q0 32 -7 76
t-24 84t-45.5 68t-70.5 28q-56 0 -90 -35.5t-34 -122.5zM185 525h-17l32 169h91zM338 525h-17l32 169h91z" />
    <glyph glyph-name="OE" unicode="&#x152;" horiz-adv-x="1031" 
d="M755 379q28 0 47.5 4.5t31.5 16t17.5 30t7.5 47.5h46v-246h-46q-5 31 -12 51t-19.5 32t-31.5 17t-47 5h-67q0 -92 -37 -162t-121 -129v-2h262q31 0 54.5 8t44 24.5t39.5 41t40 57.5h42l-34 -174h-593q-86 0 -149 30t-104 78.5t-61 110.5t-20 126q0 76 24.5 138.5
t70 106.5t109.5 68t142 24h564v-156h-35q-13 29 -25 50.5t-30.5 35.5t-47.5 20.5t-77 6.5h-221v-2q143 -73 161 -258h75zM166 381q0 -44 10.5 -101.5t35.5 -109.5t65 -88t100 -36q40 0 74 20t58.5 56t38 85.5t13.5 108.5q0 69 -15.5 128t-42.5 102t-64.5 67.5t-82.5 24.5
q-40 0 -74.5 -16t-60 -48t-40.5 -80.5t-15 -112.5z" />
    <glyph glyph-name="oe" unicode="&#x153;" horiz-adv-x="760" 
d="M449 279q2 -58 12 -98.5t36 -66.5q20 -20 48.5 -32.5t60.5 -12.5q70 0 114 58l21 -13q-23 -57 -69.5 -91t-101.5 -34q-46 0 -86 19.5t-70 54.5q-33 -36 -74 -55t-86 -19q-43 0 -80.5 17t-65.5 48t-44 74t-16 95q0 38 12.5 80t39 77t66.5 58t95 23q47 0 83.5 -16.5
t69.5 -53.5q30 38 62.5 54t80.5 16q154 0 174 -182h-282zM142 257q0 -45 5 -86.5t19 -73.5t38 -51.5t63 -19.5q32 0 52 14t31.5 37t15.5 52t4 58q0 49 -7.5 92t-22.5 75.5t-38.5 51t-55.5 18.5q-47 0 -75.5 -39t-28.5 -128zM632 315q-5 55 -30.5 82t-64.5 27q-79 0 -88 -109
h183z" />
    <glyph glyph-name="Racute" unicode="&#x154;" horiz-adv-x="719" 
d="M243 132q0 -48 24 -71t81 -23v-38h-311v38q33 0 53 8.5t30.5 24t14 36.5t3.5 46v393q0 50 -24 74t-77 24v38h327q70 0 118.5 -14t79 -38t44 -56t13.5 -68q0 -27 -10 -54t-32.5 -50.5t-57.5 -41t-86 -25.5l143 -163q57 -65 97 -99.5t69 -34.5v-38h-80q-27 0 -47.5 5
t-40 17.5t-40.5 35t-49 57.5l-133 166q-9 11 -16.5 19t-16 13t-19.5 7t-28 2h-29v-190zM337 365q85 0 123 34.5t38 94.5q0 28 -10.5 54.5t-32 46.5t-55 32t-79.5 12h-78v-274h94zM277 739h-16l51 169h109z" />
    <glyph glyph-name="racute" unicode="&#x155;" horiz-adv-x="375" 
d="M180 132q0 -28 3.5 -46.5t14.5 -29.5t31 -15.5t53 -4.5v-36h-260v36q30 0 52 17t22 60v234l-74 37v23l133 54h25v-99h2q17 28 31 46t27.5 29t28.5 15.5t35 4.5q16 0 30 -6t23.5 -15t15 -19t5.5 -17q0 -2 -2 -12.5t-7 -22t-12.5 -21t-19.5 -9.5q-13 0 -21.5 7.5t-16.5 16
t-16.5 16t-20.5 7.5q-18 0 -35 -15.5t-47 -58.5v-176zM149 525h-16l51 169h109z" />
    <glyph glyph-name="Rcommaaccent" unicode="&#x156;" horiz-adv-x="719" 
d="M243 132q0 -48 24 -71t81 -23v-38h-311v38q33 0 53 8.5t30.5 24t14 36.5t3.5 46v393q0 50 -24 74t-77 24v38h327q70 0 118.5 -14t79 -38t44 -56t13.5 -68q0 -27 -10 -54t-32.5 -50.5t-57.5 -41t-86 -25.5l143 -163q57 -65 97 -99.5t69 -34.5v-38h-80q-27 0 -47.5 5
t-40 17.5t-40.5 35t-49 57.5l-133 166q-9 11 -16.5 19t-16 13t-19.5 7t-28 2h-29v-190zM337 365q85 0 123 34.5t38 94.5q0 28 -10.5 54.5t-32 46.5t-55 32t-79.5 12h-78v-274h94zM336 -177q13 1 28.5 3.5t29 8.5t22.5 16.5t9 27.5q0 22 -6.5 26.5t-13.5 4.5q-20 2 -34.5 9
t-14.5 28q0 23 16 32t31 9q27 0 48.5 -23.5t21.5 -65.5q0 -30 -12 -50t-31 -32t-44 -17t-50 -5v28z" />
    <glyph glyph-name="rcommaaccent" unicode="&#x157;" horiz-adv-x="375" 
d="M180 132q0 -28 3.5 -46.5t14.5 -29.5t31 -15.5t53 -4.5v-36h-260v36q30 0 52 17t22 60v234l-74 37v23l133 54h25v-99h2q17 28 31 46t27.5 29t28.5 15.5t35 4.5q16 0 30 -6t23.5 -15t15 -19t5.5 -17q0 -2 -2 -12.5t-7 -22t-12.5 -21t-19.5 -9.5q-13 0 -21.5 7.5t-16.5 16
t-16.5 16t-20.5 7.5q-18 0 -35 -15.5t-47 -58.5v-176zM73 -177q13 1 28.5 3.5t29 8.5t22.5 16.5t9 27.5q0 22 -6.5 26.5t-13.5 4.5q-20 2 -34.5 9t-14.5 28q0 23 16 32t31 9q27 0 48.5 -23.5t21.5 -65.5q0 -30 -12 -50t-31 -32t-44 -17t-50 -5v28z" />
    <glyph glyph-name="Rcaron" unicode="&#x158;" horiz-adv-x="719" 
d="M243 132q0 -48 24 -71t81 -23v-38h-311v38q33 0 53 8.5t30.5 24t14 36.5t3.5 46v393q0 50 -24 74t-77 24v38h327q70 0 118.5 -14t79 -38t44 -56t13.5 -68q0 -27 -10 -54t-32.5 -50.5t-57.5 -41t-86 -25.5l143 -163q57 -65 97 -99.5t69 -34.5v-38h-80q-27 0 -47.5 5
t-40 17.5t-40.5 35t-49 57.5l-133 166q-9 11 -16.5 19t-16 13t-19.5 7t-28 2h-29v-190zM337 365q85 0 123 34.5t38 94.5q0 28 -10.5 54.5t-32 46.5t-55 32t-79.5 12h-78v-274h94zM262 744l-93 161h15l133 -105l112 105h15l-92 -161h-90z" />
    <glyph glyph-name="rcaron" unicode="&#x159;" horiz-adv-x="375" 
d="M180 132q0 -28 3.5 -46.5t14.5 -29.5t31 -15.5t53 -4.5v-36h-260v36q30 0 52 17t22 60v234l-74 37v23l133 54h25v-99h2q17 28 31 46t27.5 29t28.5 15.5t35 4.5q16 0 30 -6t23.5 -15t15 -19t5.5 -17q0 -2 -2 -12.5t-7 -22t-12.5 -21t-19.5 -9.5q-13 0 -21.5 7.5t-16.5 16
t-16.5 16t-20.5 7.5q-18 0 -35 -15.5t-47 -58.5v-176zM136 530l-93 161h15l133 -105l112 105h15l-92 -161h-90z" />
    <glyph glyph-name="Sacute" unicode="&#x15a;" horiz-adv-x="594" 
d="M59 208h43q7 -39 21.5 -70.5t37 -54t53.5 -35t73 -12.5q31 0 58.5 9t47.5 24t32 35.5t12 43.5q0 14 -7 32.5t-29 40.5q-24 24 -59.5 46t-74.5 44.5t-78.5 47.5t-70.5 57q-21 21 -33 46.5t-12 59.5q0 39 17 70.5t47.5 54t73 35t94.5 12.5q51 0 105 -14.5t104 -42.5v-147
h-43q-3 38 -17 68t-37 50.5t-53 31.5t-65 11q-26 0 -48.5 -7.5t-39 -20t-26 -30t-9.5 -37.5q0 -36 32 -68q20 -20 55 -41t75 -44t79.5 -48.5t67.5 -53.5q27 -27 41 -57t14 -67q0 -42 -18.5 -76.5t-51.5 -59.5t-79 -39t-101 -14q-27 0 -59.5 4t-64.5 10.5t-60 15t-47 18.5
v172zM253 739h-16l51 169h109z" />
    <glyph glyph-name="sacute" unicode="&#x15b;" horiz-adv-x="396" 
d="M322 310h-31q-11 60 -35.5 87t-66.5 27q-35 0 -55 -17.5t-20 -49.5q0 -28 24.5 -47t58.5 -35t69.5 -31.5t56.5 -36.5q16 -16 24 -38.5t8 -47.5q0 -62 -41 -97t-112 -35q-38 0 -78 9t-69 23v126h33q8 -59 35 -90t72 -31q40 0 65.5 20t25.5 51q0 29 -22 45.5t-54.5 31
t-69.5 32t-68 48.5q-15 15 -23 38t-8 45q0 55 40.5 89.5t105.5 34.5q80 0 135 -43v-108zM145 525h-16l51 169h109z" />
    <glyph glyph-name="Scircumflex" unicode="&#x15c;" horiz-adv-x="594" 
d="M59 208h43q7 -39 21.5 -70.5t37 -54t53.5 -35t73 -12.5q31 0 58.5 9t47.5 24t32 35.5t12 43.5q0 14 -7 32.5t-29 40.5q-24 24 -59.5 46t-74.5 44.5t-78.5 47.5t-70.5 57q-21 21 -33 46.5t-12 59.5q0 39 17 70.5t47.5 54t73 35t94.5 12.5q51 0 105 -14.5t104 -42.5v-147
h-43q-3 38 -17 68t-37 50.5t-53 31.5t-65 11q-26 0 -48.5 -7.5t-39 -20t-26 -30t-9.5 -37.5q0 -36 32 -68q20 -20 55 -41t75 -44t79.5 -48.5t67.5 -53.5q27 -27 41 -57t14 -67q0 -42 -18.5 -76.5t-51.5 -59.5t-79 -39t-101 -14q-27 0 -59.5 4t-64.5 10.5t-60 15t-47 18.5
v172zM343 896l93 -161h-15l-133 105l-112 -105h-15l92 161h90z" />
    <glyph glyph-name="scircumflex" unicode="&#x15d;" horiz-adv-x="396" 
d="M322 310h-31q-11 60 -35.5 87t-66.5 27q-35 0 -55 -17.5t-20 -49.5q0 -28 24.5 -47t58.5 -35t69.5 -31.5t56.5 -36.5q16 -16 24 -38.5t8 -47.5q0 -62 -41 -97t-112 -35q-38 0 -78 9t-69 23v126h33q8 -59 35 -90t72 -31q40 0 65.5 20t25.5 51q0 29 -22 45.5t-54.5 31
t-69.5 32t-68 48.5q-15 15 -23 38t-8 45q0 55 40.5 89.5t105.5 34.5q80 0 135 -43v-108zM243 682l93 -161h-15l-133 105l-112 -105h-15l92 161h90z" />
    <glyph glyph-name="Scedilla" unicode="&#x15e;" horiz-adv-x="594" 
d="M59 208h43q7 -39 21.5 -70.5t37 -54t53.5 -35t73 -12.5q31 0 58.5 9t47.5 24t32 35.5t12 43.5q0 14 -7 32.5t-29 40.5q-24 24 -59.5 46t-74.5 44.5t-78.5 47.5t-70.5 57q-21 21 -33 46.5t-12 59.5q0 39 17 70.5t47.5 54t73 35t94.5 12.5q51 0 105 -14.5t104 -42.5v-147
h-43q-3 38 -17 68t-37 50.5t-53 31.5t-65 11q-26 0 -48.5 -7.5t-39 -20t-26 -30t-9.5 -37.5q0 -36 32 -68q20 -20 55 -41t75 -44t79.5 -48.5t67.5 -53.5q27 -27 41 -57t14 -67q0 -42 -18.5 -76.5t-51.5 -59.5t-79 -39t-101 -14q-27 0 -59.5 4t-64.5 10.5t-60 15t-47 18.5
v172zM290 -12q45 -4 64 -24t19 -44q0 -20 -9.5 -37t-26 -30t-39.5 -20t-49 -7q-13 0 -25 1.5t-33 6.5l4 16q14 -3 21.5 -4t14.5 -1q26 0 45 15.5t19 38.5q0 46 -70 54z" />
    <glyph glyph-name="scedilla" unicode="&#x15f;" horiz-adv-x="396" 
d="M322 310h-31q-11 60 -35.5 87t-66.5 27q-35 0 -55 -17.5t-20 -49.5q0 -28 24.5 -47t58.5 -35t69.5 -31.5t56.5 -36.5q16 -16 24 -38.5t8 -47.5q0 -62 -41 -97t-112 -35q-38 0 -78 9t-69 23v126h33q8 -59 35 -90t72 -31q40 0 65.5 20t25.5 51q0 29 -22 45.5t-54.5 31
t-69.5 32t-68 48.5q-15 15 -23 38t-8 45q0 55 40.5 89.5t105.5 34.5q80 0 135 -43v-108zM202 -12q45 -4 64 -24t19 -44q0 -20 -9.5 -37t-26 -30t-39.5 -20t-49 -7q-13 0 -25 1.5t-33 6.5l4 16q14 -3 21.5 -4t14.5 -1q26 0 45 15.5t19 38.5q0 46 -70 54z" />
    <glyph glyph-name="Scaron" unicode="&#x160;" horiz-adv-x="594" 
d="M59 208h43q7 -39 21.5 -70.5t37 -54t53.5 -35t73 -12.5q31 0 58.5 9t47.5 24t32 35.5t12 43.5q0 14 -7 32.5t-29 40.5q-24 24 -59.5 46t-74.5 44.5t-78.5 47.5t-70.5 57q-21 21 -33 46.5t-12 59.5q0 39 17 70.5t47.5 54t73 35t94.5 12.5q51 0 105 -14.5t104 -42.5v-147
h-43q-3 38 -17 68t-37 50.5t-53 31.5t-65 11q-26 0 -48.5 -7.5t-39 -20t-26 -30t-9.5 -37.5q0 -36 32 -68q20 -20 55 -41t75 -44t79.5 -48.5t67.5 -53.5q27 -27 41 -57t14 -67q0 -42 -18.5 -76.5t-51.5 -59.5t-79 -39t-101 -14q-27 0 -59.5 4t-64.5 10.5t-60 15t-47 18.5
v172zM253 744l-93 161h15l133 -105l112 105h15l-92 -161h-90z" />
    <glyph glyph-name="scaron" unicode="&#x161;" horiz-adv-x="396" 
d="M322 310h-31q-11 60 -35.5 87t-66.5 27q-35 0 -55 -17.5t-20 -49.5q0 -28 24.5 -47t58.5 -35t69.5 -31.5t56.5 -36.5q16 -16 24 -38.5t8 -47.5q0 -62 -41 -97t-112 -35q-38 0 -78 9t-69 23v126h33q8 -59 35 -90t72 -31q40 0 65.5 20t25.5 51q0 29 -22 45.5t-54.5 31
t-69.5 32t-68 48.5q-15 15 -23 38t-8 45q0 55 40.5 89.5t105.5 34.5q80 0 135 -43v-108zM154 530l-93 161h15l133 -105l112 105h15l-92 -161h-90z" />
    <glyph glyph-name="Tcommaaccent" unicode="&#x162;" horiz-adv-x="760" 
d="M328 639h-108q-33 0 -56.5 -4.5t-42.5 -17.5t-35.5 -36.5t-37.5 -60.5h-34l10 162h712l11 -162h-34q-22 38 -39 61.5t-35.5 36t-41.5 17t-56 4.5h-108v-504q0 -48 22.5 -72.5t85.5 -24.5v-38h-321v38q62 0 85 24.5t23 78.5v498zM314 -177q13 1 28.5 3.5t29 8.5t22.5 16.5
t9 27.5q0 22 -6.5 26.5t-13.5 4.5q-20 2 -34.5 9t-14.5 28q0 23 16 32t31 9q27 0 48.5 -23.5t21.5 -65.5q0 -30 -12 -50t-31 -32t-44 -17t-50 -5v28z" />
    <glyph glyph-name="tcommaaccent" unicode="&#x163;" horiz-adv-x="333" 
d="M179 110q0 -17 2.5 -28.5t10 -18.5t21.5 -10t36 -3q15 0 36 1.5t35 3.5v-49q-33 -5 -66 -11t-65 -6q-50 0 -72 21t-22 67v323h-75v27q43 15 72.5 44.5t52.5 58.5h34v-80h136v-50h-136v-290zM119 -177q13 1 28.5 3.5t29 8.5t22.5 16.5t9 27.5q0 22 -6.5 26.5t-13.5 4.5
q-20 2 -34.5 9t-14.5 28q0 23 16 32t31 9q27 0 48.5 -23.5t21.5 -65.5q0 -30 -12 -50t-31 -32t-44 -17t-50 -5v28z" />
    <glyph glyph-name="Tcaron" unicode="&#x164;" horiz-adv-x="760" 
d="M328 639h-108q-33 0 -56.5 -4.5t-42.5 -17.5t-35.5 -36.5t-37.5 -60.5h-34l10 162h712l11 -162h-34q-22 38 -39 61.5t-35.5 36t-41.5 17t-56 4.5h-108v-504q0 -48 22.5 -72.5t85.5 -24.5v-38h-321v38q62 0 85 24.5t23 78.5v498zM333 744l-93 161h15l133 -105l112 105h15
l-92 -161h-90z" />
    <glyph glyph-name="tcaron" unicode="&#x165;" horiz-adv-x="333" 
d="M179 110q0 -17 2.5 -28.5t10 -18.5t21.5 -10t36 -3q15 0 36 1.5t35 3.5v-49q-33 -5 -66 -11t-65 -6q-50 0 -72 21t-22 67v323h-75v27q43 15 72.5 44.5t52.5 58.5h34v-80h136v-50h-136v-290zM239 486q48 14 72 36.5t24 49.5q0 15 -7 22t-25 7q-60 0 -60 45q0 23 15.5 36
t41.5 13q35 0 60.5 -26t25.5 -71q0 -46 -32.5 -84.5t-101.5 -55.5z" />
    <glyph glyph-name="Tbar" unicode="&#x166;" horiz-adv-x="760" 
d="M328 376v263h-108q-33 0 -56.5 -4.5t-42.5 -17.5t-35.5 -36.5t-37.5 -60.5h-34l10 162h712l11 -162h-34q-22 38 -39 61.5t-35.5 36t-41.5 17t-56 4.5h-108v-263h156v-47h-156v-194q0 -48 22.5 -72.5t85.5 -24.5v-38h-321v38q62 0 85 24.5t23 78.5v188h-156v47h156z" />
    <glyph glyph-name="tbar" unicode="&#x167;" horiz-adv-x="333" 
d="M95 269v131h-75v27q43 15 72.5 44.5t52.5 58.5h34v-80h136v-50h-136v-131h117v-47h-117v-112q0 -17 2.5 -28.5t10 -18.5t21.5 -10t36 -3q15 0 36 1.5t35 3.5v-49q-33 -5 -66 -11t-65 -6q-50 0 -72 21t-22 67v145h-66v47h66z" />
    <glyph glyph-name="Utilde" unicode="&#x168;" horiz-adv-x="833" 
d="M345 682v-38q-32 0 -54 -5.5t-35.5 -17.5t-19 -32t-5.5 -49v-311q0 -84 56 -132.5t157 -48.5q42 0 82 12t71 38t49.5 67t18.5 100v262q0 27 -5 48.5t-18.5 37t-36 23.5t-58.5 8v38h269v-38q-47 0 -76.5 -23.5t-29.5 -81.5v-282q0 -77 -23.5 -128.5t-63.5 -83t-92.5 -44.5
t-110.5 -13q-77 0 -132.5 18t-91.5 48.5t-53 70.5t-17 84v339q0 22 -5 40t-17 30.5t-33 19t-54 6.5v38h328zM290 753q2 62 25.5 94.5t66.5 32.5q24 0 46 -11t42 -23.5t37.5 -23.5t32.5 -11q39 0 47 69h15v-9q0 -53 -26 -86.5t-68 -33.5q-24 0 -45.5 11t-41.5 24t-37.5 23.5
t-33.5 10.5q-20 0 -31 -19t-14 -48h-15z" />
    <glyph glyph-name="utilde" unicode="&#x169;" 
d="M553 17l-152 -28v77q-44 -41 -83 -59t-84 -18q-28 0 -52.5 7t-43 23t-29 41t-10.5 60v196q0 30 -4 47t-13 26t-24.5 11.5t-38.5 2.5v36l164 11v-279q0 -57 23 -84t68 -27q33 0 62 11.5t65 40.5v204q0 30 -3.5 47t-13.5 26t-26.5 11.5t-42.5 2.5v36l170 11v-346
q0 -34 13.5 -45.5t54.5 -2.5v-39zM124 539q2 62 25.5 94.5t66.5 32.5q24 0 46 -11t42 -23.5t37.5 -23.5t32.5 -11q39 0 47 69h15v-9q0 -53 -26 -86.5t-68 -33.5q-24 0 -45.5 11t-41.5 24t-37.5 23.5t-33.5 10.5q-20 0 -31 -19t-14 -48h-15z" />
    <glyph glyph-name="Umacron" unicode="&#x16a;" horiz-adv-x="833" 
d="M345 682v-38q-32 0 -54 -5.5t-35.5 -17.5t-19 -32t-5.5 -49v-311q0 -84 56 -132.5t157 -48.5q42 0 82 12t71 38t49.5 67t18.5 100v262q0 27 -5 48.5t-18.5 37t-36 23.5t-58.5 8v38h269v-38q-47 0 -76.5 -23.5t-29.5 -81.5v-282q0 -77 -23.5 -128.5t-63.5 -83t-92.5 -44.5
t-110.5 -13q-77 0 -132.5 18t-91.5 48.5t-53 70.5t-17 84v339q0 22 -5 40t-17 30.5t-33 19t-54 6.5v38h328zM603 846v-63h-311v63h311z" />
    <glyph glyph-name="umacron" unicode="&#x16b;" 
d="M553 17l-152 -28v77q-44 -41 -83 -59t-84 -18q-28 0 -52.5 7t-43 23t-29 41t-10.5 60v196q0 30 -4 47t-13 26t-24.5 11.5t-38.5 2.5v36l164 11v-279q0 -57 23 -84t68 -27q33 0 62 11.5t65 40.5v204q0 30 -3.5 47t-13.5 26t-26.5 11.5t-42.5 2.5v36l170 11v-346
q0 -34 13.5 -45.5t54.5 -2.5v-39zM444 632v-63h-311v63h311z" />
    <glyph glyph-name="Ubreve" unicode="&#x16c;" horiz-adv-x="833" 
d="M345 682v-38q-32 0 -54 -5.5t-35.5 -17.5t-19 -32t-5.5 -49v-311q0 -84 56 -132.5t157 -48.5q42 0 82 12t71 38t49.5 67t18.5 100v262q0 27 -5 48.5t-18.5 37t-36 23.5t-58.5 8v38h269v-38q-47 0 -76.5 -23.5t-29.5 -81.5v-282q0 -77 -23.5 -128.5t-63.5 -83t-92.5 -44.5
t-110.5 -13q-77 0 -132.5 18t-91.5 48.5t-53 70.5t-17 84v339q0 22 -5 40t-17 30.5t-33 19t-54 6.5v38h328zM317 901q19 -33 48 -47.5t77 -14.5q100 0 123 62h16q-5 -60 -43.5 -98t-95.5 -38t-96 37.5t-44 98.5h15z" />
    <glyph glyph-name="ubreve" unicode="&#x16d;" 
d="M553 17l-152 -28v77q-44 -41 -83 -59t-84 -18q-28 0 -52.5 7t-43 23t-29 41t-10.5 60v196q0 30 -4 47t-13 26t-24.5 11.5t-38.5 2.5v36l164 11v-279q0 -57 23 -84t68 -27q33 0 62 11.5t65 40.5v204q0 30 -3.5 47t-13.5 26t-26.5 11.5t-42.5 2.5v36l170 11v-346
q0 -34 13.5 -45.5t54.5 -2.5v-39zM157 687q19 -33 48 -47.5t77 -14.5q100 0 123 62h16q-5 -60 -43.5 -98t-95.5 -38t-96 37.5t-44 98.5h15z" />
    <glyph glyph-name="Uring" unicode="&#x16e;" horiz-adv-x="833" 
d="M345 682v-38q-32 0 -54 -5.5t-35.5 -17.5t-19 -32t-5.5 -49v-311q0 -84 56 -132.5t157 -48.5q42 0 82 12t71 38t49.5 67t18.5 100v262q0 27 -5 48.5t-18.5 37t-36 23.5t-58.5 8v38h269v-38q-47 0 -76.5 -23.5t-29.5 -81.5v-282q0 -77 -23.5 -128.5t-63.5 -83t-92.5 -44.5
t-110.5 -13q-77 0 -132.5 18t-91.5 48.5t-53 70.5t-17 84v339q0 22 -5 40t-17 30.5t-33 19t-54 6.5v38h328zM443 908q39 0 66.5 -27t27.5 -66q0 -20 -7.5 -37t-20 -29.5t-30 -20t-36.5 -7.5q-39 0 -66 27.5t-27 66.5t27 66t66 27zM443 874q-25 0 -42 -17t-17 -42t17 -42.5
t42 -17.5t42.5 17.5t17.5 42.5t-17.5 42t-42.5 17z" />
    <glyph glyph-name="uring" unicode="&#x16f;" 
d="M553 17l-152 -28v77q-44 -41 -83 -59t-84 -18q-28 0 -52.5 7t-43 23t-29 41t-10.5 60v196q0 30 -4 47t-13 26t-24.5 11.5t-38.5 2.5v36l164 11v-279q0 -57 23 -84t68 -27q33 0 62 11.5t65 40.5v204q0 30 -3.5 47t-13.5 26t-26.5 11.5t-42.5 2.5v36l170 11v-346
q0 -34 13.5 -45.5t54.5 -2.5v-39zM284 694q39 0 66.5 -27t27.5 -66q0 -20 -7.5 -37t-20 -29.5t-30 -20t-36.5 -7.5q-39 0 -66 27.5t-27 66.5t27 66t66 27zM284 660q-25 0 -42 -17t-17 -42t17 -42.5t42 -17.5t42.5 17.5t17.5 42.5t-17.5 42t-42.5 17z" />
    <glyph glyph-name="Uhungarumlaut" unicode="&#x170;" horiz-adv-x="833" 
d="M345 682v-38q-32 0 -54 -5.5t-35.5 -17.5t-19 -32t-5.5 -49v-311q0 -84 56 -132.5t157 -48.5q42 0 82 12t71 38t49.5 67t18.5 100v262q0 27 -5 48.5t-18.5 37t-36 23.5t-58.5 8v38h269v-38q-47 0 -76.5 -23.5t-29.5 -81.5v-282q0 -77 -23.5 -128.5t-63.5 -83t-92.5 -44.5
t-110.5 -13q-77 0 -132.5 18t-91.5 48.5t-53 70.5t-17 84v339q0 22 -5 40t-17 30.5t-33 19t-54 6.5v38h328zM352 739h-17l32 169h91zM505 739h-17l32 169h91z" />
    <glyph glyph-name="uhungarumlaut" unicode="&#x171;" 
d="M553 17l-152 -28v77q-44 -41 -83 -59t-84 -18q-28 0 -52.5 7t-43 23t-29 41t-10.5 60v196q0 30 -4 47t-13 26t-24.5 11.5t-38.5 2.5v36l164 11v-279q0 -57 23 -84t68 -27q33 0 62 11.5t65 40.5v204q0 30 -3.5 47t-13.5 26t-26.5 11.5t-42.5 2.5v36l170 11v-346
q0 -34 13.5 -45.5t54.5 -2.5v-39zM199 525h-17l32 169h91zM352 525h-17l32 169h91z" />
    <glyph glyph-name="Uogonek" unicode="&#x172;" horiz-adv-x="833" 
d="M345 682v-38q-32 0 -54 -5.5t-35.5 -17.5t-19 -32t-5.5 -49v-311q0 -84 56 -132.5t157 -48.5q42 0 82 12t71 38t49.5 67t18.5 100v262q0 27 -5 48.5t-18.5 37t-36 23.5t-58.5 8v38h269v-38q-47 0 -76.5 -23.5t-29.5 -81.5v-282q0 -74 -22 -124.5t-59 -81.5t-87 -45.5
t-105 -16.5q-4 -13 -4 -30q0 -23 9 -41t24 -30t33.5 -18t37.5 -6q15 0 29 3t30 8l10 -15q-21 -12 -36 -19t-27.5 -11t-24 -5.5t-25.5 -1.5q-51 0 -81.5 25t-30.5 66q0 20 6 39t17 35q-73 2 -125.5 21t-86.5 49t-50 69t-16 82v339q0 22 -5 40t-17 30.5t-33 19t-54 6.5v38h328
z" />
    <glyph glyph-name="uogonek" unicode="&#x173;" 
d="M553 17l-90 -17q-5 -11 -7 -20.5t-2 -20.5q0 -23 9 -41t24 -30t33.5 -18t37.5 -6q15 0 29 3t30 8l10 -15q-21 -12 -36 -19t-27.5 -11t-24 -5.5t-25.5 -1.5q-51 0 -81.5 25t-30.5 66q0 45 27 80l-28 -5v77q-44 -41 -83 -59t-84 -18q-28 0 -52.5 7t-43 23t-29 41t-10.5 60
v196q0 30 -4 47t-13 26t-24.5 11.5t-38.5 2.5v36l164 11v-279q0 -57 23 -84t68 -27q33 0 62 11.5t65 40.5v204q0 30 -3.5 47t-13.5 26t-26.5 11.5t-42.5 2.5v36l170 11v-346q0 -34 13.5 -45.5t54.5 -2.5v-39z" />
    <glyph glyph-name="Wcircumflex" unicode="&#x174;" horiz-adv-x="1000" 
d="M375 544q-14 31 -26 50.5t-22.5 30.5t-21 15t-20.5 4v38h232v-38q-35 -9 -43 -35t7 -57l63 -127l59 115q7 13 10 29t-0.5 31t-14.5 27t-32 17v38h182v-38q-15 -4 -26 -11t-21.5 -18.5t-21 -29t-24.5 -43.5l-89 -166l87 -176q9 -19 15.5 -34.5t14.5 -35.5l154 354
q29 65 21 108.5t-62 51.5v38h203v-38q-27 -4 -47.5 -26t-40.5 -69l-203 -465q-9 -20 -18.5 -48t-12.5 -48h-47q-4 18 -9.5 32.5t-10.5 25.5l-105 214l-75 -146q-5 -10 -13.5 -26.5t-16.5 -35t-14.5 -36t-7.5 -28.5h-53q-3 20 -16 52.5t-24 58.5l-198 441q-13 29 -21.5 47
t-17.5 29.5t-20 17.5t-27 10v38h237v-38q-25 -6 -37 -18t-14 -28t3 -35t14 -38l80 -170q7 -16 20 -45.5t28 -63.5t29 -69t25 -63l97 193zM553 896l93 -161h-15l-133 105l-112 -105h-15l92 161h90z" />
    <glyph glyph-name="wcircumflex" unicode="&#x175;" horiz-adv-x="729" 
d="M249 104l99 221q-11 28 -18.5 45.5t-16.5 27.5t-20.5 13t-30.5 3v36h217v-36q-47 -4 -55.5 -25.5t11.5 -70.5l83 -207l89 214q6 15 8.5 30.5t-2 28.5t-18 21.5t-38.5 8.5v36h164v-36q-23 -5 -35 -14.5t-23 -36.5l-155 -374h-32l-110 285l-126 -285h-34l-145 360
q-7 18 -12.5 29.5t-11.5 18.5t-13 11t-16 6v36h184v-36q-38 -2 -46.5 -22t6.5 -56zM413 682l93 -161h-15l-133 105l-112 -105h-15l92 161h90z" />
    <glyph glyph-name="Ycircumflex" unicode="&#x176;" horiz-adv-x="719" 
d="M413 132q0 -94 100 -94v-38h-307v38q50 0 76 22t26 73v153l-209 306q-17 26 -38 37.5t-53 14.5v38h300v-38q-60 0 -73.5 -24.5t13.5 -63.5l149 -217l116 170q18 26 24 50t0 42.5t-24 29.5t-48 13v38h246v-38q-15 -2 -28 -7.5t-26.5 -16.5t-28 -29t-32.5 -44l-183 -261
v-154zM424 896l93 -161h-15l-133 105l-112 -105h-15l92 161h90z" />
    <glyph glyph-name="ycircumflex" unicode="&#x177;" horiz-adv-x="479" 
d="M74 355q-10 22 -18 34t-16 17.5t-17 6.5t-21 1v36h218v-36q-45 -2 -55.5 -19.5t6.5 -56.5l103 -236l86 219q15 39 3 65t-58 28v36h173v-36q-14 -3 -24 -8t-17.5 -14t-14.5 -22t-14 -32l-166 -422q-43 -107 -131 -107q-35 0 -57.5 15.5t-22.5 41.5q0 17 12.5 29t30.5 12
q13 0 20.5 -5t14.5 -11t14.5 -11t21.5 -5q29 0 48.5 27.5t39.5 92.5zM291 682l93 -161h-15l-133 105l-112 -105h-15l92 161h90z" />
    <glyph glyph-name="Ydieresis" unicode="&#x178;" horiz-adv-x="719" 
d="M413 132q0 -94 100 -94v-38h-307v38q50 0 76 22t26 73v153l-209 306q-17 26 -38 37.5t-53 14.5v38h300v-38q-60 0 -73.5 -24.5t13.5 -63.5l149 -217l116 170q18 26 24 50t0 42.5t-24 29.5t-48 13v38h246v-38q-15 -2 -28 -7.5t-26.5 -16.5t-28 -29t-32.5 -44l-183 -261
v-154zM446 867q22 0 37.5 -15.5t15.5 -37.5t-15.5 -37.5t-37.5 -15.5t-37.5 15.5t-15.5 37.5t15.5 37.5t37.5 15.5zM274 867q22 0 37.5 -15.5t15.5 -37.5t-15.5 -37.5t-37.5 -15.5t-37.5 15.5t-15.5 37.5t15.5 37.5t37.5 15.5z" />
    <glyph glyph-name="Zacute" unicode="&#x179;" horiz-adv-x="677" 
d="M605 0h-575v30l456 609h-202q-35 0 -60 -5t-44 -18t-33.5 -34.5t-29.5 -54.5h-37v155h546v-29l-460 -610h199q50 0 84 5.5t60.5 20.5t49.5 41t52 67h39zM341 739h-16l51 169h109z" />
    <glyph glyph-name="zacute" unicode="&#x17a;" horiz-adv-x="436" 
d="M127 36h113q31 0 53.5 7.5t39 21.5t28.5 33.5t22 43.5h36l-21 -142h-384v16l293 398h-105q-45 0 -75 -16t-59 -54h-28v123h22q6 -5 10.5 -8.5t12.5 -5.5q15 -3 47 -3h277v-36zM202 525h-16l51 169h109z" />
    <glyph glyph-name="Zdotaccent" unicode="&#x17b;" horiz-adv-x="677" 
d="M605 0h-575v30l456 609h-202q-35 0 -60 -5t-44 -18t-33.5 -34.5t-29.5 -54.5h-37v155h546v-29l-460 -610h199q50 0 84 5.5t60.5 20.5t49.5 41t52 67h39zM336 867q22 0 37.5 -15.5t15.5 -37.5t-15.5 -37.5t-37.5 -15.5t-37.5 15.5t-15.5 37.5t15.5 37.5t37.5 15.5z" />
    <glyph glyph-name="zdotaccent" unicode="&#x17c;" horiz-adv-x="436" 
d="M127 36h113q31 0 53.5 7.5t39 21.5t28.5 33.5t22 43.5h36l-21 -142h-384v16l293 398h-105q-45 0 -75 -16t-59 -54h-28v123h22q6 -5 10.5 -8.5t12.5 -5.5q15 -3 47 -3h277v-36zM216 653q22 0 37.5 -15.5t15.5 -37.5t-15.5 -37.5t-37.5 -15.5t-37.5 15.5t-15.5 37.5
t15.5 37.5t37.5 15.5z" />
    <glyph glyph-name="Zcaron" unicode="&#x17d;" horiz-adv-x="677" 
d="M605 0h-575v30l456 609h-202q-35 0 -60 -5t-44 -18t-33.5 -34.5t-29.5 -54.5h-37v155h546v-29l-460 -610h199q50 0 84 5.5t60.5 20.5t49.5 41t52 67h39zM294 744l-93 161h15l133 -105l112 105h15l-92 -161h-90z" />
    <glyph glyph-name="zcaron" unicode="&#x17e;" horiz-adv-x="436" 
d="M127 36h113q31 0 53.5 7.5t39 21.5t28.5 33.5t22 43.5h36l-21 -142h-384v16l293 398h-105q-45 0 -75 -16t-59 -54h-28v123h22q6 -5 10.5 -8.5t12.5 -5.5q15 -3 47 -3h277v-36zM174 530l-93 161h15l133 -105l112 105h15l-92 -161h-90z" />
    <glyph glyph-name="florin" unicode="&#x192;" horiz-adv-x="579" 
d="M301 426q34 133 84.5 201t121.5 68q26 0 45.5 -16t19.5 -38q0 -17 -11.5 -29t-28.5 -12q-16 0 -23 8t-12 18t-11 18t-19 8q-23 0 -36.5 -31.5t-24.5 -81.5l-26 -113h87l-12 -38h-87l-77 -312q-14 -57 -34 -106t-46.5 -85t-58.5 -56t-71 -20q-33 0 -54 14t-21 40
q0 17 11 28t28 11q15 0 23.5 -8t15.5 -17t14 -17t19 -8q16 0 27.5 13.5t20.5 34t15 44t11 43.5l98 401h-105l12 38h105v0z" />
    <glyph glyph-name="Scommaaccent" unicode="&#x218;" horiz-adv-x="594" 
d="M59 208h43q7 -39 21.5 -70.5t37 -54t53.5 -35t73 -12.5q31 0 58.5 9t47.5 24t32 35.5t12 43.5q0 14 -7 32.5t-29 40.5q-24 24 -59.5 46t-74.5 44.5t-78.5 47.5t-70.5 57q-21 21 -33 46.5t-12 59.5q0 39 17 70.5t47.5 54t73 35t94.5 12.5q51 0 105 -14.5t104 -42.5v-147
h-43q-3 38 -17 68t-37 50.5t-53 31.5t-65 11q-26 0 -48.5 -7.5t-39 -20t-26 -30t-9.5 -37.5q0 -36 32 -68q20 -20 55 -41t75 -44t79.5 -48.5t67.5 -53.5q27 -27 41 -57t14 -67q0 -42 -18.5 -76.5t-51.5 -59.5t-79 -39t-101 -14q-27 0 -59.5 4t-64.5 10.5t-60 15t-47 18.5
v172zM223 -177q13 1 28.5 3.5t29 8.5t22.5 16.5t9 27.5q0 22 -6.5 26.5t-13.5 4.5q-20 2 -34.5 9t-14.5 28q0 23 16 32t31 9q27 0 48.5 -23.5t21.5 -65.5q0 -30 -12 -50t-31 -32t-44 -17t-50 -5v28z" />
    <glyph glyph-name="scommaaccent" unicode="&#x219;" horiz-adv-x="396" 
d="M322 310h-31q-11 60 -35.5 87t-66.5 27q-35 0 -55 -17.5t-20 -49.5q0 -28 24.5 -47t58.5 -35t69.5 -31.5t56.5 -36.5q16 -16 24 -38.5t8 -47.5q0 -62 -41 -97t-112 -35q-38 0 -78 9t-69 23v126h33q8 -59 35 -90t72 -31q40 0 65.5 20t25.5 51q0 29 -22 45.5t-54.5 31
t-69.5 32t-68 48.5q-15 15 -23 38t-8 45q0 55 40.5 89.5t105.5 34.5q80 0 135 -43v-108zM135 -177q13 1 28.5 3.5t29 8.5t22.5 16.5t9 27.5q0 22 -6.5 26.5t-13.5 4.5q-20 2 -34.5 9t-14.5 28q0 23 16 32t31 9q27 0 48.5 -23.5t21.5 -65.5q0 -30 -12 -50t-31 -32t-44 -17
t-50 -5v28z" />
    <glyph glyph-name="uni021A" unicode="&#x21a;" horiz-adv-x="760" 
d="M328 639h-108q-33 0 -56.5 -4.5t-42.5 -17.5t-35.5 -36.5t-37.5 -60.5h-34l10 162h712l11 -162h-34q-22 38 -39 61.5t-35.5 36t-41.5 17t-56 4.5h-108v-504q0 -48 22.5 -72.5t85.5 -24.5v-38h-321v38q62 0 85 24.5t23 78.5v498zM314 -177q13 1 28.5 3.5t29 8.5t22.5 16.5
t9 27.5q0 22 -6.5 26.5t-13.5 4.5q-20 2 -34.5 9t-14.5 28q0 23 16 32t31 9q27 0 48.5 -23.5t21.5 -65.5q0 -30 -12 -50t-31 -32t-44 -17t-50 -5v28z" />
    <glyph glyph-name="uni021B" unicode="&#x21b;" horiz-adv-x="333" 
d="M179 110q0 -17 2.5 -28.5t10 -18.5t21.5 -10t36 -3q15 0 36 1.5t35 3.5v-49q-33 -5 -66 -11t-65 -6q-50 0 -72 21t-22 67v323h-75v27q43 15 72.5 44.5t52.5 58.5h34v-80h136v-50h-136v-290zM119 -177q13 1 28.5 3.5t29 8.5t22.5 16.5t9 27.5q0 22 -6.5 26.5t-13.5 4.5
q-20 2 -34.5 9t-14.5 28q0 23 16 32t31 9q27 0 48.5 -23.5t21.5 -65.5q0 -30 -12 -50t-31 -32t-44 -17t-50 -5v28z" />
    <glyph glyph-name="uni0237" unicode="&#x237;" horiz-adv-x="260" 
d="M102 348l-80 41v23l139 49h25v-398q0 -42 -4 -67.5t-18.5 -50t-42 -55t-73.5 -81.5l-34 22q25 37 42 66.5t27.5 55t14.5 48t4 44.5v303z" />
    <glyph glyph-name="circumflex" unicode="&#x2c6;" horiz-adv-x="333" 
d="M211 682l93 -161h-15l-133 105l-112 -105h-15l92 161h90z" />
    <glyph glyph-name="caron" unicode="&#x2c7;" horiz-adv-x="333" 
d="M122 530l-93 161h15l133 -105l112 105h15l-92 -161h-90z" />
    <glyph glyph-name="uni02C9" unicode="&#x2c9;" horiz-adv-x="333" 
d="M322 632v-63h-311v63h311z" />
    <glyph glyph-name="breve" unicode="&#x2d8;" horiz-adv-x="333" 
d="M42 687q19 -33 48 -47.5t77 -14.5q100 0 123 62h16q-5 -60 -43.5 -98t-95.5 -38t-96 37.5t-44 98.5h15z" />
    <glyph glyph-name="dotaccent" unicode="&#x2d9;" horiz-adv-x="333" 
d="M167 653q22 0 37.5 -15.5t15.5 -37.5t-15.5 -37.5t-37.5 -15.5t-37.5 15.5t-15.5 37.5t15.5 37.5t37.5 15.5z" />
    <glyph glyph-name="ring" unicode="&#x2da;" horiz-adv-x="333" 
d="M166 694q39 0 66.5 -27t27.5 -66q0 -20 -7.5 -37t-20 -29.5t-30 -20t-36.5 -7.5q-39 0 -66 27.5t-27 66.5t27 66t66 27zM166 660q-25 0 -42 -17t-17 -42t17 -42.5t42 -17.5t42.5 17.5t17.5 42.5t-17.5 42t-42.5 17z" />
    <glyph glyph-name="ogonek" unicode="&#x2db;" horiz-adv-x="333" 
d="M137 8q-8 -15 -10.5 -25.5t-2.5 -23.5q0 -23 9 -41t24 -30t33.5 -18t37.5 -6q15 0 29 3t30 8l10 -15q-21 -12 -36 -19t-27.5 -11t-24 -5.5t-25.5 -1.5q-51 0 -81.5 25t-30.5 66q0 26 10.5 51t29.5 43h25z" />
    <glyph glyph-name="tilde" unicode="&#x2dc;" horiz-adv-x="333" 
d="M11 539q2 62 25.5 94.5t66.5 32.5q24 0 46 -11t42 -23.5t37.5 -23.5t32.5 -11q39 0 47 69h15v-9q0 -53 -26 -86.5t-68 -33.5q-24 0 -45.5 11t-41.5 24t-37.5 23.5t-33.5 10.5q-20 0 -31 -19t-14 -48h-15z" />
    <glyph glyph-name="hungarumlaut" unicode="&#x2dd;" horiz-adv-x="333" 
d="M55 525h-17l32 169h91zM208 525h-17l32 169h91z" />
    <glyph glyph-name="Delta" unicode="&#x394;" horiz-adv-x="622" 
d="M34 0v23l254 627l38 11l261 -638v-23h-553zM283 545l-197 -501h398z" />
    <glyph glyph-name="Omega" unicode="&#x3a9;" horiz-adv-x="722" 
d="M663 0h-233l-6 19q16 28 38 64.5t42.5 79.5t34.5 92t14 102q0 76 -17 128.5t-44 85t-61.5 47t-70.5 14.5q-40 0 -75 -15t-61 -48t-41 -86.5t-15 -130.5q0 -51 12.5 -97t31.5 -87.5t41.5 -78.5t42.5 -70l-8 -19h-231l-23 136l23 1q8 -23 15 -37.5t15.5 -22.5t19.5 -10.5
t26 -2.5h104q-24 19 -52.5 46.5t-53.5 63.5t-42 82t-17 103q0 69 22.5 125t61.5 95.5t92 60.5t114 21q63 0 115.5 -20t90.5 -58t59 -92.5t21 -123.5q0 -50 -16 -94t-40.5 -81.5t-54 -69.5t-57.5 -58h109q16 0 26.5 2.5t18 10t14.5 22t15 38.5l25 -1z" />
    <glyph glyph-name="mu" unicode="&#x3bc;" horiz-adv-x="500" 
d="M139 450v-286q0 -62 17 -88.5t52 -26.5q29 0 57.5 15.5t54.5 49.5v336h84v-355q0 -27 10 -40t22 -13q30 0 39 60h21q-1 -30 -9.5 -51t-22 -35t-30.5 -20.5t-35 -6.5q-35 0 -53.5 20t-25.5 73q-42 -50 -76.5 -71.5t-74.5 -21.5q-26 0 -43.5 10t-31.5 33h-2
q0 -42 3.5 -69.5t8 -48t8.5 -37t4 -36.5q0 -23 -13 -38.5t-33 -15.5t-31.5 14.5t-11.5 39.5q0 21 4.5 37t9.5 38t9.5 54.5t4.5 85.5v394h84z" />
    <glyph glyph-name="pi" unicode="&#x3c0;" horiz-adv-x="553" 
d="M525 442q-5 -27 -15 -49.5t-19 -35.5q-12 -3 -29.5 -3.5t-37.5 -0.5q-2 -22 -3 -50t-1.5 -58t-0.5 -60v-55q1 -43 11 -65t33 -22q15 0 25.5 7.5t22.5 21.5l13 -19q-19 -33 -46.5 -48.5t-54.5 -15.5q-19 0 -34.5 5.5t-27 19t-18 37t-6.5 59.5q0 65 3.5 127t7.5 118
q-45 1 -86 1.5t-70 0.5v-18q0 -81 -8 -141t-18.5 -101t-21.5 -63.5t-16 -28.5q-13 -5 -29.5 -10t-27.5 -6l-6 16q27 33 44.5 78.5t28 94.5t14.5 96.5t4 83.5q-25 0 -42.5 -3t-32 -9t-26.5 -14t-25 -18l-14 21q11 13 24 28.5t31.5 28.5t45 21.5t63.5 8.5q54 0 123.5 -1.5
t140.5 -1.5q22 0 34 6t24 26z" />
    <glyph glyph-name="endash" unicode="&#x2013;" horiz-adv-x="500" 
d="M506 270v-43h-512v43h512z" />
    <glyph glyph-name="emdash" unicode="&#x2014;" horiz-adv-x="1000" 
d="M1006 270v-43h-1012v43h1012z" />
    <glyph glyph-name="quoteleft" unicode="&#x2018;" horiz-adv-x="292" 
d="M228 661q-54 -17 -80.5 -43t-26.5 -58q0 -17 7.5 -25.5t27.5 -8.5q67 0 67 -53q0 -26 -17 -41.5t-46 -15.5q-19 0 -36.5 8t-30.5 23t-21 36t-8 47q0 54 36 99.5t113 65.5z" />
    <glyph glyph-name="quoteright" unicode="&#x2019;" horiz-adv-x="292" 
d="M64 450q54 17 80.5 43t26.5 58q0 17 -7.5 25.5t-27.5 8.5q-67 0 -67 53q0 26 17 41.5t46 15.5q19 0 36.5 -8t30.5 -23t21 -36t8 -47q0 -54 -36 -99.5t-113 -65.5z" />
    <glyph glyph-name="quotesinglbase" unicode="&#x201a;" horiz-adv-x="333" 
d="M84 -83q53 19 80 43.5t27 57.5q0 19 -8.5 27t-28.5 8q-65 0 -65 53q0 23 16 40t48 17q18 0 35.5 -8t30.5 -23t21 -35.5t8 -45.5q0 -27 -8.5 -52.5t-26.5 -47.5t-46.5 -39t-68.5 -27z" />
    <glyph glyph-name="quotedblleft" unicode="&#x201c;" horiz-adv-x="510" 
d="M449 661q-54 -17 -80.5 -43t-26.5 -58q0 -17 7.5 -25.5t27.5 -8.5q67 0 67 -53q0 -26 -17 -41.5t-46 -15.5q-19 0 -36.5 8t-30.5 23t-21 36t-8 47q0 54 36 99.5t113 65.5zM225 661q-54 -17 -80.5 -43t-26.5 -58q0 -17 7.5 -25.5t27.5 -8.5q67 0 67 -53q0 -26 -17 -41.5
t-46 -15.5q-19 0 -36.5 8t-30.5 23t-21 36t-8 47q0 54 36 99.5t113 65.5z" />
    <glyph glyph-name="quotedblright" unicode="&#x201d;" horiz-adv-x="510" 
d="M285 450q54 17 80.5 43t26.5 58q0 17 -7.5 25.5t-27.5 8.5q-67 0 -67 53q0 26 17 41.5t46 15.5q19 0 36.5 -8t30.5 -23t21 -36t8 -47q0 -54 -36 -99.5t-113 -65.5zM61 450q54 17 80.5 43t26.5 58q0 17 -7.5 25.5t-27.5 8.5q-67 0 -67 53q0 26 17 41.5t46 15.5
q19 0 36.5 -8t30.5 -23t21 -36t8 -47q0 -54 -36 -99.5t-113 -65.5z" />
    <glyph glyph-name="quotedblbase" unicode="&#x201e;" horiz-adv-x="510" 
d="M285 -83q53 19 80 43.5t27 57.5q0 19 -8.5 27t-28.5 8q-65 0 -65 53q0 23 16 40t48 17q18 0 35.5 -8t30.5 -23t21 -35.5t8 -45.5q0 -27 -8.5 -52.5t-26.5 -47.5t-46.5 -39t-68.5 -27zM61 -83q53 19 80 43.5t27 57.5q0 19 -8.5 27t-28.5 8q-65 0 -65 53q0 23 16 40t48 17
q18 0 35.5 -8t30.5 -23t21 -35.5t8 -45.5q0 -27 -8.5 -52.5t-26.5 -47.5t-46.5 -39t-68.5 -27z" />
    <glyph glyph-name="dagger" unicode="&#x2020;" horiz-adv-x="521" 
d="M450 450q23 5 33.5 -2.5t10.5 -33.5v-30q0 -26 -10.5 -33.5t-33.5 -2.5l-167 31l34 -526q2 -23 -5.5 -33.5t-33.5 -10.5h-36q-26 0 -33.5 10.5t-5.5 33.5l34 526l-167 -31q-23 -5 -33.5 2.5t-10.5 33.5v30q0 26 10.5 33.5t33.5 2.5l167 -31l-28 236q-3 23 2 33.5t31 10.5
h36q26 0 31 -10.5t2 -33.5l-28 -236z" />
    <glyph glyph-name="daggerdbl" unicode="&#x2021;" horiz-adv-x="500" 
d="M269 85l152 37q23 5 33.5 -2.5t10.5 -33.5v-36q0 -26 -10.5 -33.5t-33.5 -2.5l-152 31l34 -192q4 -23 -1.5 -33.5t-31.5 -10.5h-40q-26 0 -31.5 10.5t-1.5 33.5l34 192l-152 -31q-23 -5 -33.5 2.5t-10.5 33.5v36q0 26 10.5 33.5t33.5 2.5l152 -37l-18 169l18 169
l-152 -37q-23 -5 -33.5 2.5t-10.5 33.5v36q0 26 10.5 33.5t33.5 2.5l152 -31l-34 192q-4 23 1.5 33.5t31.5 10.5h40q26 0 31.5 -10.5t1.5 -33.5l-34 -192l152 31q23 5 33.5 -2.5t10.5 -33.5v-36q0 -26 -10.5 -33.5t-33.5 -2.5l-152 37l17 -169z" />
    <glyph glyph-name="bullet" unicode="&#x2022;" horiz-adv-x="350" 
d="M175 453q25 0 47.5 -9.5t39.5 -26t26.5 -39t9.5 -47.5q0 -26 -9.5 -48t-26.5 -39t-39.5 -26.5t-47.5 -9.5q-26 0 -48 9.5t-38.5 26.5t-26 39t-9.5 48q0 25 9.5 47.5t26 39t38.5 26t48 9.5z" />
    <glyph glyph-name="ellipsis" unicode="&#x2026;" horiz-adv-x="1000" 
d="M833 112q26 0 44 -17.5t18 -43.5t-18 -44t-44 -18t-43.5 18t-17.5 44t17.5 43.5t43.5 17.5zM500 112q26 0 44 -17.5t18 -43.5t-18 -44t-44 -18t-43.5 18t-17.5 44t17.5 43.5t43.5 17.5zM167 112q26 0 44 -17.5t18 -43.5t-18 -44t-44 -18t-43.5 18t-17.5 44t17.5 43.5
t43.5 17.5z" />
    <glyph glyph-name="perthousand" unicode="&#x2030;" horiz-adv-x="1083" 
d="M759 162q0 39 11 72.5t30.5 57.5t46.5 37.5t59 13.5q31 0 58 -13.5t46.5 -37t30.5 -56t11 -71.5q0 -38 -11 -70.5t-30.5 -56t-46.5 -37t-58 -13.5q-32 0 -59 13t-46.5 36t-30.5 55t-11 70zM832 164q0 -77 18 -113.5t56 -36.5q73 0 73 145q0 83 -18 120.5t-57 37.5
q-37 0 -54.5 -37t-17.5 -116zM404 162q0 39 11 72.5t30.5 57.5t46.5 37.5t59 13.5q31 0 58 -13.5t46.5 -37t30.5 -56t11 -71.5q0 -38 -11 -70.5t-30.5 -56t-46.5 -37t-58 -13.5q-32 0 -59 13t-46.5 36t-30.5 55t-11 70zM477 164q0 -77 18 -113.5t56 -36.5q73 0 73 145
q0 83 -18 120.5t-57 37.5q-37 0 -54.5 -37t-17.5 -116zM31 513q0 39 11 72.5t30.5 57.5t46.5 37.5t59 13.5q31 0 58 -13.5t46.5 -37t30.5 -56t11 -71.5q0 -38 -11 -70.5t-30.5 -56t-46.5 -37t-58 -13.5q-32 0 -59 13t-46.5 36t-30.5 55t-11 70zM104 515q0 -77 18 -113.5
t56 -36.5q73 0 73 145q0 83 -18 120.5t-57 37.5q-37 0 -54.5 -37t-17.5 -116zM106 -22l463 728h51l-462 -728h-52z" />
    <glyph glyph-name="guilsinglleft" unicode="&#x2039;" horiz-adv-x="250" 
d="M212 32h-24l-148 220l148 220h24l-90 -220z" />
    <glyph glyph-name="guilsinglright" unicode="&#x203a;" horiz-adv-x="250" 
d="M38 472h24l148 -220l-148 -220h-24l90 220z" />
    <glyph glyph-name="fraction" unicode="&#x2044;" horiz-adv-x="240" 
d="M-132 -22l461 728h53l-461 -728h-53z" />
    <glyph glyph-name="Euro" unicode="&#x20ac;" horiz-adv-x="552" 
d="M439 255h-265q6 -49 19 -90t33.5 -71t48 -47t62.5 -17q25 0 47 7t40 17t30.5 19.5t18.5 15.5l26 -28q-7 -8 -22 -20t-37.5 -24t-51.5 -20.5t-63 -8.5q-49 0 -90.5 19.5t-74 54.5t-53.5 84t-28 109h-62l8 43h50v18v18.5t1 18.5h-59l8 43h57q9 52 29 100.5t51.5 85.5
t74.5 59t97 22q71 0 152 -45l15 -133h-32q-23 72 -58.5 104.5t-83.5 32.5q-59 0 -101.5 -56t-52.5 -170h297l-11 -43h-289v-21v-17t1 -17h279z" />
    <glyph glyph-name="afii61289" unicode="&#x2113;" horiz-adv-x="399" 
d="M382 97q-29 -52 -68.5 -79.5t-93.5 -27.5q-66 0 -97 37q-9 10 -15 22t-10.5 28t-6.5 37.5t-2 50.5v76l-60 -43l-12 23l71 55v122q0 58 2 98.5t8 69t16 48.5t26 38q36 45 84 45q22 0 38.5 -10.5t27.5 -28t16.5 -40t5.5 -47.5q0 -42 -11 -79.5t-30.5 -72t-46 -66.5
t-57.5 -63v-85q0 -48 6 -79t17.5 -50t28 -26.5t37.5 -7.5q35 0 61.5 21t46.5 50zM167 334q41 48 67.5 109t26.5 126q0 42 -11 70t-34 28q-14 0 -23.5 -11.5t-15 -36.5t-8 -65.5t-2.5 -98.5v-121z" />
    <glyph glyph-name="trademark" unicode="&#x2122;" horiz-adv-x="980" 
d="M381 664l10 -98h-16q-7 38 -27.5 53.5t-66.5 15.5h-35v-284q0 -20 1.5 -32t7 -19t15 -9.5t25.5 -3.5v-17h-183v17q17 2 27 4.5t15 9.5t6.5 18.5t1.5 31.5v284h-38q-45 0 -65 -15t-28 -54h-16l10 98h356zM698 384l128 280h138v-18q-18 0 -28.5 -2.5t-16 -9.5t-7.5 -20
t-2 -35v-228q0 -21 1.5 -33t7 -18.5t16.5 -9t29 -3.5v-17h-195v17q18 0 29.5 2.5t17.5 9.5t8 19.5t2 32.5v240h-2l-146 -321h-16l-149 317h-2v-236q0 -40 9 -52t38 -12h17v-17h-150v17q18 0 29 2.5t16.5 9t7.5 19t2 33.5v228q0 22 -1.5 35.5t-7.5 20.5t-17 9t-29 2v18h140z
" />
    <glyph glyph-name="uni2126" unicode="&#x2126;" horiz-adv-x="722" 
d="M663 0h-233l-6 19q16 28 38 64.5t42.5 79.5t34.5 92t14 102q0 76 -17 128.5t-44 85t-61.5 47t-70.5 14.5q-40 0 -75 -15t-61 -48t-41 -86.5t-15 -130.5q0 -51 12.5 -97t31.5 -87.5t41.5 -78.5t42.5 -70l-8 -19h-231l-23 136l23 1q8 -23 15 -37.5t15.5 -22.5t19.5 -10.5
t26 -2.5h104q-24 19 -52.5 46.5t-53.5 63.5t-42 82t-17 103q0 69 22.5 125t61.5 95.5t92 60.5t114 21q63 0 115.5 -20t90.5 -58t59 -92.5t21 -123.5q0 -50 -16 -94t-40.5 -81.5t-54 -69.5t-57.5 -58h109q16 0 26.5 2.5t18 10t14.5 22t15 38.5l25 -1z" />
    <glyph glyph-name="estimated" unicode="&#x212e;" horiz-adv-x="814" 
d="M174 316q-5 0 -5 -4v-184q0 -11 8 -21q45 -46 103.5 -73t126.5 -27q73 0 135 30.5t107 81.5h53q-50 -60 -127.5 -95t-168.5 -35q-78 0 -146 26.5t-119 72t-80.5 106.5t-29.5 131t29.5 131.5t80.5 107.5t119 72.5t146 26.5t146.5 -26.5t119 -72.5t80 -107.5t29.5 -131.5
v-9h-607zM644 525q0 13 -9 22q-45 44 -103 70t-125 26t-125.5 -27t-103.5 -72q-9 -9 -9 -23v-181q0 -2 1.5 -4t3.5 -2h466q2 0 3 2t1 4v185z" />
    <glyph glyph-name="partialdiff" unicode="&#x2202;" horiz-adv-x="519" 
d="M258 411q34 0 72 -17t62 -52q2 23 4.5 48t3.5 52q1 36 -5 75t-22 76q-7 17 -19.5 33.5t-29 29.5t-37 21t-42.5 8q-39 0 -74.5 -17t-61.5 -39q-6 -1 -12.5 5t-11.5 15.5t-7 20t2 19.5q25 16 59.5 28t79.5 12q70 0 118.5 -36t83.5 -99q15 -27 24 -56.5t14.5 -59t7.5 -56
t2 -47.5q0 -27 -2.5 -57.5t-8 -62t-14.5 -62.5t-22 -58q-31 -65 -80 -105t-120 -40q-41 0 -74 13.5t-56.5 38t-36.5 60t-13 80.5q0 50 17 90.5t41 67.5q27 31 68.5 51t88.5 20h1zM277 373q-30 0 -57.5 -12t-50.5 -44q-23 -33 -33 -78.5t-10 -94.5q-1 -52 24.5 -88.5
t71.5 -36.5q20 0 37 8.5t31.5 23t25.5 32t20 35.5q10 22 17.5 42.5t13 42.5t10 46t8.5 53q-5 10 -15 22t-23.5 23t-31 18.5t-37.5 7.5h-1z" />
    <glyph glyph-name="uni2206" unicode="&#x2206;" horiz-adv-x="622" 
d="M34 0v23l254 627l38 11l261 -638v-23h-553zM283 545l-197 -501h398z" />
    <glyph glyph-name="product" unicode="&#x220f;" horiz-adv-x="671" 
d="M643 630q-32 -2 -49.5 -5.5t-26.5 -10t-11 -18.5t-2 -31v-546q0 -23 2.5 -37t11 -21.5t26 -11t47.5 -5.5v-25h-251v25q29 2 45.5 4.5t24.5 10t10 21.5t2 39v572q0 21 -6.5 26.5t-27.5 5.5h-208q-20 0 -26 -5t-6 -23v-576q0 -23 1 -36.5t8 -21.5t22.5 -11.5t43.5 -5.5v-25
h-244v25q30 2 47 5.5t25.5 11t11 21t2.5 37.5v546q0 20 -2 31.5t-11 18.5t-27 10t-49 5v24h617v-24z" />
    <glyph glyph-name="summation" unicode="&#x2211;" horiz-adv-x="542" 
d="M477 -84h-450v23l219 327l-213 365v23h444q0 -6 1 -22.5t3 -38t4 -46.5t4 -48l-26 -5q-14 70 -33 100q-5 8 -11 14t-17 9.5t-28.5 5t-44.5 1.5h-192l182 -306l-218 -331h256q31 0 50.5 2.5t33.5 13.5t25.5 34.5t26.5 65.5l26 -7z" />
    <glyph glyph-name="minus" unicode="&#x2212;" horiz-adv-x="667" 
d="M601 364v-77h-535v77h535z" />
    <glyph glyph-name="uni2215" unicode="&#x2215;" horiz-adv-x="240" 
d="M-132 -22l461 728h53l-461 -728h-53z" />
    <glyph glyph-name="uni2219" unicode="&#x2219;" horiz-adv-x="292" 
d="M145 389q26 0 44 -17.5t18 -43.5t-18 -44t-44 -18t-43.5 18t-17.5 44t17.5 43.5t43.5 17.5z" />
    <glyph glyph-name="radical" unicode="&#x221a;" horiz-adv-x="535" 
d="M357 -138l-19 -11l-213 521l-84 -41l-11 31l150 72l166 -420h2l133 833l38 -9z" />
    <glyph glyph-name="infinity" unicode="&#x221e;" horiz-adv-x="729" 
d="M682 269q0 -35 -12.5 -63.5t-32.5 -48.5t-46.5 -30.5t-54.5 -10.5q-43 0 -82.5 26t-88.5 84q-18 -22 -37.5 -42t-40.5 -35t-45.5 -24t-52.5 -9q-29 0 -55 11t-45.5 31t-31 47.5t-11.5 60.5t11.5 61t31.5 48t47.5 31.5t59.5 11.5q26 0 49.5 -8.5t44.5 -23.5t40.5 -35
t38.5 -42q17 19 35 38t38.5 35t45 26t54.5 10q31 0 56.5 -11t44 -30.5t29 -46.5t10.5 -60v-1zM197 167q21 0 40.5 9.5t36.5 23.5t32.5 31.5t29.5 32.5q-15 19 -30.5 37.5t-32.5 33.5t-37.5 24t-44.5 9q-43 0 -67 -30.5t-24 -72.5q0 -41 26.5 -69.5t69.5 -28.5h1zM536 368
q-23 0 -43.5 -11t-38 -26.5t-32.5 -32.5t-27 -30q23 -26 41.5 -45t35 -31.5t33 -18.5t34.5 -6q21 0 38 9t28 23t17 31.5t6 35.5q0 48 -25.5 75t-65.5 27h-1z" />
    <glyph glyph-name="integral" unicode="&#x222b;" horiz-adv-x="360" 
d="M137 402q-6 121 4.5 198.5t31.5 121.5t50 60.5t60 16.5q18 0 37.5 -10.5t19.5 -33.5q0 -20 -12.5 -30.5t-28.5 -10.5q-12 0 -18 7t-10.5 15t-9 15t-12.5 7t-16 -6.5t-14.5 -24.5t-9.5 -49t-1 -80l18 -364q6 -129 -4.5 -211t-31.5 -129t-50.5 -64.5t-60.5 -17.5
q-26 0 -42 13.5t-16 31.5q-1 18 13.5 31t34.5 13q10 0 15.5 -7.5t10 -16t9 -16t12.5 -7.5q23 0 33.5 44t6.5 117z" />
    <glyph glyph-name="approxequal" unicode="&#x2248;" horiz-adv-x="529" 
d="M487 378q-20 -38 -51 -64.5t-73 -26.5q-29 0 -53 10t-56 29q-21 12 -42 21.5t-44 9.5q-32 0 -53.5 -21t-40.5 -48l-35 31q22 41 57 65.5t77 24.5q35 0 59.5 -12.5t44.5 -23.5q26 -15 44 -24t43 -9q28 0 48.5 18t40.5 51zM487 214q-20 -38 -50.5 -64.5t-74.5 -26.5
q-29 0 -52.5 10t-55.5 28q-22 13 -42.5 22.5t-43.5 9.5q-33 0 -54.5 -21t-39.5 -48l-35 30q22 42 57 66.5t77 24.5q35 0 59.5 -12.5t44.5 -23.5q23 -13 42 -23t45 -10q29 0 48.5 17.5t40.5 51.5z" />
    <glyph glyph-name="notequal" unicode="&#x2260;" horiz-adv-x="529" 
d="M339 384h142v-53h-163l-61 -133h224v-53h-246l-50 -110l-42 19l41 91h-137v53h159l60 133h-219v53h241l49 108l43 -19z" />
    <glyph glyph-name="lessequal" unicode="&#x2264;" horiz-adv-x="529" 
d="M52 303v56l427 210v-63l-370 -173v-2l370 -176v-62zM48 1v55h434v-55h-434z" />
    <glyph glyph-name="greaterequal" unicode="&#x2265;" horiz-adv-x="529" 
d="M480 359v-57l-427 -209v62l370 175v2l-370 174v63zM48 1v55h433v-55h-433z" />
    <glyph glyph-name="lozenge" unicode="&#x25ca;" horiz-adv-x="543" 
d="M303 -68h-63l-193 382l195 385h61l194 -385zM274 640h-3l-163 -325l163 -326h3l161 325z" />
    <glyph glyph-name="uniFB01" unicode="&#xfb01;" 
d="M405 351q0 24 -14.5 38t-49.5 14h-149v-279q0 -41 14.5 -63.5t58.5 -24.5v-36h-232v36q75 0 75 76v291h-90v47h31q17 0 28.5 2.5t19 9t10.5 17.5t4 28q1 41 18 76.5t46.5 61t70.5 40t90 14.5q62 0 101.5 -20t39.5 -52q0 -19 -12.5 -32t-29.5 -13q-20 0 -32.5 11.5
t-25.5 25.5t-29.5 25.5t-45.5 11.5q-50 0 -80 -31.5t-30 -100.5v-74h214q20 0 43.5 3t39.5 14v-356q0 -41 22 -57.5t49 -17.5v-36h-230v36q33 0 54 17.5t21 55.5v242z" />
    <glyph glyph-name="uniFB02" unicode="&#xfb02;" 
d="M406 592q-12 4 -19.5 14.5t-18 21.5t-27 19.5t-44.5 8.5q-49 0 -76.5 -35t-27.5 -105v-66h213v142zM193 403v-279q0 -42 13.5 -63t58.5 -25v-36h-231v36q40 0 57.5 22t17.5 57v288h-91v47h32q38 0 48.5 13t12.5 44q4 55 27 92t55.5 59.5t70.5 31.5t72 9q37 0 56 -5
t37 -13l52 14h9v-576q0 -41 14 -60t54 -23v-36h-225v36q39 2 56 23t17 55v289h-213z" />
    <glyph glyph-name="glyph224" horiz-adv-x="0" 
 />
    <glyph glyph-name="glyph372" horiz-adv-x="188" 
d="M17 -177q13 1 28.5 3.5t29 8.5t22.5 16.5t9 27.5q0 22 -6.5 26.5t-13.5 4.5q-20 2 -34.5 9t-14.5 28q0 23 16 32t31 9q27 0 48.5 -23.5t21.5 -65.5q0 -30 -12 -50t-31 -32t-44 -17t-50 -5v28z" />
    </font>
</defs>
</svg>
