<?xml version="1.0" standalone="no"?>
<!DOCTYPE svg PUBLIC "-//W3C//DTD SVG 20010904//EN"
 "http://www.w3.org/TR/2001/REC-SVG-20010904/DTD/svg10.dtd">
<svg version="1.0" xmlns="http://www.w3.org/2000/svg"
 width="84.000000pt" height="84.000000pt" viewBox="0 0 84.000000 84.000000"
 preserveAspectRatio="xMidYMid meet">
<metadata>
Created by potrace 1.16, written by Peter Selinger 2001-2019
</metadata>
<g transform="translate(0.000000,84.000000) scale(0.100000,-0.100000)"
fill="#000000" stroke="none">
<path d="M391 624 c-11 -14 -23 -35 -27 -47 l-7 -22 -8 22 c-10 28 -67 59 -81
45 -6 -6 -13 -31 -15 -57 -5 -37 -9 -45 -22 -39 -22 9 -83 23 -100 24 -10 0
-12 -12 -9 -51 3 -28 2 -45 -2 -38 -8 12 -75 7 -89 -6 -3 -4 6 -29 22 -56 17
-31 22 -49 14 -49 -6 0 -25 -9 -42 -20 l-29 -19 41 -40 c83 -78 230 -104 334
-60 l49 21 49 -21 c104 -44 251 -18 333 60 l42 39 -24 17 c-14 10 -45 23 -70
30 -41 12 -42 12 -10 10 31 -2 37 2 58 41 13 24 22 45 20 47 -2 2 -22 7 -45
11 -41 6 -42 6 -63 -35 -11 -23 -18 -46 -15 -51 3 -6 0 -10 -6 -10 -7 0 -31
-17 -53 -37 l-40 -38 43 48 c23 27 51 67 62 90 21 48 26 117 7 117 -16 -1 -78
-16 -99 -24 -13 -6 -17 2 -22 39 -6 61 -17 71 -55 51 -42 -22 -44 -28 -30 -83
15 -60 14 -59 35 -42 17 13 17 12 2 -6 -9 -11 -19 -27 -21 -35 -3 -8 -9 3 -12
25 -14 82 -60 175 -86 175 -5 0 -18 -12 -29 -26z"/>
</g>
</svg>
