<?xml version="1.0" encoding="UTF-8"?>
<svg xmlns="http://www.w3.org/2000/svg" xmlns:xlink="http://www.w3.org/1999/xlink" width="64pt" height="63pt" viewBox="0 0 64 63" version="1.1">
<g id="surface1">
<path style=" stroke:none;fill-rule:nonzero;fill:rgb(0%,0%,0%);fill-opacity:1;" d="M 31.917969 0 C 14.289062 0 0 14.066406 0 31.417969 C 0 48.773438 14.289062 62.839844 31.917969 62.839844 C 49.546875 62.839844 63.835938 48.773438 63.835938 31.417969 C 63.835938 14.066406 49.546875 0 31.917969 0 Z M 48.109375 34.816406 C 49.597656 36.25 51.171875 37.59375 52.507812 39.171875 C 53.097656 39.871094 53.65625 40.59375 54.078125 41.40625 C 54.6875 42.5625 54.140625 43.832031 53.085938 43.902344 L 46.546875 43.898438 C 44.859375 44.035156 43.515625 43.367188 42.382812 42.230469 C 41.476562 41.324219 40.636719 40.355469 39.765625 39.421875 C 39.410156 39.035156 39.035156 38.671875 38.589844 38.390625 C 37.699219 37.816406 36.921875 37.992188 36.410156 38.910156 C 35.890625 39.84375 35.773438 40.875 35.722656 41.914062 C 35.652344 43.433594 35.1875 43.828125 33.640625 43.898438 C 30.335938 44.050781 27.199219 43.558594 24.28125 41.917969 C 21.710938 40.472656 19.71875 38.429688 17.984375 36.117188 C 14.609375 31.609375 12.019531 26.660156 9.695312 21.570312 C 9.171875 20.425781 9.554688 19.8125 10.839844 19.789062 C 12.976562 19.746094 15.109375 19.753906 17.242188 19.785156 C 18.113281 19.800781 18.6875 20.289062 19.019531 21.097656 C 20.171875 23.890625 21.585938 26.546875 23.359375 29.011719 C 23.832031 29.667969 24.3125 30.324219 25 30.785156 C 25.757812 31.296875 26.335938 31.128906 26.691406 30.296875 C 26.921875 29.765625 27.019531 29.199219 27.070312 28.632812 C 27.238281 26.691406 27.257812 24.75 26.964844 22.816406 C 26.78125 21.605469 26.089844 20.824219 24.863281 20.59375 C 24.242188 20.480469 24.332031 20.25 24.636719 19.898438 C 25.164062 19.292969 25.65625 18.917969 26.644531 18.917969 L 34.03125 18.917969 C 35.195312 19.140625 35.457031 19.65625 35.613281 20.8125 L 35.621094 28.890625 C 35.609375 29.339844 35.847656 30.664062 36.664062 30.957031 C 37.316406 31.167969 37.75 30.652344 38.140625 30.246094 C 39.910156 28.394531 41.171875 26.210938 42.304688 23.949219 C 42.800781 22.953125 43.234375 21.921875 43.652344 20.886719 C 43.960938 20.121094 44.445312 19.746094 45.320312 19.757812 L 52.4375 19.769531 C 52.644531 19.769531 52.859375 19.769531 53.066406 19.804688 C 54.265625 20.007812 54.59375 20.515625 54.222656 21.667969 C 53.636719 23.476562 52.503906 24.980469 51.394531 26.492188 C 50.207031 28.109375 48.9375 29.671875 47.761719 31.296875 C 46.679688 32.78125 46.765625 33.527344 48.109375 34.816406 Z M 48.109375 34.816406 "/>
</g>
</svg>
